<svg id="SvgjsSvg1346" width="611" height="283" xmlns="http://www.w3.org/2000/svg" version="1.1" xmlns:xlink="http://www.w3.org/1999/xlink" xmlns:svgjs="http://svgjs.com/svgjs"><defs id="SvgjsDefs1347"><marker id="SvgjsMarker1374" markerWidth="16" markerHeight="12" refX="16" refY="6" viewBox="0 0 16 12" orient="auto" markerUnits="userSpaceOnUse" stroke-dasharray="0,0"><path id="SvgjsPath1375" d="M0,2 L14,6 L0,11 L0,2" fill="#323232" stroke="#323232" stroke-width="2"></path></marker><marker id="SvgjsMarker1382" markerWidth="16" markerHeight="12" refX="16" refY="6" viewBox="0 0 16 12" orient="auto" markerUnits="userSpaceOnUse" stroke-dasharray="0,0"><path id="SvgjsPath1383" d="M0,2 L14,6 L0,11 L0,2" fill="#323232" stroke="#323232" stroke-width="2"></path></marker><marker id="SvgjsMarker1390" markerWidth="16" markerHeight="12" refX="16" refY="6" viewBox="0 0 16 12" orient="auto" markerUnits="userSpaceOnUse" stroke-dasharray="0,0"><path id="SvgjsPath1391" d="M0,2 L14,6 L0,11 L0,2" fill="#323232" stroke="#323232" stroke-width="2"></path></marker><marker id="SvgjsMarker1398" markerWidth="16" markerHeight="12" refX="16" refY="6" viewBox="0 0 16 12" orient="auto" markerUnits="userSpaceOnUse" stroke-dasharray="0,0"><path id="SvgjsPath1399" d="M0,2 L14,6 L0,11 L0,2" fill="#8a8a8a" stroke="#8a8a8a" stroke-width="2"></path></marker></defs><g id="SvgjsG1348" transform="translate(25,100)"><path id="SvgjsPath1349" d="M 0 0L 100 0L 100 70L 0 70Z" stroke="rgba(50,50,50,1)" stroke-width="2" fill-opacity="1" fill="#ffffff"></path><g id="SvgjsG1350"><text id="SvgjsText1351" font-family="微软雅黑" text-anchor="middle" font-size="13px" width="80px" fill="#323232" font-weight="400" align="middle" anchor="middle" family="微软雅黑" size="13px" weight="400" font-style="" opacity="1" y="25.05" transform="rotate(0)"><tspan id="SvgjsTspan1352" dy="16" x="50"><tspan id="SvgjsTspan1353" style="text-decoration:;">后端</tspan></tspan></text></g></g><g id="SvgjsG1354" transform="translate(265,100)"><path id="SvgjsPath1355" d="M 0 4Q 0 0 4 0L 96 0Q 100 0 100 4L 100 66Q 100 70 96 70L 4 70Q 0 70 0 66Z" stroke="rgba(50,50,50,1)" stroke-width="2" fill-opacity="1" fill="#ffffff"></path><g id="SvgjsG1356"><text id="SvgjsText1357" font-family="微软雅黑" text-anchor="middle" font-size="13px" width="80px" fill="#323232" font-weight="400" align="middle" anchor="middle" family="微软雅黑" size="13px" weight="400" font-style="" opacity="1" y="25.05" transform="rotate(0)"><tspan id="SvgjsTspan1358" dy="16" x="50"><tspan id="SvgjsTspan1359" style="text-decoration:;">Match</tspan></tspan></text></g></g><g id="SvgjsG1360" transform="translate(486,25)"><path id="SvgjsPath1361" d="M 0 4Q 0 0 4 0L 96 0Q 100 0 100 4L 100 66Q 100 70 96 70L 4 70Q 0 70 0 66Z" stroke="rgba(50,50,50,1)" stroke-width="2" fill-opacity="1" fill="#ffffff"></path><g id="SvgjsG1362"><text id="SvgjsText1363" font-family="微软雅黑" text-anchor="middle" font-size="13px" width="80px" fill="#323232" font-weight="400" align="middle" anchor="middle" family="微软雅黑" size="13px" weight="400" font-style="" opacity="1" y="25.05" transform="rotate(0)"><tspan id="SvgjsTspan1364" dy="16" x="50"><tspan id="SvgjsTspan1365" style="text-decoration:;">Milvus</tspan></tspan></text></g></g><g id="SvgjsG1366" transform="translate(486,188)"><path id="SvgjsPath1367" d="M 0 4Q 0 0 4 0L 96 0Q 100 0 100 4L 100 66Q 100 70 96 70L 4 70Q 0 70 0 66Z" stroke="rgba(50,50,50,1)" stroke-width="2" fill-opacity="1" fill="#ffffff"></path><g id="SvgjsG1368"><text id="SvgjsText1369" font-family="微软雅黑" text-anchor="middle" font-size="13px" width="80px" fill="#323232" font-weight="400" align="middle" anchor="middle" family="微软雅黑" size="13px" weight="400" font-style="" opacity="1" y="25.05" transform="rotate(0)"><tspan id="SvgjsTspan1370" dy="16" x="50"><tspan id="SvgjsTspan1371" style="text-decoration:;">Redis</tspan></tspan></text></g></g><g id="SvgjsG1372"><path id="SvgjsPath1373" d="M125 135L195 135L195 135L265 135" stroke="#323232" stroke-width="2" fill="none" marker-end="url(#SvgjsMarker1374)"></path><rect id="SvgjsRect1376" width="39" height="16" x="175.5" y="127" fill="#ffffff"></rect><text id="SvgjsText1377" font-family="微软雅黑" text-anchor="middle" font-size="13px" width="39px" fill="#323232" font-weight="400" align="top" anchor="middle" family="微软雅黑" size="13px" weight="400" font-style="" opacity="1" y="125.05" transform="rotate(0)"><tspan id="SvgjsTspan1378" dy="16" x="195"><tspan id="SvgjsTspan1379" style="text-decoration:;">①下线</tspan></tspan></text></g><g id="SvgjsG1380"><path id="SvgjsPath1381" d="M365 135L486 60" stroke="#323232" stroke-width="2" fill="none" marker-end="url(#SvgjsMarker1382)"></path><rect id="SvgjsRect1384" width="54" height="16" x="398.5" y="89.5" fill="#ffffff"></rect><text id="SvgjsText1385" font-family="微软雅黑" text-anchor="middle" font-size="13px" width="54px" fill="#323232" font-weight="400" align="top" anchor="middle" family="微软雅黑" size="13px" weight="400" font-style="" opacity="1" y="87.55" transform="rotate(0)"><tspan id="SvgjsTspan1386" dy="16" x="425.5"><tspan id="SvgjsTspan1387" style="text-decoration:;">② delete</tspan></tspan></text></g><g id="SvgjsG1388"><path id="SvgjsPath1389" d="M365 135L486 223" stroke="#323232" stroke-width="2" fill="none" marker-end="url(#SvgjsMarker1390)"></path><rect id="SvgjsRect1392" width="65" height="16" x="393" y="171" fill="#ffffff"></rect><text id="SvgjsText1393" font-family="微软雅黑" text-anchor="middle" font-size="13px" width="65px" fill="#323232" font-weight="400" align="top" anchor="middle" family="微软雅黑" size="13px" weight="400" font-style="" opacity="1" y="169.05" transform="rotate(0)"><tspan id="SvgjsTspan1394" dy="16" x="425.5"><tspan id="SvgjsTspan1395" style="text-decoration:;">③删除映射</tspan></tspan></text></g><g id="SvgjsG1396"><path id="SvgjsPath1397" d="M315 100L315 70L75 70L75 100" stroke-dasharray="3,3" stroke="#8a8a8a" stroke-width="2" fill="none" marker-end="url(#SvgjsMarker1398)"></path><rect id="SvgjsRect1400" width="65" height="16" x="162.5" y="62" fill="#ffffff"></rect><text id="SvgjsText1401" font-family="微软雅黑" text-anchor="middle" font-size="13px" width="65px" fill="#323232" font-weight="400" align="top" anchor="middle" family="微软雅黑" size="13px" weight="400" font-style="" opacity="1" y="60.05" transform="rotate(0)"><tspan id="SvgjsTspan1402" dy="16" x="195"><tspan id="SvgjsTspan1403" style="text-decoration:;">④回调接口</tspan></tspan></text></g></svg>