<svg id="SvgjsSvg1006" width="646" height="345" xmlns="http://www.w3.org/2000/svg" version="1.1" xmlns:xlink="http://www.w3.org/1999/xlink" xmlns:svgjs="http://svgjs.com/svgjs"><defs id="SvgjsDefs1007"><marker id="SvgjsMarker1040" markerWidth="16" markerHeight="12" refX="16" refY="6" viewBox="0 0 16 12" orient="auto" markerUnits="userSpaceOnUse" stroke-dasharray="0,0"><path id="SvgjsPath1041" d="M0,2 L14,6 L0,11 L0,2" fill="#323232" stroke="#323232" stroke-width="2"></path></marker><marker id="SvgjsMarker1048" markerWidth="16" markerHeight="12" refX="0" refY="6" viewBox="0 0 16 12" orient="auto" markerUnits="userSpaceOnUse" stroke-dasharray="0,0"><path id="SvgjsPath1049" d="M15,1.5 L2,6 L15,10.5" fill="#323232" stroke="#323232" stroke-width="2"></path></marker><marker id="SvgjsMarker1050" markerWidth="16" markerHeight="12" refX="16" refY="6" viewBox="0 0 16 12" orient="auto" markerUnits="userSpaceOnUse" stroke-dasharray="0,0"><path id="SvgjsPath1051" d="M0,2 L14,6 L0,11 L0,2" fill="#323232" stroke="#323232" stroke-width="2"></path></marker><marker id="SvgjsMarker1060" markerWidth="16" markerHeight="12" refX="0" refY="6" viewBox="0 0 16 12" orient="auto" markerUnits="userSpaceOnUse" stroke-dasharray="0,0"><path id="SvgjsPath1061" d="M15,1.5 L2,6 L15,10.5" fill="#323232" stroke="#323232" stroke-width="2"></path></marker><marker id="SvgjsMarker1062" markerWidth="16" markerHeight="12" refX="16" refY="6" viewBox="0 0 16 12" orient="auto" markerUnits="userSpaceOnUse" stroke-dasharray="0,0"><path id="SvgjsPath1063" d="M0,2 L14,6 L0,11 L0,2" fill="#323232" stroke="#323232" stroke-width="2"></path></marker><marker id="SvgjsMarker1072" markerWidth="16" markerHeight="12" refX="16" refY="6" viewBox="0 0 16 12" orient="auto" markerUnits="userSpaceOnUse" stroke-dasharray="0,0"><path id="SvgjsPath1073" d="M0,2 L14,6 L0,11 L0,2" fill="#323232" stroke="#323232" stroke-width="2"></path></marker><marker id="SvgjsMarker1080" markerWidth="16" markerHeight="12" refX="16" refY="6" viewBox="0 0 16 12" orient="auto" markerUnits="userSpaceOnUse" stroke-dasharray="0,0"><path id="SvgjsPath1081" d="M0,2 L14,6 L0,11 L0,2" fill="#323232" stroke="#323232" stroke-width="2"></path></marker></defs><g id="SvgjsG1008" transform="translate(25,95)"><path id="SvgjsPath1009" d="M 0 0L 100 0L 100 70L 0 70Z" stroke="rgba(50,50,50,1)" stroke-width="2" fill-opacity="1" fill="#ffffff"></path><g id="SvgjsG1010"><text id="SvgjsText1011" font-family="微软雅黑" text-anchor="middle" font-size="13px" width="80px" fill="#323232" font-weight="400" align="middle" anchor="middle" family="微软雅黑" size="13px" weight="400" font-style="" opacity="1" y="25.05" transform="rotate(0)"><tspan id="SvgjsTspan1012" dy="16" x="50"><tspan id="SvgjsTspan1013" style="text-decoration:;">后端</tspan></tspan></text></g></g><g id="SvgjsG1014" transform="translate(265,95)"><path id="SvgjsPath1015" d="M 0 4Q 0 0 4 0L 96 0Q 100 0 100 4L 100 66Q 100 70 96 70L 4 70Q 0 70 0 66Z" stroke="rgba(50,50,50,1)" stroke-width="2" fill-opacity="1" fill="#ffffff"></path><g id="SvgjsG1016"><text id="SvgjsText1017" font-family="微软雅黑" text-anchor="middle" font-size="13px" width="80px" fill="#323232" font-weight="400" align="middle" anchor="middle" family="微软雅黑" size="13px" weight="400" font-style="" opacity="1" y="25.05" transform="rotate(0)"><tspan id="SvgjsTspan1018" dy="16" x="50"><tspan id="SvgjsTspan1019" style="text-decoration:;">Match</tspan></tspan></text></g></g><g id="SvgjsG1020" transform="translate(518,25)"><path id="SvgjsPath1021" d="M 0 4Q 0 0 4 0L 96 0Q 100 0 100 4L 100 66Q 100 70 96 70L 4 70Q 0 70 0 66Z" stroke="rgba(50,50,50,1)" stroke-width="2" fill-opacity="1" fill="#ffffff"></path><g id="SvgjsG1022"><text id="SvgjsText1023" font-family="微软雅黑" text-anchor="middle" font-size="13px" width="80px" fill="#323232" font-weight="400" align="middle" anchor="middle" family="微软雅黑" size="13px" weight="400" font-style="" opacity="1" y="25.05" transform="rotate(0)"><tspan id="SvgjsTspan1024" dy="16" x="50"><tspan id="SvgjsTspan1025" style="text-decoration:;">模型</tspan></tspan></text></g></g><g id="SvgjsG1026" transform="translate(521,130)"><path id="SvgjsPath1027" d="M 0 4Q 0 0 4 0L 96 0Q 100 0 100 4L 100 66Q 100 70 96 70L 4 70Q 0 70 0 66Z" stroke="rgba(50,50,50,1)" stroke-width="2" fill-opacity="1" fill="#ffffff"></path><g id="SvgjsG1028"><text id="SvgjsText1029" font-family="微软雅黑" text-anchor="middle" font-size="13px" width="80px" fill="#323232" font-weight="400" align="middle" anchor="middle" family="微软雅黑" size="13px" weight="400" font-style="" opacity="1" y="25.05" transform="rotate(0)"><tspan id="SvgjsTspan1030" dy="16" x="50"><tspan id="SvgjsTspan1031" style="text-decoration:;">Milvus</tspan></tspan></text></g></g><g id="SvgjsG1032" transform="translate(521,250)"><path id="SvgjsPath1033" d="M 0 4Q 0 0 4 0L 96 0Q 100 0 100 4L 100 66Q 100 70 96 70L 4 70Q 0 70 0 66Z" stroke="rgba(50,50,50,1)" stroke-width="2" fill-opacity="1" fill="#ffffff"></path><g id="SvgjsG1034"><text id="SvgjsText1035" font-family="微软雅黑" text-anchor="middle" font-size="13px" width="80px" fill="#323232" font-weight="400" align="middle" anchor="middle" family="微软雅黑" size="13px" weight="400" font-style="" opacity="1" y="25.05" transform="rotate(0)"><tspan id="SvgjsTspan1036" dy="16" x="50"><tspan id="SvgjsTspan1037" style="text-decoration:;">Redis</tspan></tspan></text></g></g><g id="SvgjsG1038"><path id="SvgjsPath1039" d="M125 130L195 130L195 130L265 130" stroke="#323232" stroke-width="2" fill="none" marker-end="url(#SvgjsMarker1040)"></path><rect id="SvgjsRect1042" width="72" height="16" x="159" y="122" fill="#ffffff"></rect><text id="SvgjsText1043" font-family="微软雅黑" text-anchor="middle" font-size="13px" width="72px" fill="#323232" font-weight="400" align="top" anchor="middle" family="微软雅黑" size="13px" weight="400" font-style="" opacity="1" y="120.05" transform="rotate(0)"><tspan id="SvgjsTspan1044" dy="16" x="195"><tspan id="SvgjsTspan1045" style="text-decoration:;">①上线/更新</tspan></tspan></text></g><g id="SvgjsG1046"><path id="SvgjsPath1047" d="M315 165L315 211L75 211L75 165" stroke="#323232" stroke-width="2" fill="none" marker-start="url(#SvgjsMarker1048)" marker-end="url(#SvgjsMarker1050)"></path><rect id="SvgjsRect1052" width="65" height="32" x="162.5" y="195" fill="#ffffff"></rect><text id="SvgjsText1053" font-family="微软雅黑" text-anchor="middle" font-size="13px" width="65px" fill="#323232" font-weight="400" align="top" anchor="middle" family="微软雅黑" size="13px" weight="400" font-style="" opacity="1" y="193.05" transform="rotate(0)"><tspan id="SvgjsTspan1054" dy="16" x="195"><tspan id="SvgjsTspan1055" style="text-decoration:;">②取数据</tspan></tspan><tspan id="SvgjsTspan1056" dy="16" x="195"><tspan id="SvgjsTspan1057" style="text-decoration:;">③返回数据</tspan></tspan></text></g><g id="SvgjsG1058"><path id="SvgjsPath1059" d="M365 130L518 60" stroke="#323232" stroke-width="2" fill="none" marker-start="url(#SvgjsMarker1060)" marker-end="url(#SvgjsMarker1062)"></path><rect id="SvgjsRect1064" width="91" height="32" x="396" y="79" fill="#ffffff"></rect><text id="SvgjsText1065" font-family="微软雅黑" text-anchor="middle" font-size="13px" width="91px" fill="#323232" font-weight="400" align="top" anchor="middle" family="微软雅黑" size="13px" weight="400" font-style="" opacity="1" y="77.05" transform="rotate(0)"><tspan id="SvgjsTspan1066" dy="16" x="441.5"><tspan id="SvgjsTspan1067" style="text-decoration:;">④计算句子向量</tspan></tspan><tspan id="SvgjsTspan1068" dy="16" x="441.5"><tspan id="SvgjsTspan1069" style="text-decoration:;">⑤返回句子向量</tspan></tspan></text></g><g id="SvgjsG1070"><path id="SvgjsPath1071" d="M365 130L521 165" stroke="#323232" stroke-width="2" fill="none" marker-end="url(#SvgjsMarker1072)"></path><rect id="SvgjsRect1074" width="51" height="16" x="417.5" y="139.5" fill="#ffffff"></rect><text id="SvgjsText1075" font-family="微软雅黑" text-anchor="middle" font-size="13px" width="51px" fill="#323232" font-weight="400" align="top" anchor="middle" family="微软雅黑" size="13px" weight="400" font-style="" opacity="1" y="137.55" transform="rotate(0)"><tspan id="SvgjsTspan1076" dy="16" x="443"><tspan id="SvgjsTspan1077" style="text-decoration:;">⑥ Insert</tspan></tspan></text></g><g id="SvgjsG1078"><path id="SvgjsPath1079" d="M365 130L521 285" stroke="#323232" stroke-width="2" fill="none" marker-end="url(#SvgjsMarker1080)"></path><rect id="SvgjsRect1082" width="65" height="16" x="410.5" y="199.5" fill="#ffffff"></rect><text id="SvgjsText1083" font-family="微软雅黑" text-anchor="middle" font-size="13px" width="65px" fill="#323232" font-weight="400" align="top" anchor="middle" family="微软雅黑" size="13px" weight="400" font-style="" opacity="1" y="197.55" transform="rotate(0)"><tspan id="SvgjsTspan1084" dy="16" x="443"><tspan id="SvgjsTspan1085" style="text-decoration:;">⑦保存映射</tspan></tspan></text></g></svg>