<svg id="SvgjsSvg1086" width="646" height="345" xmlns="http://www.w3.org/2000/svg" version="1.1" xmlns:xlink="http://www.w3.org/1999/xlink" xmlns:svgjs="http://svgjs.com/svgjs"><defs id="SvgjsDefs1087"><marker id="SvgjsMarker1120" markerWidth="16" markerHeight="12" refX="16" refY="6" viewBox="0 0 16 12" orient="auto" markerUnits="userSpaceOnUse" stroke-dasharray="0,0"><path id="SvgjsPath1121" d="M0,2 L14,6 L0,11 L0,2" fill="#323232" stroke="#323232" stroke-width="2"></path></marker><marker id="SvgjsMarker1128" markerWidth="16" markerHeight="12" refX="0" refY="6" viewBox="0 0 16 12" orient="auto" markerUnits="userSpaceOnUse" stroke-dasharray="0,0"><path id="SvgjsPath1129" d="M15,1.5 L2,6 L15,10.5" fill="#323232" stroke="#323232" stroke-width="2"></path></marker><marker id="SvgjsMarker1130" markerWidth="16" markerHeight="12" refX="16" refY="6" viewBox="0 0 16 12" orient="auto" markerUnits="userSpaceOnUse" stroke-dasharray="0,0"><path id="SvgjsPath1131" d="M0,2 L14,6 L0,11 L0,2" fill="#323232" stroke="#323232" stroke-width="2"></path></marker><marker id="SvgjsMarker1140" markerWidth="16" markerHeight="12" refX="0" refY="6" viewBox="0 0 16 12" orient="auto" markerUnits="userSpaceOnUse" stroke-dasharray="0,0"><path id="SvgjsPath1141" d="M15,1.5 L2,6 L15,10.5" fill="#323232" stroke="#323232" stroke-width="2"></path></marker><marker id="SvgjsMarker1142" markerWidth="16" markerHeight="12" refX="16" refY="6" viewBox="0 0 16 12" orient="auto" markerUnits="userSpaceOnUse" stroke-dasharray="0,0"><path id="SvgjsPath1143" d="M0,2 L14,6 L0,11 L0,2" fill="#323232" stroke="#323232" stroke-width="2"></path></marker><marker id="SvgjsMarker1152" markerWidth="16" markerHeight="12" refX="16" refY="6" viewBox="0 0 16 12" orient="auto" markerUnits="userSpaceOnUse" stroke-dasharray="0,0"><path id="SvgjsPath1153" d="M0,2 L14,6 L0,11 L0,2" fill="#323232" stroke="#323232" stroke-width="2"></path></marker><marker id="SvgjsMarker1160" markerWidth="16" markerHeight="12" refX="16" refY="6" viewBox="0 0 16 12" orient="auto" markerUnits="userSpaceOnUse" stroke-dasharray="0,0"><path id="SvgjsPath1161" d="M0,2 L14,6 L0,11 L0,2" fill="#323232" stroke="#323232" stroke-width="2"></path></marker><marker id="SvgjsMarker1168" markerWidth="16" markerHeight="12" refX="16" refY="6" viewBox="0 0 16 12" orient="auto" markerUnits="userSpaceOnUse" stroke-dasharray="0,0"><path id="SvgjsPath1169" d="M0,2 L14,6 L0,11 L0,2" fill="#8a8a8a" stroke="#8a8a8a" stroke-width="2"></path></marker></defs><g id="SvgjsG1088" transform="translate(25,95)"><path id="SvgjsPath1089" d="M 0 0L 100 0L 100 70L 0 70Z" stroke="rgba(50,50,50,1)" stroke-width="2" fill-opacity="1" fill="#ffffff"></path><g id="SvgjsG1090"><text id="SvgjsText1091" font-family="微软雅黑" text-anchor="middle" font-size="13px" width="80px" fill="#323232" font-weight="400" align="middle" anchor="middle" family="微软雅黑" size="13px" weight="400" font-style="" opacity="1" y="25.05" transform="rotate(0)"><tspan id="SvgjsTspan1092" dy="16" x="50"><tspan id="SvgjsTspan1093" style="text-decoration:;">后端</tspan></tspan></text></g></g><g id="SvgjsG1094" transform="translate(265,95)"><path id="SvgjsPath1095" d="M 0 4Q 0 0 4 0L 96 0Q 100 0 100 4L 100 66Q 100 70 96 70L 4 70Q 0 70 0 66Z" stroke="rgba(50,50,50,1)" stroke-width="2" fill-opacity="1" fill="#ffffff"></path><g id="SvgjsG1096"><text id="SvgjsText1097" font-family="微软雅黑" text-anchor="middle" font-size="13px" width="80px" fill="#323232" font-weight="400" align="middle" anchor="middle" family="微软雅黑" size="13px" weight="400" font-style="" opacity="1" y="25.05" transform="rotate(0)"><tspan id="SvgjsTspan1098" dy="16" x="50"><tspan id="SvgjsTspan1099" style="text-decoration:;">Match</tspan></tspan></text></g></g><g id="SvgjsG1100" transform="translate(518,25)"><path id="SvgjsPath1101" d="M 0 4Q 0 0 4 0L 96 0Q 100 0 100 4L 100 66Q 100 70 96 70L 4 70Q 0 70 0 66Z" stroke="rgba(50,50,50,1)" stroke-width="2" fill-opacity="1" fill="#ffffff"></path><g id="SvgjsG1102"><text id="SvgjsText1103" font-family="微软雅黑" text-anchor="middle" font-size="13px" width="80px" fill="#323232" font-weight="400" align="middle" anchor="middle" family="微软雅黑" size="13px" weight="400" font-style="" opacity="1" y="25.05" transform="rotate(0)"><tspan id="SvgjsTspan1104" dy="16" x="50"><tspan id="SvgjsTspan1105" style="text-decoration:;">模型</tspan></tspan></text></g></g><g id="SvgjsG1106" transform="translate(521,130)"><path id="SvgjsPath1107" d="M 0 4Q 0 0 4 0L 96 0Q 100 0 100 4L 100 66Q 100 70 96 70L 4 70Q 0 70 0 66Z" stroke="rgba(50,50,50,1)" stroke-width="2" fill-opacity="1" fill="#ffffff"></path><g id="SvgjsG1108"><text id="SvgjsText1109" font-family="微软雅黑" text-anchor="middle" font-size="13px" width="80px" fill="#323232" font-weight="400" align="middle" anchor="middle" family="微软雅黑" size="13px" weight="400" font-style="" opacity="1" y="25.05" transform="rotate(0)"><tspan id="SvgjsTspan1110" dy="16" x="50"><tspan id="SvgjsTspan1111" style="text-decoration:;">Milvus</tspan></tspan></text></g></g><g id="SvgjsG1112" transform="translate(521,250)"><path id="SvgjsPath1113" d="M 0 4Q 0 0 4 0L 96 0Q 100 0 100 4L 100 66Q 100 70 96 70L 4 70Q 0 70 0 66Z" stroke="rgba(50,50,50,1)" stroke-width="2" fill-opacity="1" fill="#ffffff"></path><g id="SvgjsG1114"><text id="SvgjsText1115" font-family="微软雅黑" text-anchor="middle" font-size="13px" width="80px" fill="#323232" font-weight="400" align="middle" anchor="middle" family="微软雅黑" size="13px" weight="400" font-style="" opacity="1" y="25.05" transform="rotate(0)"><tspan id="SvgjsTspan1116" dy="16" x="50"><tspan id="SvgjsTspan1117" style="text-decoration:;">Redis</tspan></tspan></text></g></g><g id="SvgjsG1118"><path id="SvgjsPath1119" d="M125 130L195 130L195 130L265 130" stroke="#323232" stroke-width="2" fill="none" marker-end="url(#SvgjsMarker1120)"></path><rect id="SvgjsRect1122" width="72" height="16" x="159" y="122" fill="#ffffff"></rect><text id="SvgjsText1123" font-family="微软雅黑" text-anchor="middle" font-size="13px" width="72px" fill="#323232" font-weight="400" align="top" anchor="middle" family="微软雅黑" size="13px" weight="400" font-style="" opacity="1" y="120.05" transform="rotate(0)"><tspan id="SvgjsTspan1124" dy="16" x="195"><tspan id="SvgjsTspan1125" style="text-decoration:;">①上线/更新</tspan></tspan></text></g><g id="SvgjsG1126"><path id="SvgjsPath1127" d="M315 165L315 211L75 211L75 165" stroke="#323232" stroke-width="2" fill="none" marker-start="url(#SvgjsMarker1128)" marker-end="url(#SvgjsMarker1130)"></path><rect id="SvgjsRect1132" width="65" height="32" x="162.5" y="195" fill="#ffffff"></rect><text id="SvgjsText1133" font-family="微软雅黑" text-anchor="middle" font-size="13px" width="65px" fill="#323232" font-weight="400" align="top" anchor="middle" family="微软雅黑" size="13px" weight="400" font-style="" opacity="1" y="193.05" transform="rotate(0)"><tspan id="SvgjsTspan1134" dy="16" x="195"><tspan id="SvgjsTspan1135" style="text-decoration:;">②取数据</tspan></tspan><tspan id="SvgjsTspan1136" dy="16" x="195"><tspan id="SvgjsTspan1137" style="text-decoration:;">③返回数据</tspan></tspan></text></g><g id="SvgjsG1138"><path id="SvgjsPath1139" d="M365 130L518 60" stroke="#323232" stroke-width="2" fill="none" marker-start="url(#SvgjsMarker1140)" marker-end="url(#SvgjsMarker1142)"></path><rect id="SvgjsRect1144" width="91" height="32" x="396" y="79" fill="#ffffff"></rect><text id="SvgjsText1145" font-family="微软雅黑" text-anchor="middle" font-size="13px" width="91px" fill="#323232" font-weight="400" align="top" anchor="middle" family="微软雅黑" size="13px" weight="400" font-style="" opacity="1" y="77.05" transform="rotate(0)"><tspan id="SvgjsTspan1146" dy="16" x="441.5"><tspan id="SvgjsTspan1147" style="text-decoration:;">④计算句子向量</tspan></tspan><tspan id="SvgjsTspan1148" dy="16" x="441.5"><tspan id="SvgjsTspan1149" style="text-decoration:;">⑤返回句子向量</tspan></tspan></text></g><g id="SvgjsG1150"><path id="SvgjsPath1151" d="M365 130L521 165" stroke="#323232" stroke-width="2" fill="none" marker-end="url(#SvgjsMarker1152)"></path><rect id="SvgjsRect1154" width="51" height="16" x="417.5" y="139.5" fill="#ffffff"></rect><text id="SvgjsText1155" font-family="微软雅黑" text-anchor="middle" font-size="13px" width="51px" fill="#323232" font-weight="400" align="top" anchor="middle" family="微软雅黑" size="13px" weight="400" font-style="" opacity="1" y="137.55" transform="rotate(0)"><tspan id="SvgjsTspan1156" dy="16" x="443"><tspan id="SvgjsTspan1157" style="text-decoration:;">⑥ Insert</tspan></tspan></text></g><g id="SvgjsG1158"><path id="SvgjsPath1159" d="M365 130L521 285" stroke="#323232" stroke-width="2" fill="none" marker-end="url(#SvgjsMarker1160)"></path><rect id="SvgjsRect1162" width="65" height="16" x="410.5" y="199.5" fill="#ffffff"></rect><text id="SvgjsText1163" font-family="微软雅黑" text-anchor="middle" font-size="13px" width="65px" fill="#323232" font-weight="400" align="top" anchor="middle" family="微软雅黑" size="13px" weight="400" font-style="" opacity="1" y="197.55" transform="rotate(0)"><tspan id="SvgjsTspan1164" dy="16" x="443"><tspan id="SvgjsTspan1165" style="text-decoration:;">⑦保存映射</tspan></tspan></text></g><g id="SvgjsG1166"><path id="SvgjsPath1167" d="M315 95L315 65L75 65L75 95" stroke-dasharray="3,3" stroke="#8a8a8a" stroke-width="2" fill="none" marker-end="url(#SvgjsMarker1168)"></path><rect id="SvgjsRect1170" width="65" height="16" x="162.5" y="57" fill="#ffffff"></rect><text id="SvgjsText1171" font-family="微软雅黑" text-anchor="middle" font-size="13px" width="65px" fill="#323232" font-weight="400" align="top" anchor="middle" family="微软雅黑" size="13px" weight="400" font-style="" opacity="1" y="55.05" transform="rotate(0)"><tspan id="SvgjsTspan1172" dy="16" x="195"><tspan id="SvgjsTspan1173" style="text-decoration:;">⑧回调接口</tspan></tspan></text></g></svg>