<svg id="SvgjsSvg1174" width="611" height="283" xmlns="http://www.w3.org/2000/svg" version="1.1" xmlns:xlink="http://www.w3.org/1999/xlink" xmlns:svgjs="http://svgjs.com/svgjs"><defs id="SvgjsDefs1175"><marker id="SvgjsMarker1202" markerWidth="16" markerHeight="12" refX="16" refY="6" viewBox="0 0 16 12" orient="auto" markerUnits="userSpaceOnUse" stroke-dasharray="0,0"><path id="SvgjsPath1203" d="M0,2 L14,6 L0,11 L0,2" fill="#323232" stroke="#323232" stroke-width="2"></path></marker><marker id="SvgjsMarker1210" markerWidth="16" markerHeight="12" refX="16" refY="6" viewBox="0 0 16 12" orient="auto" markerUnits="userSpaceOnUse" stroke-dasharray="0,0"><path id="SvgjsPath1211" d="M0,2 L14,6 L0,11 L0,2" fill="#323232" stroke="#323232" stroke-width="2"></path></marker><marker id="SvgjsMarker1218" markerWidth="16" markerHeight="12" refX="16" refY="6" viewBox="0 0 16 12" orient="auto" markerUnits="userSpaceOnUse" stroke-dasharray="0,0"><path id="SvgjsPath1219" d="M0,2 L14,6 L0,11 L0,2" fill="#323232" stroke="#323232" stroke-width="2"></path></marker><marker id="SvgjsMarker1226" markerWidth="16" markerHeight="12" refX="16" refY="6" viewBox="0 0 16 12" orient="auto" markerUnits="userSpaceOnUse" stroke-dasharray="0,0"><path id="SvgjsPath1227" d="M0,2 L14,6 L0,11 L0,2" fill="#8a8a8a" stroke="#8a8a8a" stroke-width="2"></path></marker></defs><g id="SvgjsG1176" transform="translate(25,100)"><path id="SvgjsPath1177" d="M 0 0L 100 0L 100 70L 0 70Z" stroke="rgba(50,50,50,1)" stroke-width="2" fill-opacity="1" fill="#ffffff"></path><g id="SvgjsG1178"><text id="SvgjsText1179" font-family="微软雅黑" text-anchor="middle" font-size="13px" width="80px" fill="#323232" font-weight="400" align="middle" anchor="middle" family="微软雅黑" size="13px" weight="400" font-style="" opacity="1" y="25.05" transform="rotate(0)"><tspan id="SvgjsTspan1180" dy="16" x="50"><tspan id="SvgjsTspan1181" style="text-decoration:;">后端</tspan></tspan></text></g></g><g id="SvgjsG1182" transform="translate(265,100)"><path id="SvgjsPath1183" d="M 0 4Q 0 0 4 0L 96 0Q 100 0 100 4L 100 66Q 100 70 96 70L 4 70Q 0 70 0 66Z" stroke="rgba(50,50,50,1)" stroke-width="2" fill-opacity="1" fill="#ffffff"></path><g id="SvgjsG1184"><text id="SvgjsText1185" font-family="微软雅黑" text-anchor="middle" font-size="13px" width="80px" fill="#323232" font-weight="400" align="middle" anchor="middle" family="微软雅黑" size="13px" weight="400" font-style="" opacity="1" y="25.05" transform="rotate(0)"><tspan id="SvgjsTspan1186" dy="16" x="50"><tspan id="SvgjsTspan1187" style="text-decoration:;">Match</tspan></tspan></text></g></g><g id="SvgjsG1188" transform="translate(486,25)"><path id="SvgjsPath1189" d="M 0 4Q 0 0 4 0L 96 0Q 100 0 100 4L 100 66Q 100 70 96 70L 4 70Q 0 70 0 66Z" stroke="rgba(50,50,50,1)" stroke-width="2" fill-opacity="1" fill="#ffffff"></path><g id="SvgjsG1190"><text id="SvgjsText1191" font-family="微软雅黑" text-anchor="middle" font-size="13px" width="80px" fill="#323232" font-weight="400" align="middle" anchor="middle" family="微软雅黑" size="13px" weight="400" font-style="" opacity="1" y="25.05" transform="rotate(0)"><tspan id="SvgjsTspan1192" dy="16" x="50"><tspan id="SvgjsTspan1193" style="text-decoration:;">Milvus</tspan></tspan></text></g></g><g id="SvgjsG1194" transform="translate(486,188)"><path id="SvgjsPath1195" d="M 0 4Q 0 0 4 0L 96 0Q 100 0 100 4L 100 66Q 100 70 96 70L 4 70Q 0 70 0 66Z" stroke="rgba(50,50,50,1)" stroke-width="2" fill-opacity="1" fill="#ffffff"></path><g id="SvgjsG1196"><text id="SvgjsText1197" font-family="微软雅黑" text-anchor="middle" font-size="13px" width="80px" fill="#323232" font-weight="400" align="middle" anchor="middle" family="微软雅黑" size="13px" weight="400" font-style="" opacity="1" y="25.05" transform="rotate(0)"><tspan id="SvgjsTspan1198" dy="16" x="50"><tspan id="SvgjsTspan1199" style="text-decoration:;">Redis</tspan></tspan></text></g></g><g id="SvgjsG1200"><path id="SvgjsPath1201" d="M125 135L195 135L195 135L265 135" stroke="#323232" stroke-width="2" fill="none" marker-end="url(#SvgjsMarker1202)"></path><rect id="SvgjsRect1204" width="39" height="16" x="175.5" y="127" fill="#ffffff"></rect><text id="SvgjsText1205" font-family="微软雅黑" text-anchor="middle" font-size="13px" width="39px" fill="#323232" font-weight="400" align="top" anchor="middle" family="微软雅黑" size="13px" weight="400" font-style="" opacity="1" y="125.05" transform="rotate(0)"><tspan id="SvgjsTspan1206" dy="16" x="195"><tspan id="SvgjsTspan1207" style="text-decoration:;">①下线</tspan></tspan></text></g><g id="SvgjsG1208"><path id="SvgjsPath1209" d="M365 135L486 60" stroke="#323232" stroke-width="2" fill="none" marker-end="url(#SvgjsMarker1210)"></path><rect id="SvgjsRect1212" width="54" height="16" x="398.5" y="89.5" fill="#ffffff"></rect><text id="SvgjsText1213" font-family="微软雅黑" text-anchor="middle" font-size="13px" width="54px" fill="#323232" font-weight="400" align="top" anchor="middle" family="微软雅黑" size="13px" weight="400" font-style="" opacity="1" y="87.55" transform="rotate(0)"><tspan id="SvgjsTspan1214" dy="16" x="425.5"><tspan id="SvgjsTspan1215" style="text-decoration:;">⑥ delete</tspan></tspan></text></g><g id="SvgjsG1216"><path id="SvgjsPath1217" d="M365 135L486 223" stroke="#323232" stroke-width="2" fill="none" marker-end="url(#SvgjsMarker1218)"></path><rect id="SvgjsRect1220" width="65" height="16" x="393" y="171" fill="#ffffff"></rect><text id="SvgjsText1221" font-family="微软雅黑" text-anchor="middle" font-size="13px" width="65px" fill="#323232" font-weight="400" align="top" anchor="middle" family="微软雅黑" size="13px" weight="400" font-style="" opacity="1" y="169.05" transform="rotate(0)"><tspan id="SvgjsTspan1222" dy="16" x="425.5"><tspan id="SvgjsTspan1223" style="text-decoration:;">⑦删除映射</tspan></tspan></text></g><g id="SvgjsG1224"><path id="SvgjsPath1225" d="M315 100L315 70L75 70L75 100" stroke-dasharray="3,3" stroke="#8a8a8a" stroke-width="2" fill="none" marker-end="url(#SvgjsMarker1226)"></path><rect id="SvgjsRect1228" width="65" height="16" x="162.5" y="62" fill="#ffffff"></rect><text id="SvgjsText1229" font-family="微软雅黑" text-anchor="middle" font-size="13px" width="65px" fill="#323232" font-weight="400" align="top" anchor="middle" family="微软雅黑" size="13px" weight="400" font-style="" opacity="1" y="60.05" transform="rotate(0)"><tspan id="SvgjsTspan1230" dy="16" x="195"><tspan id="SvgjsTspan1231" style="text-decoration:;">⑧回调接口</tspan></tspan></text></g></svg>