<svg id="SvgjsSvg1404" width="852" height="427.59375" xmlns="http://www.w3.org/2000/svg" version="1.1" xmlns:xlink="http://www.w3.org/1999/xlink" xmlns:svgjs="http://svgjs.com/svgjs"><defs id="SvgjsDefs1405"><marker id="SvgjsMarker1426" markerWidth="16" markerHeight="12" refX="16" refY="6" viewBox="0 0 16 12" orient="auto" markerUnits="userSpaceOnUse" stroke-dasharray="0,0"><path id="SvgjsPath1427" d="M0,2 L14,6 L0,11 L0,2" fill="#323232" stroke="#323232" stroke-width="2"></path></marker><marker id="SvgjsMarker1440" markerWidth="16" markerHeight="12" refX="0" refY="6" viewBox="0 0 16 12" orient="auto" markerUnits="userSpaceOnUse" stroke-dasharray="0,0"><path id="SvgjsPath1441" d="M15,1.5 L2,6 L15,10.5" fill="#323232" stroke="#323232" stroke-width="2"></path></marker><marker id="SvgjsMarker1442" markerWidth="16" markerHeight="12" refX="16" refY="6" viewBox="0 0 16 12" orient="auto" markerUnits="userSpaceOnUse" stroke-dasharray="0,0"><path id="SvgjsPath1443" d="M0,2 L14,6 L0,11 L0,2" fill="#323232" stroke="#323232" stroke-width="2"></path></marker><marker id="SvgjsMarker1458" markerWidth="16" markerHeight="12" refX="0" refY="6" viewBox="0 0 16 12" orient="auto" markerUnits="userSpaceOnUse" stroke-dasharray="0,0"><path id="SvgjsPath1459" d="M15,1.5 L2,6 L15,10.5" fill="#323232" stroke="#323232" stroke-width="2"></path></marker><marker id="SvgjsMarker1460" markerWidth="16" markerHeight="12" refX="16" refY="6" viewBox="0 0 16 12" orient="auto" markerUnits="userSpaceOnUse" stroke-dasharray="0,0"><path id="SvgjsPath1461" d="M0,2 L14,6 L0,11 L0,2" fill="#323232" stroke="#323232" stroke-width="2"></path></marker><marker id="SvgjsMarker1476" markerWidth="16" markerHeight="12" refX="16" refY="6" viewBox="0 0 16 12" orient="auto" markerUnits="userSpaceOnUse" stroke-dasharray="0,0"><path id="SvgjsPath1477" d="M0,2 L14,6 L0,11 L0,2" fill="#323232" stroke="#323232" stroke-width="2"></path></marker><marker id="SvgjsMarker1484" markerWidth="16" markerHeight="12" refX="16" refY="6" viewBox="0 0 16 12" orient="auto" markerUnits="userSpaceOnUse" stroke-dasharray="0,0"><path id="SvgjsPath1485" d="M0,2 L14,6 L0,11 L0,2" fill="#323232" stroke="#323232" stroke-width="2"></path></marker><marker id="SvgjsMarker1492" markerWidth="16" markerHeight="12" refX="16" refY="6" viewBox="0 0 16 12" orient="auto" markerUnits="userSpaceOnUse" stroke-dasharray="0,0"><path id="SvgjsPath1493" d="M0,2 L14,6 L0,11 L0,2" fill="#323232" stroke="#323232" stroke-width="2"></path></marker><marker id="SvgjsMarker1500" markerWidth="16" markerHeight="12" refX="16" refY="6" viewBox="0 0 16 12" orient="auto" markerUnits="userSpaceOnUse" stroke-dasharray="0,0"><path id="SvgjsPath1501" d="M0,2 L14,6 L0,11 L0,2" fill="#323232" stroke="#323232" stroke-width="2"></path></marker></defs><g id="SvgjsG1406" transform="translate(727,238)"><path id="SvgjsPath1407" d="M 0 0L 100 0L 100 70L 0 70Z" stroke="rgba(50,50,50,1)" stroke-width="2" fill-opacity="1" fill="#ffffff"></path><g id="SvgjsG1408"><text id="SvgjsText1409" font-family="微软雅黑" text-anchor="middle" font-size="13px" width="80px" fill="#323232" font-weight="400" align="middle" anchor="middle" family="微软雅黑" size="13px" weight="400" font-style="" opacity="1" y="25.05" transform="rotate(0)"><tspan id="SvgjsTspan1410" dy="16" x="50"><tspan id="SvgjsTspan1411" style="text-decoration:;">后端</tspan></tspan></text></g></g><g id="SvgjsG1412" transform="translate(226,25)"><path id="SvgjsPath1413" d="M 0 4Q 0 0 4 0L 96 0Q 100 0 100 4L 100 66Q 100 70 96 70L 4 70Q 0 70 0 66Z" stroke="rgba(50,50,50,1)" stroke-width="2" fill-opacity="1" fill="#ffffff"></path><g id="SvgjsG1414"><text id="SvgjsText1415" font-family="微软雅黑" text-anchor="middle" font-size="13px" width="80px" fill="#323232" font-weight="400" align="middle" anchor="middle" family="微软雅黑" size="13px" weight="400" font-style="" opacity="1" y="25.05" transform="rotate(0)"><tspan id="SvgjsTspan1416" dy="16" x="50"><tspan id="SvgjsTspan1417" style="text-decoration:;">Match</tspan></tspan></text></g></g><g id="SvgjsG1418" transform="translate(25,25)"><path id="SvgjsPath1419" d="M 0 4Q 0 0 4 0L 96 0Q 100 0 100 4L 100 66Q 100 70 96 70L 4 70Q 0 70 0 66Z" stroke="rgba(50,50,50,1)" stroke-width="2" fill-opacity="1" fill="#ffffff"></path><g id="SvgjsG1420"><text id="SvgjsText1421" font-family="微软雅黑" text-anchor="middle" font-size="13px" width="80px" fill="#323232" font-weight="400" align="middle" anchor="middle" family="微软雅黑" size="13px" weight="400" font-style="" opacity="1" y="25.05" transform="rotate(0)"><tspan id="SvgjsTspan1422" dy="16" x="50"><tspan id="SvgjsTspan1423" style="text-decoration:;">引擎</tspan></tspan></text></g></g><g id="SvgjsG1424"><path id="SvgjsPath1425" d="M125 60L226 60" stroke="#323232" stroke-width="2" fill="none" marker-end="url(#SvgjsMarker1426)"></path><rect id="SvgjsRect1428" width="39" height="16" x="156" y="52" fill="#ffffff"></rect><text id="SvgjsText1429" font-family="微软雅黑" text-anchor="middle" font-size="13px" width="39px" fill="#323232" font-weight="400" align="top" anchor="middle" family="微软雅黑" size="13px" weight="400" font-style="" opacity="1" y="50.05" transform="rotate(0)"><tspan id="SvgjsTspan1430" dy="16" x="175.5"><tspan id="SvgjsTspan1431" style="text-decoration:;">①检索</tspan></tspan></text></g><g id="SvgjsG1432" transform="translate(481,25)"><path id="SvgjsPath1433" d="M 0 4Q 0 0 4 0L 96 0Q 100 0 100 4L 100 66Q 100 70 96 70L 4 70Q 0 70 0 66Z" stroke="rgba(50,50,50,1)" stroke-width="2" fill-opacity="1" fill="#ffffff"></path><g id="SvgjsG1434"><text id="SvgjsText1435" font-family="微软雅黑" text-anchor="middle" font-size="13px" width="80px" fill="#323232" font-weight="400" align="middle" anchor="middle" family="微软雅黑" size="13px" weight="400" font-style="" opacity="1" y="25.05" transform="rotate(0)"><tspan id="SvgjsTspan1436" dy="16" x="50"><tspan id="SvgjsTspan1437" style="text-decoration:;">模型</tspan></tspan></text></g></g><g id="SvgjsG1438"><path id="SvgjsPath1439" d="M326 60L481 60" stroke="#323232" stroke-width="2" fill="none" marker-start="url(#SvgjsMarker1440)" marker-end="url(#SvgjsMarker1442)"></path><rect id="SvgjsRect1444" width="91" height="32" x="358" y="44" fill="#ffffff"></rect><text id="SvgjsText1445" font-family="微软雅黑" text-anchor="middle" font-size="13px" width="91px" fill="#323232" font-weight="400" align="top" anchor="middle" family="微软雅黑" size="13px" weight="400" font-style="" opacity="1" y="42.05" transform="rotate(0)"><tspan id="SvgjsTspan1446" dy="16" x="403.5"><tspan id="SvgjsTspan1447" style="text-decoration:;">②计算句子向量</tspan></tspan><tspan id="SvgjsTspan1448" dy="16" x="403.5"><tspan id="SvgjsTspan1449" style="text-decoration:;">③返回句子向量</tspan></tspan></text></g><g id="SvgjsG1450" transform="translate(481,126)"><path id="SvgjsPath1451" d="M 0 4Q 0 0 4 0L 96 0Q 100 0 100 4L 100 66Q 100 70 96 70L 4 70Q 0 70 0 66Z" stroke="rgba(50,50,50,1)" stroke-width="2" fill-opacity="1" fill="#ffffff"></path><g id="SvgjsG1452"><text id="SvgjsText1453" font-family="微软雅黑" text-anchor="middle" font-size="13px" width="80px" fill="#323232" font-weight="400" align="middle" anchor="middle" family="微软雅黑" size="13px" weight="400" font-style="" opacity="1" y="25.05" transform="rotate(0)"><tspan id="SvgjsTspan1454" dy="16" x="50"><tspan id="SvgjsTspan1455" style="text-decoration:;">MIlvus</tspan></tspan></text></g></g><g id="SvgjsG1456"><path id="SvgjsPath1457" d="M309 95L309 161L481 161" stroke="#323232" stroke-width="2" fill="none" marker-start="url(#SvgjsMarker1458)" marker-end="url(#SvgjsMarker1460)"></path><rect id="SvgjsRect1462" width="102" height="32" x="311" y="145" fill="#ffffff"></rect><text id="SvgjsText1463" font-family="微软雅黑" text-anchor="middle" font-size="13px" width="102px" fill="#323232" font-weight="400" align="top" anchor="middle" family="微软雅黑" size="13px" weight="400" font-style="" opacity="1" y="143.05" transform="rotate(0)"><tspan id="SvgjsTspan1464" dy="16" x="362"><tspan id="SvgjsTspan1465" style="text-decoration:;">④向量检索 topK</tspan></tspan><tspan id="SvgjsTspan1466" dy="16" x="362"><tspan id="SvgjsTspan1467" style="text-decoration:;">⑤返回 topK 信息</tspan></tspan></text></g><g id="SvgjsG1468" transform="translate(477,233)"><path id="SvgjsPath1469" d="M 0 40L 60 0L 120 40L 60 80Z" stroke="rgba(50,50,50,1)" stroke-width="2" fill-opacity="1" fill="#ffffff"></path><g id="SvgjsG1470"><text id="SvgjsText1471" font-family="微软雅黑" text-anchor="middle" font-size="13px" width="100px" fill="#323232" font-weight="400" align="middle" anchor="middle" family="微软雅黑" size="13px" weight="400" font-style="" opacity="1" y="30.45" transform="rotate(0)"><tspan id="SvgjsTspan1472" dy="16" x="60"><tspan id="SvgjsTspan1473" style="text-decoration:;">Redis</tspan></tspan></text></g></g><g id="SvgjsG1474"><path id="SvgjsPath1475" d="M276 95L276 273L477 273" stroke="#323232" stroke-width="2" fill="none" marker-end="url(#SvgjsMarker1476)"></path><rect id="SvgjsRect1478" width="91" height="16" x="242" y="264.99999999999994" fill="#ffffff"></rect><text id="SvgjsText1479" font-family="微软雅黑" text-anchor="middle" font-size="13px" width="91px" fill="#323232" font-weight="400" align="top" anchor="middle" family="微软雅黑" size="13px" weight="400" font-style="" opacity="1" y="263.04999999999995" transform="rotate(0)"><tspan id="SvgjsTspan1480" dy="16" x="287.5"><tspan id="SvgjsTspan1481" style="text-decoration:;">⑥查询映射信息</tspan></tspan></text></g><g id="SvgjsG1482"><path id="SvgjsPath1483" d="M537 313L537 356L537 356L537 399" stroke="#323232" stroke-width="2" fill="none" marker-end="url(#SvgjsMarker1484)"></path><rect id="SvgjsRect1486" width="64" height="16" x="505" y="348" fill="#ffffff"></rect><text id="SvgjsText1487" font-family="微软雅黑" text-anchor="middle" font-size="13px" width="64px" fill="#323232" font-weight="400" align="top" anchor="middle" family="微软雅黑" size="13px" weight="400" font-style="" opacity="1" y="346.05" transform="rotate(0)"><tspan id="SvgjsTspan1488" dy="16" x="537"><tspan id="SvgjsTspan1489" style="text-decoration:;">Redis 存在</tspan></tspan></text></g><g id="SvgjsG1490"><path id="SvgjsPath1491" d="M597 273L662 273L662 273L727 273" stroke="#323232" stroke-width="2" fill="none" marker-end="url(#SvgjsMarker1492)"></path><rect id="SvgjsRect1494" width="77" height="16" x="623.5" y="265" fill="#ffffff"></rect><text id="SvgjsText1495" font-family="微软雅黑" text-anchor="middle" font-size="13px" width="77px" fill="#323232" font-weight="400" align="top" anchor="middle" family="微软雅黑" size="13px" weight="400" font-style="" opacity="1" y="263.05" transform="rotate(0)"><tspan id="SvgjsTspan1496" dy="16" x="662"><tspan id="SvgjsTspan1497" style="text-decoration:;">Redis 不存在</tspan></tspan></text></g><g id="SvgjsG1498"><path id="SvgjsPath1499" d="M777 308L777 403L235 403L235 95" stroke="#323232" stroke-width="2" fill="none" marker-end="url(#SvgjsMarker1500)"></path><rect id="SvgjsRect1502" width="91" height="16" x="354.00000000000006" y="395" fill="#ffffff"></rect><text id="SvgjsText1503" font-family="微软雅黑" text-anchor="middle" font-size="13px" width="91px" fill="#323232" font-weight="400" align="top" anchor="middle" family="微软雅黑" size="13px" weight="400" font-style="" opacity="1" y="393.05" transform="rotate(0)"><tspan id="SvgjsTspan1504" dy="16" x="399.50000000000006"><tspan id="SvgjsTspan1505" style="text-decoration:;">⑦返回映射信息</tspan></tspan></text></g></svg>