<svg version="1.1" viewBox="0.0 0.0 960.0 540.0" fill="none" stroke="none" stroke-linecap="square" stroke-miterlimit="10" xmlns:xlink="http://www.w3.org/1999/xlink" xmlns="http://www.w3.org/2000/svg"><clipPath id="gb223ce30db_0_0.0"><path d="m0 0l960.0 0l0 540.0l-960.0 0l0 -540.0z" clip-rule="nonzero"/></clipPath><g clip-path="url(#gb223ce30db_0_0.0)"><path fill="#ffffff" d="m0 0l960.0 0l0 540.0l-960.0 0z" fill-rule="evenodd"/><defs><linearGradient id="gb223ce30db_0_0.1" gradientUnits="userSpaceOnUse" gradientTransform="matrix(10.267810728252769 0.0 0.0 10.267810728252769 0.0 0.0)" spreadMethod="pad" x1="20.428651343303713" y1="14.31789551656077" x2="20.424657259289795" y2="4.050085565139021"><stop offset="0.0" stop-color="#dbd4eb"/><stop offset="1.0" stop-color="#9180bb"/></linearGradient></defs><path fill="url(#gb223ce30db_0_0.1)" d="m20.519686 59.218533l0 0c0 -9.697792 7.861614 -17.559406 17.559404 -17.559406l154.07805 0c4.6570435 0 9.123337 1.8500061 12.416367 5.143032c3.2930298 3.293026 5.143036 7.7593307 5.143036 12.416374l0 70.23552c0 9.697784 -7.861618 17.559402 -17.559402 17.559402l-154.07805 0c-9.69779 0 -17.559404 -7.861618 -17.559404 -17.559402z" fill-rule="evenodd"/><path stroke="#595959" stroke-width="1.0" stroke-linejoin="round" stroke-linecap="butt" d="m20.519686 59.218533l0 0c0 -9.697792 7.861614 -17.559406 17.559404 -17.559406l154.07805 0c4.6570435 0 9.123337 1.8500061 12.416367 5.143032c3.2930298 3.293026 5.143036 7.7593307 5.143036 12.416374l0 70.23552c0 9.697784 -7.861618 17.559402 -17.559402 17.559402l-154.07805 0c-9.69779 0 -17.559404 -7.861618 -17.559404 -17.559402z" fill-rule="evenodd"/><path fill="#000000" d="m111.77436 102.662544l-1.484375 0l0 -0.8125l-6.234375 0l0 1.046875l-1.484375 0l0 -7.953125l9.203125 0l0 7.71875zm-11.125 -11.359375l13.203125 0l0 1.421875l-13.203125 0l0 3.328125q0 3.5 -2.234375 6.25l-1.25 -1.203125q2.0 -2.375 2.0 -5.5625l0 -8.3125l1.484375 0.21875q6.609375 -0.21875 10.6875 -1.328125l1.109375 1.625q0.59375 0.671875 -0.8125 0.234375q-6.234375 0.8125 -10.984375 0.890625l0 2.4375zm9.640625 5.046875l-6.234375 0l0 4.09375l6.234375 0l0 -4.09375zm12.40625 2.828125q-2.90625 0.890625 -5.796875 1.5625q-0.078125 0.515625 -0.375 0.21875l-0.296875 -1.78125l3.265625 -0.59375l0.96875 -7.28125l1.5625 0.15625q0.375 0.21875 -0.15625 0.4375l-0.953125 6.390625l1.78125 -0.453125l0 1.34375zm-5.203125 -1.78125q-0.296875 -2.828125 -0.96875 -5.046875l1.265625 -0.375q0.8125 2.15625 1.046875 4.96875l-1.34375 0.453125zm13.218758 5.5l-0.375 -1.421875l0.59375 0q0.296875 0 0.296875 -0.296875l0 -5.1875l-1.40625 0l0 6.375l-1.265625 0l0 -6.375l-1.2656326 0l0 6.375l-1.265625 0l0 -6.375l-1.25 0l0 6.828125l-1.265625 0l0 -8.015625l3.046875 0l0.59375 -1.640625l-4.3125 0l0 -1.1875l10.312508 0l0 1.1875l-4.515625 0l-0.59375 1.640625l4.453125 0l0 7.046875q0 1.046875 -1.046875 1.046875l-0.734375 0zm-8.312508 -12.03125l-6.015625 0l0 -1.40625l2.375 0l0 -3.125l1.40625 0q0.59375 0.078125 0.078125 0.453125l0 2.671875l2.15625 0l0 1.40625zm6.0781326 -4.96875q0.59375 0.0625 0.078125 0.4375l0 3.125l2.296875 0l0 -2.75l1.1875 0q0.59375 0.078125 0.078125 0.4375l0 3.5l-8.312508 0l0 -3.9375l1.1875 0q0.59375 0.078125 0.078125 0.4375l0 2.3125l2.21875 0l0 -3.5625l1.1875076 0z" fill-rule="nonzero"/><defs><linearGradient id="gb223ce30db_0_0.2" gradientUnits="userSpaceOnUse" gradientTransform="matrix(14.431860624840315 0.0 0.0 14.431860624840315 0.0 0.0)" spreadMethod="pad" x1="41.5629533339228" y1="6.536736516068673" x2="31.358179885879213" y2="-3.668223060966449"><stop offset="0.0" stop-color="#f64f59"/><stop offset="1.0" stop-color="#de87f1"/></linearGradient></defs><path fill="url(#gb223ce30db_0_0.2)" d="m357.95673 59.218533l0 0c0 -9.697792 7.861603 -17.559406 17.559418 -17.559406l154.07803 0c4.6570435 0 9.123352 1.8500061 12.416382 5.143032c3.2930298 3.293026 5.1430054 7.7593307 5.1430054 12.416374l0 70.23552c0 9.697784 -7.8615723 17.559402 -17.559387 17.559402l-154.07803 0c-9.697815 0 -17.559418 -7.861618 -17.559418 -17.559402z" fill-rule="evenodd"/><path stroke="#595959" stroke-width="1.0" stroke-linejoin="round" stroke-linecap="butt" d="m357.95673 59.218533l0 0c0 -9.697792 7.861603 -17.559406 17.559418 -17.559406l154.07803 0c4.6570435 0 9.123352 1.8500061 12.416382 5.143032c3.2930298 3.293026 5.1430054 7.7593307 5.1430054 12.416374l0 70.23552c0 9.697784 -7.8615723 17.559402 -17.559387 17.559402l-154.07803 0c-9.697815 0 -17.559418 -7.861618 -17.559418 -17.559402z" fill-rule="evenodd"/><path fill="#000000" d="m428.54395 101.256294l0 -13.359375l2.65625 0l3.15625 9.453125q0.4375 1.328125 0.640625 1.984375q0.234375 -0.734375 0.703125 -2.140625l3.203125 -9.296875l2.375 0l0 13.359375l-1.703125 0l0 -11.171875l-3.875 11.171875l-1.59375 0l-3.859375 -11.375l0 11.375l-1.703125 0zm21.697052 -1.1875q-0.921875 0.765625 -1.765625 1.09375q-0.828125 0.3125 -1.796875 0.3125q-1.59375 0 -2.453125 -0.78125q-0.859375 -0.78125 -0.859375 -1.984375q0 -0.71875 0.328125 -1.296875q0.328125 -0.59375 0.84375 -0.9375q0.53125 -0.359375 1.1875 -0.546875q0.46875 -0.125 1.453125 -0.25q1.984375 -0.234375 2.921875 -0.5625q0.015625 -0.34375 0.015625 -0.421875q0 -1.0 -0.46875 -1.421875q-0.625 -0.546875 -1.875 -0.546875q-1.15625 0 -1.703125 0.40625q-0.546875 0.40625 -0.8125 1.421875l-1.609375 -0.21875q0.21875 -1.015625 0.71875 -1.640625q0.5 -0.640625 1.453125 -0.984375q0.953125 -0.34375 2.1875 -0.34375q1.25 0 2.015625 0.296875q0.78125 0.28125 1.140625 0.734375q0.375 0.4375 0.515625 1.109375q0.078125 0.421875 0.078125 1.515625l0 2.1875q0 2.28125 0.109375 2.890625q0.109375 0.59375 0.40625 1.15625l-1.703125 0q-0.265625 -0.515625 -0.328125 -1.1875zm-0.140625 -3.671875q-0.890625 0.375 -2.671875 0.625q-1.015625 0.140625 -1.4375 0.328125q-0.421875 0.1875 -0.65625 0.53125q-0.21875 0.34375 -0.21875 0.78125q0 0.65625 0.5 1.09375q0.5 0.4375 1.453125 0.4375q0.9375 0 1.671875 -0.40625q0.75 -0.421875 1.09375 -1.140625q0.265625 -0.5625 0.265625 -1.640625l0 -0.609375zm7.7819824 3.390625l0.234375 1.453125q-0.6875 0.140625 -1.234375 0.140625q-0.890625 0 -1.390625 -0.28125q-0.484375 -0.28125 -0.6875 -0.734375q-0.203125 -0.46875 -0.203125 -1.9375l0 -5.578125l-1.203125 0l0 -1.265625l1.203125 0l0 -2.390625l1.625 -0.984375l0 3.375l1.65625 0l0 1.265625l-1.65625 0l0 5.671875q0 0.6875 0.078125 0.890625q0.09375 0.203125 0.28125 0.328125q0.203125 0.109375 0.578125 0.109375q0.265625 0 0.71875 -0.0625zm7.9176636 -2.078125l1.609375 0.21875q-0.265625 1.65625 -1.359375 2.609375q-1.078125 0.9375 -2.671875 0.9375q-1.984375 0 -3.1875 -1.296875q-1.203125 -1.296875 -1.203125 -3.71875q0 -1.578125 0.515625 -2.75q0.515625 -1.171875 1.578125 -1.75q1.0625 -0.59375 2.3125 -0.59375q1.578125 0 2.578125 0.796875q1.0 0.796875 1.28125 2.265625l-1.59375 0.234375q-0.234375 -0.96875 -0.8125 -1.453125q-0.578125 -0.5 -1.390625 -0.5q-1.234375 0 -2.015625 0.890625q-0.78125 0.890625 -0.78125 2.8125q0 1.953125 0.75 2.84375q0.75 0.875 1.953125 0.875q0.96875 0 1.609375 -0.59375q0.65625 -0.59375 0.828125 -1.828125zm3.015625 3.546875l0 -13.359375l1.640625 0l0 4.796875q1.140625 -1.328125 2.890625 -1.328125q1.078125 0 1.859375 0.421875q0.796875 0.421875 1.140625 1.171875q0.34375 0.75 0.34375 2.171875l0 6.125l-1.640625 0l0 -6.125q0 -1.234375 -0.53125 -1.796875q-0.53125 -0.5625 -1.515625 -0.5625q-0.71875 0 -1.359375 0.390625q-0.640625 0.375 -0.921875 1.015625q-0.265625 0.640625 -0.265625 1.78125l0 5.296875l-1.640625 0z" fill-rule="nonzero"/><defs><linearGradient id="gb223ce30db_0_0.3" gradientUnits="userSpaceOnUse" gradientTransform="matrix(14.43185811315415 0.0 0.0 14.43185811315415 0.0 0.0)" spreadMethod="pad" x1="68.85504229574374" y1="6.536734812042218" x2="58.6502727550147" y2="-3.6682251202074854"><stop offset="0.0" stop-color="#e0edba" stop-opacity="0.70980394"/><stop offset="0.16666667" stop-color="#e0e2bf" stop-opacity="0.654902"/><stop offset="0.33333334" stop-color="#e0d6c5" stop-opacity="0.6039216"/><stop offset="0.5" stop-color="#dec7cc" stop-opacity="0.5529412"/><stop offset="0.6666667" stop-color="#dfb7d7" stop-opacity="0.49803922"/><stop offset="0.8333334" stop-color="#dda1e2" stop-opacity="0.44705883"/><stop offset="1.0" stop-color="#de87f1" stop-opacity="0.39607844"/></linearGradient></defs><path fill="url(#gb223ce30db_0_0.3)" d="m751.8322 59.218533l0 0c0 -9.697792 7.8616333 -17.559406 17.559448 -17.559406l154.078 0c4.6570435 0 9.123352 1.8500061 12.416382 5.143032c3.2930298 3.293026 5.1430054 7.7593307 5.1430054 12.416374l0 70.23552c0 9.697784 -7.8615723 17.559402 -17.559387 17.559402l-154.078 0c-9.697815 0 -17.559448 -7.861618 -17.559448 -17.559402z" fill-rule="evenodd"/><path stroke="#595959" stroke-width="1.0" stroke-linejoin="round" stroke-linecap="butt" d="m751.8322 59.218533l0 0c0 -9.697792 7.8616333 -17.559406 17.559448 -17.559406l154.078 0c4.6570435 0 9.123352 1.8500061 12.416382 5.143032c3.2930298 3.293026 5.1430054 7.7593307 5.1430054 12.416374l0 70.23552c0 9.697784 -7.8615723 17.559402 -17.559387 17.559402l-154.078 0c-9.697815 0 -17.559448 -7.861618 -17.559448 -17.559402z" fill-rule="evenodd"/><path fill="#000000" d="m833.66504 101.475044q4.671875 -0.890625 5.046875 -2.96875l-4.671875 0l0 -1.1875l4.890625 0l0 -1.1875l-1.625 0l-1.640625 0l0 -5.9375l1.71875 0l0 -1.40625l-2.75 0l0 -1.1875l2.75 0l0 -1.859375l1.1875 0q0.59375 0.078125 0.0625 0.453125l0 1.40625l2.234375 0l0 -1.78125l1.1875 0q0.59375 0.078125 0.078125 0.4375l0 1.34375l2.890625 0l0 1.1875l-2.890625 0l0 1.40625l1.78125 0l0 5.9375l-3.5 0l0 1.1875l5.046875 0l0 1.1875l-4.75 0q0.96875 2.0 5.046875 2.828125l-0.65625 1.5625q-3.5625 -0.96875 -5.28125 -3.5q-1.1875 2.609375 -5.484375 3.5l-0.671875 -1.421875zm-1.1875 -12.171875l2.375 0l0 1.40625l-2.375 0l0 1.9375q1.109375 0.734375 2.53125 2.515625l-1.046875 1.34375q-0.671875 -1.046875 -1.484375 -2.234375l0 8.6875l-1.484375 0l0 -7.859375q-0.890625 2.078125 -1.78125 3.1875l-1.109375 -1.1875q2.515625 -3.640625 2.890625 -6.390625l-2.453125 0l0 -1.40625l2.453125 0l0 -3.5625l1.40625 0q0.59375 0.078125 0.078125 0.453125l0 3.109375zm4.453125 2.078125l0 1.1875l5.71875 0l0 -1.1875l-5.71875 0zm0 2.375l0 1.1875l5.71875 0l0 -1.1875l-5.71875 0zm3.9375 -4.96875l-2.234375 0l0 1.40625l2.234375 0l0 -1.40625zm15.734375 6.90625q0.59375 0.0625 0.078125 0.4375l0 1.109375l5.34375 0l0 1.421875l-5.34375 0l0 2.296875l7.34375 0l0 1.40625l-15.953125 0l0 -1.40625l7.125 0l0 -2.296875l-5.203125 0l0 -1.421875l5.203125 0l0 -1.546875l1.40625 0zm-5.859375 -4.09375l-2.828125 0l0 -1.1875l2.828125 0l0 -2.671875l-2.15625 0l0 -1.1875l8.453125 0l0 1.1875l-1.921875 0l0 2.671875l2.453125 0l0 1.1875l-2.453125 0l0 3.9375l-1.265625 0l0 -3.9375l-1.859375 0l0 0.59375q0 3.125 -3.703125 4.453125l-0.59375 -1.40625q3.046875 -0.890625 3.046875 -3.1875l0 -0.453125zm12.46875 -5.265625q0.59375 0.078125 0.0625 0.453125l0 7.71875q0 1.1875 -1.1875 1.1875l-1.484375 0l-0.21875 -1.421875l1.109375 0q0.296875 0 0.296875 -0.296875l0 -7.640625l1.421875 0zm-9.359375 4.078125l0 -2.671875l-1.859375 0l0 2.671875l1.859375 0zm5.9375 -2.8125q0.59375 0.078125 0.078125 0.4375l0 5.5l-1.484375 0l0 -5.9375l1.40625 0z" fill-rule="nonzero"/><defs><linearGradient id="gb223ce30db_0_0.4" gradientUnits="userSpaceOnUse" gradientTransform="matrix(13.75488460124987 0.0 0.0 13.75488460124987 0.0 0.0)" spreadMethod="pad" x1="54.65929296070215" y1="25.99822969403326" x2="68.41417756195202" y2="25.99822969403326"><stop offset="0.0" stop-color="#00ffff"/><stop offset="1.0" stop-color="#b0daf1"/></linearGradient></defs><path fill="url(#gb223ce30db_0_0.4)" d="m751.8322 269.80774l0 0c0 -9.697815 7.8616333 -17.559418 17.559448 -17.559418l154.078 0c4.6570435 0 9.123352 1.8500061 12.416382 5.143036c3.2930298 3.2930298 5.1430054 7.7593384 5.1430054 12.416382l0 70.235504c0 9.697784 -7.8615723 17.559418 -17.559387 17.559418l-154.078 0c-9.697815 0 -17.559448 -7.8616333 -17.559448 -17.559418z" fill-rule="evenodd"/><path stroke="#595959" stroke-width="1.0" stroke-linejoin="round" stroke-linecap="butt" d="m751.8322 269.80774l0 0c0 -9.697815 7.8616333 -17.559418 17.559448 -17.559418l154.078 0c4.6570435 0 9.123352 1.8500061 12.416382 5.143036c3.2930298 3.2930298 5.1430054 7.7593384 5.1430054 12.416382l0 70.235504c0 9.697784 -7.8615723 17.559418 -17.559387 17.559418l-154.078 0c-9.697815 0 -17.559448 -7.8616333 -17.559448 -17.559418z" fill-rule="evenodd"/><path fill="#000000" d="m821.3901 311.8455l0 -13.359375l2.65625 0l3.15625 9.453125q0.4375 1.328125 0.640625 1.984375q0.234375 -0.734375 0.703125 -2.140625l3.203125 -9.296875l2.375 0l0 13.359375l-1.703125 0l0 -11.171875l-3.875 11.171875l-1.59375 0l-3.859375 -11.375l0 11.375l-1.703125 0zm15.3845825 -11.46875l0 -1.890625l1.640625 0l0 1.890625l-1.640625 0zm0 11.46875l0 -9.671875l1.640625 0l0 9.671875l-1.640625 0zm4.0979004 0l0 -13.359375l1.640625 0l0 13.359375l-1.640625 0zm6.8792114 0l-3.6875 -9.671875l1.734375 0l2.078125 5.796875q0.328125 0.9375 0.625 1.9375q0.203125 -0.765625 0.609375 -1.828125l2.140625 -5.90625l1.6875 0l-3.65625 9.671875l-1.53125 0zm12.96875 0l0 -1.421875q-1.125 1.640625 -3.0625 1.640625q-0.859375 0 -1.609375 -0.328125q-0.734375 -0.328125 -1.09375 -0.828125q-0.359375 -0.5 -0.5 -1.21875q-0.109375 -0.46875 -0.109375 -1.53125l0 -5.984375l1.640625 0l0 5.359375q0 1.28125 0.109375 1.734375q0.15625 0.640625 0.65625 1.015625q0.5 0.375 1.234375 0.375q0.734375 0 1.375 -0.375q0.65625 -0.390625 0.921875 -1.03125q0.265625 -0.65625 0.265625 -1.890625l0 -5.1875l1.640625 0l0 9.671875l-1.46875 0zm3.3913574 -2.890625l1.625 -0.25q0.125 0.96875 0.75 1.5q0.625 0.515625 1.75 0.515625q1.125 0 1.671875 -0.453125q0.546875 -0.46875 0.546875 -1.09375q0 -0.546875 -0.484375 -0.875q-0.328125 -0.21875 -1.671875 -0.546875q-1.8125 -0.46875 -2.515625 -0.796875q-0.6875 -0.328125 -1.046875 -0.90625q-0.359375 -0.59375 -0.359375 -1.3125q0 -0.640625 0.296875 -1.1875q0.296875 -0.5625 0.8125 -0.921875q0.375 -0.28125 1.03125 -0.46875q0.671875 -0.203125 1.421875 -0.203125q1.140625 0 2.0 0.328125q0.859375 0.328125 1.265625 0.890625q0.421875 0.5625 0.578125 1.5l-1.609375 0.21875q-0.109375 -0.75 -0.640625 -1.171875q-0.515625 -0.421875 -1.46875 -0.421875q-1.140625 0 -1.625 0.375q-0.46875 0.375 -0.46875 0.875q0 0.3125 0.1875 0.578125q0.203125 0.265625 0.640625 0.4375q0.234375 0.09375 1.4375 0.421875q1.75 0.453125 2.4375 0.75q0.6875 0.296875 1.078125 0.859375q0.390625 0.5625 0.390625 1.40625q0 0.828125 -0.484375 1.546875q-0.46875 0.71875 -1.375 1.125q-0.90625 0.390625 -2.046875 0.390625q-1.875 0 -2.875 -0.78125q-0.984375 -0.78125 -1.25 -2.328125z" fill-rule="nonzero"/><defs><linearGradient id="gb223ce30db_0_0.5" gradientUnits="userSpaceOnUse" gradientTransform="matrix(13.75488460124987 0.0 0.0 13.75488460124987 0.0 0.0)" spreadMethod="pad" x1="54.65929296070215" y1="37.97067364741905" x2="68.41417756195202" y2="37.97067364741905"><stop offset="0.0" stop-color="#00ffff"/><stop offset="0.8" stop-color="#228ad5"/><stop offset="1.0" stop-color="#225ad5"/></linearGradient></defs><path fill="url(#gb223ce30db_0_0.5)" d="m751.8322 434.4873l0 0c0 -9.697784 7.8616333 -17.559387 17.559448 -17.559387l154.078 0c4.6570435 0 9.123352 1.8500061 12.416382 5.143036c3.2930298 3.2929993 5.1430054 7.759308 5.1430054 12.416351l0 70.235535c0 9.697815 -7.8615723 17.559387 -17.559387 17.559387l-154.078 0c-9.697815 0 -17.559448 -7.8615723 -17.559448 -17.559387z" fill-rule="evenodd"/><path stroke="#595959" stroke-width="1.0" stroke-linejoin="round" stroke-linecap="butt" d="m751.8322 434.4873l0 0c0 -9.697784 7.8616333 -17.559387 17.559448 -17.559387l154.078 0c4.6570435 0 9.123352 1.8500061 12.416382 5.143036c3.2930298 3.2929993 5.1430054 7.759308 5.1430054 12.416351l0 70.235535c0 9.697815 -7.8615723 17.559387 -17.559387 17.559387l-154.078 0c-9.697815 0 -17.559448 -7.8615723 -17.559448 -17.559387z" fill-rule="evenodd"/><path fill="#000000" d="m824.0507 476.5251l0 -13.359375l5.921875 0q1.78125 0 2.703125 0.359375q0.9375 0.359375 1.484375 1.28125q0.5625 0.90625 0.5625 2.015625q0 1.40625 -0.921875 2.390625q-0.921875 0.96875 -2.84375 1.234375q0.703125 0.34375 1.078125 0.671875q0.765625 0.703125 1.453125 1.765625l2.328125 3.640625l-2.21875 0l-1.765625 -2.78125q-0.78125 -1.203125 -1.28125 -1.828125q-0.5 -0.640625 -0.90625 -0.890625q-0.390625 -0.265625 -0.796875 -0.359375q-0.296875 -0.078125 -0.984375 -0.078125l-2.046875 0l0 5.9375l-1.765625 0zm1.765625 -7.453125l3.796875 0q1.21875 0 1.890625 -0.25q0.6875 -0.265625 1.046875 -0.8125q0.359375 -0.546875 0.359375 -1.1875q0 -0.953125 -0.6875 -1.5625q-0.6875 -0.609375 -2.1875 -0.609375l-4.21875 0l0 4.421875zm18.097961 4.34375l1.6875 0.203125q-0.40625 1.484375 -1.484375 2.3125q-1.078125 0.8125 -2.765625 0.8125q-2.125 0 -3.375 -1.296875q-1.234375 -1.3125 -1.234375 -3.671875q0 -2.453125 1.25 -3.796875q1.265625 -1.34375 3.265625 -1.34375q1.9375 0 3.15625 1.328125q1.234375 1.3125 1.234375 3.703125q0 0.15625 0 0.4375l-7.21875 0q0.09375 1.59375 0.90625 2.453125q0.8125 0.84375 2.015625 0.84375q0.90625 0 1.546875 -0.46875q0.640625 -0.484375 1.015625 -1.515625zm-5.390625 -2.65625l5.40625 0q-0.109375 -1.21875 -0.625 -1.828125q-0.78125 -0.953125 -2.03125 -0.953125q-1.125 0 -1.90625 0.765625q-0.765625 0.75 -0.84375 2.015625zm15.406982 5.765625l0 -1.21875q-0.90625 1.4375 -2.703125 1.4375q-1.15625 0 -2.125 -0.640625q-0.96875 -0.640625 -1.5 -1.78125q-0.53125 -1.140625 -0.53125 -2.625q0 -1.453125 0.484375 -2.625q0.484375 -1.1875 1.4375 -1.8125q0.96875 -0.625 2.171875 -0.625q0.875 0 1.546875 0.375q0.6875 0.359375 1.109375 0.953125l0 -4.796875l1.640625 0l0 13.359375l-1.53125 0zm-5.171875 -4.828125q0 1.859375 0.78125 2.78125q0.78125 0.921875 1.84375 0.921875q1.078125 0 1.828125 -0.875q0.75 -0.890625 0.75 -2.6875q0 -1.984375 -0.765625 -2.90625q-0.765625 -0.9375 -1.890625 -0.9375q-1.078125 0 -1.8125 0.890625q-0.734375 0.890625 -0.734375 2.8125zm9.281982 -6.640625l0 -1.890625l1.640625 0l0 1.890625l-1.640625 0zm0 11.46875l0 -9.671875l1.640625 0l0 9.671875l-1.640625 0zm3.4885254 -2.890625l1.625 -0.25q0.125 0.96875 0.75 1.5q0.625 0.515625 1.75 0.515625q1.125 0 1.671875 -0.453125q0.546875 -0.46875 0.546875 -1.09375q0 -0.546875 -0.484375 -0.875q-0.328125 -0.21875 -1.671875 -0.546875q-1.8125 -0.46875 -2.515625 -0.796875q-0.6875 -0.328125 -1.046875 -0.90625q-0.359375 -0.59375 -0.359375 -1.3125q0 -0.640625 0.296875 -1.1875q0.296875 -0.5625 0.8125 -0.921875q0.375 -0.28125 1.03125 -0.46875q0.671875 -0.203125 1.421875 -0.203125q1.140625 0 2.0 0.328125q0.859375 0.328125 1.265625 0.890625q0.421875 0.5625 0.578125 1.5l-1.609375 0.21875q-0.109375 -0.75 -0.640625 -1.171875q-0.515625 -0.421875 -1.46875 -0.421875q-1.140625 0 -1.625 0.375q-0.46875 0.375 -0.46875 0.875q0 0.3125 0.1875 0.578125q0.203125 0.265625 0.640625 0.4375q0.234375 0.09375 1.4375 0.421875q1.75 0.453125 2.4375 0.75q0.6875 0.296875 1.078125 0.859375q0.390625 0.5625 0.390625 1.40625q0 0.828125 -0.484375 1.546875q-0.46875 0.71875 -1.375 1.125q-0.90625 0.390625 -2.046875 0.390625q-1.875 0 -2.875 -0.78125q-0.984375 -0.78125 -1.25 -2.328125z" fill-rule="nonzero"/><path fill="#000000" fill-opacity="0.0" d="m209.71654 94.336296l148.25197 0" fill-rule="evenodd"/><path stroke="#595959" stroke-width="2.0" stroke-linejoin="round" stroke-linecap="butt" d="m209.71654 94.336296l136.25197 0" fill-rule="evenodd"/><path fill="#595959" stroke="#595959" stroke-width="2.0" stroke-linecap="butt" d="m345.9685 97.63976l9.076202 -3.3034668l-9.076202 -3.3034668z" fill-rule="evenodd"/><path fill="#000000" fill-opacity="0.0" d="m216.57478 62.175854l123.842514 0l0 38.55118l-123.842514 0z" fill-rule="evenodd"/><path fill="#0000ff" d="m235.74666 86.72085q0 0.734375 0.734375 0.734375l1.125 0l0 0.453125l-4.90625 0l0 -0.453125l1.109375 0q0.75 0 0.75 -0.734375l0 -8.828125q0 -0.828125 -0.75 -0.828125l-1.109375 0l0 -0.4375q2.296875 0.078125 3.046875 -0.515625l0 10.609375zm7.421875 -4.453125q0 -3.484375 -2.296875 -5.796875q-2.3125 -2.296875 -5.796875 -2.296875q-3.484375 0 -5.78125 2.296875q-2.3125 2.3125 -2.3125 5.796875q0 3.484375 2.3125 5.78125q2.296875 2.3125 5.78125 2.3125q3.484375 0 5.796875 -2.3125q2.296875 -2.296875 2.296875 -5.78125zm0.59375 0q0 3.78125 -2.453125 6.234375q-2.453125 2.453125 -6.234375 2.453125q-3.78125 0 -6.234375 -2.453125q-2.453125 -2.453125 -2.453125 -6.234375q0 -3.78125 2.453125 -6.234375q2.453125 -2.453125 6.234375 -2.453125q3.78125 0 6.234375 2.453125q2.453125 2.453125 2.453125 6.234375zm10.3125 6.53125l5.9374847 0l1.109375 -1.109375l1.421875 1.03125q0.4375 0.375 0 0.53125l-16.624985 0l0 -0.453125l7.046875 0l0 -14.703125l1.484375 0.234375q0.8125 0.296875 -0.375 0.59375l0 5.9375l4.3749847 0l1.125 -1.125l1.40625 1.046875q0.4375 0.375 0 0.515625l-6.9062347 0l0 7.5z" fill-rule="nonzero"/><path fill="#0000ff" d="m274.94977 79.1896q0 1.015625 0.140625 2.6875l3.421875 -0.359375l0.953125 -1.09375l1.453125 1.234375l-5.75 0.59375q0.21875 2.25 0.71875 3.5625q1.609375 -1.453125 2.546875 -3.0625l1.3125 1.3125l-0.65625 0.078125q-1.375 1.3125 -2.765625 2.625q1.3125 1.8125 3.0625 2.546875l1.015625 -3.5l0.296875 0.078125q-0.140625 1.671875 -0.1875 2.765625q-0.03125 1.09375 0.296875 1.703125q0.328125 0.625 -0.546875 0.484375q-0.875 -0.140625 -2.15625 -0.90625q-1.265625 -0.765625 -2.578125 -2.453125q-1.3125 0.875 -2.671875 1.46875q-1.34375 0.578125 -3.375 1.15625l-0.078125 -0.28125q3.140625 -1.171875 5.609375 -3.21875q-0.65625 -1.96875 -0.875 -4.21875l-2.984375 0.359375l-0.578125 0.296875l-0.8125 -0.578125l4.3125 -0.4375q-0.078125 -1.03125 -0.15625 -2.78125l-2.109375 0.15625l-0.4375 0.28125l-0.65625 -0.578125l3.203125 -0.21875q-0.0625 -2.546875 -0.140625 -5.09375l1.671875 0.796875l-0.578125 0.5q0 1.53125 0.078125 3.71875l3.125 -0.28125l0.953125 -1.09375l1.453125 1.3125l-5.53125 0.4375zm1.09375 -4.15625l0.0625 -0.21875q2.265625 0.578125 2.546875 1.125q0.296875 0.546875 0 1.25q-0.28125 0.6875 -0.765625 -0.15625q-0.46875 -0.84375 -1.84375 -2.0zm-8.015625 -0.953125l1.453125 0.953125q-0.59375 0.21875 -1.25 1.5q-0.640625 1.265625 -2.390625 3.671875l2.984375 -0.296875q0.875 -1.453125 1.375 -2.90625l1.3125 0.9375q-0.5 0.296875 -1.75 2.125q-1.234375 1.8125 -3.203125 4.359375q1.03125 -0.140625 4.515625 -0.796875l0 0.296875q-1.96875 0.5 -3.0625 0.90625q-1.078125 0.40625 -2.171875 1.125l-0.875 -1.53125q0.796875 -0.203125 1.84375 -1.546875q1.0625 -1.359375 1.859375 -2.671875q-0.796875 0.140625 -1.671875 0.40625q-0.875 0.25 -1.59375 0.90625l-0.8125 -1.390625q0.8125 -0.140625 1.859375 -2.0625q1.0625 -1.9375 1.578125 -3.984375zm-3.5 13.921875q2.03125 -0.296875 3.265625 -0.515625q1.25 -0.21875 4.015625 -0.796875l0.078125 0.296875q-3.28125 0.9375 -4.78125 1.484375q-1.484375 0.546875 -1.859375 0.921875l-0.71875 -1.390625z" fill-rule="nonzero"/><path fill="#0000ff" d="m287.4654 76.14272l-4.484375 13.203125l-0.71875 0l4.46875 -13.203125l0.734375 0z" fill-rule="nonzero"/><path fill="#0000ff" d="m292.53934 82.48647l3.9375 0l0 -2.078125l-3.9375 0l0 2.078125zm3.9375 -4.59375l-3.9375 0l0 2.078125l3.9375 0l0 -2.078125zm0 8.671875q3.03125 2.15625 8.828125 2.53125q-1.046875 0.75 -1.1875 1.265625q-5.203125 -0.8125 -8.09375 -3.203125q-2.15625 2.53125 -6.96875 3.28125q-0.375 0 -0.078125 -0.296875q4.53125 -1.125 6.453125 -3.5q-1.1875 -1.109375 -2.15625 -2.59375l0.53125 -0.375q0.65625 1.1875 1.921875 2.375q0.59375 -1.109375 0.75 -3.109375l-3.9375 0l0 1.25q-0.96875 0.890625 -0.96875 0.078125l0 -7.5l1.109375 0.671875l3.796875 0l0 -1.921875l-7.65625 0l0 -0.453125l13.890625 0l0.953125 -0.96875l1.1875 0.890625q0.453125 0.375 0 0.53125l-7.421875 0l0 1.921875l3.71875 0l0.515625 -0.671875l1.1875 0.828125q0.59375 0.4375 -0.515625 0.59375l0 5.640625q-0.96875 0.890625 -0.96875 0.0625l0 -0.953125l-3.9375 0q-0.140625 2.296875 -0.953125 3.625zm4.890625 -6.15625l-3.9375 0l0 2.078125l3.9375 0l0 -2.078125zm0 -2.515625l-3.9375 0l0 2.078125l3.9375 0l0 -2.078125zm8.09375 -0.59375q-0.21875 -0.296875 0.140625 -0.234375q1.421875 1.046875 1.421875 1.9375q0 0.8125 -0.53125 0.8125q-0.359375 0 -0.4375 -0.671875q-0.15625 -1.328125 -0.59375 -1.84375zm8.09375 -2.234375l1.109375 0.75q2.8125 -0.75 4.234375 -1.421875l1.1875 0.828125q0.359375 0.4375 -0.75 0.296875q-1.921875 0.359375 -4.828125 0.734375l0 4.015625l4.015625 0l0.96875 -0.96875l1.1875 0.890625q0.4375 0.375 0 0.515625l-2.609375 0l0 9.65625q-0.953125 0.890625 -0.953125 0.078125l0 -9.734375l-2.609375 0l0 1.703125q0 5.34375 -4.515625 7.796875q-0.53125 0.078125 -0.15625 -0.359375q3.71875 -2.390625 3.71875 -7.203125l0 -7.578125zm-4.984375 7.9375l2.3125 0l0.8125 -0.8125l1.03125 0.75q0.453125 0.359375 0 0.515625l-4.15625 0l0 1.109375q2.015625 0.453125 2.828125 1.046875q0.515625 0.359375 0.515625 0.890625q0 0.4375 -0.375 0.4375q-0.296875 0 -0.65625 -0.4375q-0.96875 -1.1875 -2.3125 -1.5625l0 5.203125q-0.953125 0.890625 -0.953125 0.0625l0 -5.125q-1.640625 2.453125 -4.3125 4.3125q-0.296875 0.078125 -0.21875 -0.21875q2.375 -2.15625 4.453125 -5.71875l-3.5625 0l0 -0.453125l3.640625 0l0 -2.4375l-4.015625 0l0 -0.453125l5.5 0l0.890625 -3.046875l1.03125 0.375q1.046875 0.453125 -0.21875 0.671875l-1.34375 2.0l1.484375 0l0.828125 -0.8125l1.03125 0.734375q0.453125 0.375 0 0.53125l-4.234375 0l0 2.4375zm-0.953125 -6.828125l0 -2.671875l1.25 0.234375q0.59375 0.359375 -0.296875 0.515625l0 1.921875l1.71875 0l0.953125 -0.953125l1.1875 0.890625q0.453125 0.359375 0 0.515625l-8.53125 0l0 -0.453125l3.71875 0z" fill-rule="nonzero"/><path fill="#000000" fill-opacity="0.0" d="m452.56693 146.88747l1.2654419 0l0 50.12599l-338.71426 0l0 -50.0" fill-rule="evenodd"/><path stroke="#595959" stroke-width="2.0" stroke-linejoin="round" stroke-linecap="butt" d="m453.83234 158.82057l0 38.192886l-338.71423 0l0 -38.0" fill-rule="evenodd"/><path fill="#595959" stroke="#595959" stroke-width="2.0" stroke-linecap="butt" d="m457.1174 158.47221l-4.242157 -8.677231l-2.327942 9.373947z" fill-rule="evenodd"/><path fill="#595959" stroke="#595959" stroke-width="2.0" stroke-linecap="butt" d="m118.42158 159.01346l-3.3034668 -9.076187l-3.3034668 9.076187z" fill-rule="evenodd"/><path fill="#000000" fill-opacity="0.0" d="m223.43262 159.44656l236.50394 0l0 105.35434l-236.50394 0z" fill-rule="evenodd"/><path fill="#0000ff" d="m244.22949 176.64781q0 -1.34375 -0.515625 -1.859375q-0.734375 -0.75 -1.78125 -0.75q-1.1875 0 -1.921875 0.75q-0.828125 0.8125 -0.53125 1.703125q0.234375 0.671875 0.234375 0.75q0 0.59375 -0.75 0.59375q-0.734375 0 -0.734375 -0.828125q0 -1.328125 0.890625 -2.21875q1.1875 -1.1875 2.890625 -1.1875q1.703125 0 2.75 1.03125q0.734375 0.75 0.734375 2.015625q0 1.546875 -1.109375 2.4375q-4.078125 3.265625 -4.75 3.9375q-0.453125 0.453125 -0.890625 1.109375l4.234375 0q1.328125 0 2.0 -1.78125l0.4375 0l-0.890625 2.828125l-6.75 0l0 -0.515625q0.515625 -1.1875 1.703125 -2.234375q1.640625 -1.5625 3.5 -3.265625q1.25 -1.484375 1.25 -2.515625zm3.5 -2.90625q-2.3125 -2.296875 -5.796875 -2.296875q-3.484375 0 -5.78125 2.296875q-2.3125 2.3125 -2.3125 5.796875q0 3.484375 2.3125 5.78125q2.296875 2.3125 5.78125 2.3125q3.484375 0 5.796875 -2.3125q2.296875 -2.296875 2.296875 -5.78125q0 -3.484375 -2.296875 -5.796875zm0.4375 -0.4375q2.453125 2.453125 2.453125 6.234375q0 3.78125 -2.453125 6.234375q-2.453125 2.453125 -6.234375 2.453125q-3.78125 0 -6.234375 -2.453125q-2.453125 -2.453125 -2.453125 -6.234375q0 -3.78125 2.453125 -6.234375q2.453125 -2.453125 6.234375 -2.453125q3.78125 0 6.234375 2.453125zm16.921875 10.390625q-2.078125 2.59375 -4.96875 4.234375q-0.375 0 -0.15625 -0.296875q3.125 -2.375 4.53125 -4.6875q-1.859375 -2.59375 -2.515625 -7.265625l-2.15625 0l0 11.578125q-0.96875 0.890625 -0.96875 0.078125l0 -3.5625l-4.96875 1.546875q-0.21875 1.046875 -0.671875 0.296875l-0.59375 -0.890625l2.0 -0.4375l0 -11.4375l-1.921875 0l0 -0.4375l8.984375 0l1.109375 -1.109375l1.40625 1.03125q0.453125 0.375 0 0.515625l-4.375 0l0 2.375l6.90625 0l0.59375 -0.59375l1.40625 1.046875q0.21875 0.4375 -0.75 0.296875q-0.59375 3.78125 -2.375 6.96875q1.78125 1.78125 4.15625 2.90625q-0.65625 0.21875 -1.328125 0.8125q-1.703125 -1.046875 -3.34375 -2.96875zm-2.75 -8.015625q0.96875 4.453125 2.609375 6.53125q1.40625 -2.671875 2.0 -6.53125l-4.609375 0zm-6.75 4.59375l0 3.71875l3.265625 -0.75l0 -2.96875l-3.265625 0zm3.265625 -0.4375l0 -3.125l-3.265625 0l0 3.125l3.265625 0zm0 -6.984375l-3.265625 0l0 3.421875l3.265625 0l0 -3.421875z" fill-rule="nonzero"/><path fill="#0000ff" d="m274.88574 184.47594q0 2.546875 0.0625 3.421875l-1.09375 0.359375q0.078125 -2.625 0.078125 -3.5l0 -7.203125q-1.3125 2.109375 -2.546875 3.421875l-0.21875 -0.140625q1.375 -2.125 2.46875 -4.75q1.09375 -2.625 1.671875 -4.875l1.53125 0.953125l-0.71875 0.421875q-1.171875 2.703125 -1.53125 3.65625l0.875 0.5l-0.578125 0.4375l0 7.296875zm3.921875 -7.515625l0 2.1875l5.625 0l0 -2.1875l-5.625 0zm0 2.625l0 2.1875l5.625 0l0 -2.1875l-5.625 0zm0 2.625l0 2.1875l5.625 0l0 -2.1875l-5.625 0zm0 2.625l0 2.1875l5.625 0l0 -2.1875l-5.625 0zm1.96875 -10.859375q0.078125 -1.671875 0 -2.84375l1.6875 0.8125l-0.59375 0.421875l-0.0625 1.609375l3.265625 0l0.953125 -0.953125l1.390625 1.390625l-5.609375 0l-0.078125 2.109375l2.546875 0l0.65625 -0.71875l1.09375 0.9375l-0.65625 0.4375l0 9.84375l0.65625 0l0.953125 -0.953125l1.375 1.390625l-10.78125 0q-0.953125 0 -1.75 0.21875l-0.65625 -0.65625l2.703125 0l0 -8.09375q0 -0.875 -0.078125 -2.984375l1.015625 0.578125l1.90625 0l0.0625 -2.109375l-2.1875 0q-0.9375 0 -1.75 0.21875l-0.65625 -0.65625l4.59375 0z" fill-rule="nonzero"/><path fill="#000000" fill-opacity="0.0" d="m216.57477 192.9235l236.50394 0l0 105.35434l-236.50394 0z" fill-rule="evenodd"/><path fill="#0000ff" d="m237.30914 209.89037q0 -1.109375 -0.59375 -1.703125q-0.671875 -0.671875 -1.78125 -0.671875q-1.125 0 -1.9375 0.828125q-0.296875 0.296875 -0.078125 1.03125q0.296875 0.96875 -0.59375 0.96875q-0.65625 0 -0.65625 -0.75q0 -0.890625 0.65625 -1.546875q0.96875 -0.96875 2.75 -0.96875q1.703125 0 2.75 1.03125q0.671875 0.671875 0.671875 1.9375q0 1.109375 -0.671875 1.78125q-0.515625 0.515625 -2.0 1.03125q1.328125 0.15625 2.078125 0.890625q0.8125 0.828125 0.8125 2.015625q0 1.328125 -0.75 2.078125q-1.109375 1.109375 -2.890625 1.109375q-2.0 0 -2.96875 -0.96875q-0.8125 -0.8125 -0.8125 -1.625q0 -1.125 0.8125 -1.125q0.75 0 0.75 0.828125q0 0.296875 -0.296875 0.734375q-0.296875 0.453125 0.21875 0.96875q0.734375 0.734375 2.0 0.734375q1.1875 0 2.0 -0.8125q0.75 -0.734375 0.75 -1.921875q0 -1.859375 -1.046875 -2.3125q-1.328125 -0.59375 -2.4375 -0.140625q-0.53125 0 -0.53125 -0.296875q0 -0.515625 0.53125 -0.453125q0.59375 0.234375 1.484375 0q0.59375 -0.0625 1.25 -0.734375q0.53125 -0.515625 0.53125 -1.9375zm5.859375 3.125q0 -3.484375 -2.296875 -5.796875q-2.3125 -2.296875 -5.796875 -2.296875q-3.484375 0 -5.78125 2.296875q-2.3125 2.3125 -2.3125 5.796875q0 3.484375 2.3125 5.78125q2.296875 2.3125 5.78125 2.3125q3.484375 0 5.796875 -2.3125q2.296875 -2.296875 2.296875 -5.78125zm0.59375 0q0 3.78125 -2.453125 6.234375q-2.453125 2.453125 -6.234375 2.453125q-3.78125 0 -6.234375 -2.453125q-2.453125 -2.453125 -2.453125 -6.234375q0 -3.78125 2.453125 -6.234375q2.453125 -2.453125 6.234375 -2.453125q3.78125 0 6.234375 2.453125q2.453125 2.453125 2.453125 6.234375zm13.578125 1.625q1.40625 -1.78125 2.375 -4.21875l-4.453125 0q0.59375 2.140625 2.078125 4.21875zm-5.125 -8.90625l1.046875 0.59375l6.90625 0l0.953125 -0.953125l1.1875 0.890625q0.453125 0.359375 0 0.515625l-9.125 0l0 3.1875l6.53125 0l0.59375 -0.59375l1.046875 1.046875q0.296875 0.4375 -0.59375 0.296875q-0.890625 2.296875 -2.828125 4.59375q2.375 1.859375 4.828125 2.59375q-0.890625 0.234375 -1.484375 0.828125q-2.53125 -1.421875 -3.9375 -2.90625q-2.21875 1.9375 -4.890625 2.671875q-0.53125 0 -0.15625 -0.296875q2.96875 -1.328125 4.53125 -2.96875q-1.40625 -2.140625 -2.0 -4.8125l-1.640625 0q0 4.453125 -2.453125 7.484375q-0.359375 0.15625 -0.21875 -0.21875q1.703125 -2.890625 1.703125 -7.265625l0 -4.6875zm-5.703125 -0.4375q3.265625 0.890625 3.265625 2.296875q0 0.59375 -0.53125 0.59375q-0.296875 0 -0.59375 -0.4375q-0.8125 -1.484375 -2.296875 -2.234375q-0.296875 -0.21875 0.15625 -0.21875zm2.0 6.75l-2.96875 0l0 -0.4375l2.75 0l0.4375 -0.59375l1.046875 0.734375q0.4375 0.375 -0.296875 0.515625l0 5.34375q2.078125 2.078125 5.484375 2.078125l8.171875 0q-0.453125 0.15625 -0.890625 0.90625l-6.609375 0q-3.859375 0 -6.609375 -2.6875l-1.859375 1.71875q0.15625 1.1875 -0.59375 0.375l-0.65625 -0.828125l2.59375 -1.5625l0 -5.5625zm17.953125 7.5l0 1.265625q-0.953125 0.890625 -0.953125 0.078125l0 -15.453125l1.109375 0.75l12.6875 0l0.515625 -0.671875l1.1875 0.8125q0.59375 0.453125 -0.515625 0.59375l0 13.59375q-0.96875 0.890625 -0.96875 0.078125l0 -1.046875l-13.0625 0zm0 -12.921875l0 12.46875l13.0625 0l0 -12.46875l-13.0625 0zm3.859375 3.859375l0 4.3125l4.90625 0l0 -4.3125l-4.90625 0zm0.15625 -0.4375l4.53125 0l0.515625 -0.671875l1.1875 0.8125q0.59375 0.453125 -0.515625 0.59375l0 5.203125q-0.96875 0.890625 -0.96875 0.078125l0 -0.828125l-4.90625 0l0 1.34375q-0.953125 0.890625 -0.953125 0.078125l0 -7.28125l1.109375 0.671875z" fill-rule="nonzero"/><path fill="#0000ff" d="m287.0279 217.95287q0 2.546875 0.0625 3.421875l-1.09375 0.359375q0.078125 -2.625 0.078125 -3.5l0 -7.203125q-1.3125 2.109375 -2.546875 3.421875l-0.21875 -0.140625q1.375 -2.125 2.46875 -4.75q1.09375 -2.625 1.671875 -4.875l1.53125 0.953125l-0.71875 0.421875q-1.171875 2.703125 -1.53125 3.65625l0.875 0.5l-0.578125 0.4375l0 7.296875zm3.921875 -7.515625l0 2.1875l5.625 0l0 -2.1875l-5.625 0zm0 2.625l0 2.1875l5.625 0l0 -2.1875l-5.625 0zm0 2.625l0 2.1875l5.625 0l0 -2.1875l-5.625 0zm0 2.625l0 2.1875l5.625 0l0 -2.1875l-5.625 0zm1.96875 -10.859375q0.078125 -1.671875 0 -2.84375l1.6875 0.8125l-0.59375 0.421875l-0.0625 1.609375l3.265625 0l0.953125 -0.953125l1.390625 1.390625l-5.609375 0l-0.078125 2.109375l2.546875 0l0.65625 -0.71875l1.09375 0.9375l-0.65625 0.4375l0 9.84375l0.65625 0l0.953125 -0.953125l1.375 1.390625l-10.78125 0q-0.953125 0 -1.75 0.21875l-0.65625 -0.65625l2.703125 0l0 -8.09375q0 -0.875 -0.078125 -2.984375l1.015625 0.578125l1.90625 0l0.0625 -2.109375l-2.1875 0q-0.9375 0 -1.75 0.21875l-0.65625 -0.65625l4.59375 0z" fill-rule="nonzero"/><path fill="#000000" fill-opacity="0.0" d="m547.15356 94.336296l204.69293 0" fill-rule="evenodd"/><path stroke="#595959" stroke-width="2.0" stroke-linejoin="round" stroke-linecap="butt" d="m559.15356 94.336296l180.69287 0" fill-rule="evenodd"/><path fill="#595959" stroke="#595959" stroke-width="2.0" stroke-linecap="butt" d="m559.15356 91.03283l-9.076172 3.3034668l9.076172 3.3034668z" fill-rule="evenodd"/><path fill="#595959" stroke="#595959" stroke-width="2.0" stroke-linecap="butt" d="m739.84644 97.63976l9.076233 -3.3034668l-9.076233 -3.3034668z" fill-rule="evenodd"/><path fill="#000000" fill-opacity="0.0" d="m572.34235 54.09186l236.50397 0l0 105.35434l-236.50397 0z" fill-rule="evenodd"/><path fill="#0000ff" d="m590.84235 70.76186l-3.9375 5.578125l3.9375 0l0 -5.578125zm0 6.015625l-4.53125 0l0 -0.4375l5.71875 -8.09375l0 8.09375l2.078125 0l0 0.4375l-2.078125 0l0 1.859375q0 0.734375 0.75 0.734375l1.03125 0l0 0.453125l-4.75 0l0 -0.453125l1.046875 0q0.734375 0 0.734375 -0.734375l0 -1.859375zm8.09375 -2.59375q0 -3.484375 -2.296875 -5.796875q-2.3125 -2.296875 -5.796875 -2.296875q-3.484375 0 -5.78125 2.296875q-2.3125 2.3125 -2.3125 5.796875q0 3.484375 2.3125 5.78125q2.296875 2.3125 5.78125 2.3125q3.484375 0 5.796875 -2.3125q2.296875 -2.296875 2.296875 -5.78125zm0.59375 0q0 3.78125 -2.453125 6.234375q-2.453125 2.453125 -6.234375 2.453125q-3.78125 0 -6.234375 -2.453125q-2.453125 -2.453125 -2.453125 -6.234375q0 -3.78125 2.453125 -6.234375q2.453125 -2.453125 6.234375 -2.453125q3.78125 0 6.234375 2.453125q2.453125 2.453125 2.453125 6.234375z" fill-rule="nonzero"/><path fill="#0000ff" d="m603.1861 66.51186l0.078125 -0.21875q1.59375 0.71875 2.203125 1.234375q0.625 0.515625 0.625 1.03125q0 0.5 -0.40625 0.875q-0.390625 0.359375 -0.859375 -0.765625q-0.46875 -1.140625 -1.640625 -2.15625zm1.96875 13.40625l2.84375 -2.484375l0.140625 0.21875q-2.546875 3.28125 -3.125 4.375l-1.09375 -1.234375q0.28125 -0.4375 0.28125 -1.390625l0 -6.546875l-1.890625 0l0.65625 0q-0.4375 0 -1.234375 0.21875l-0.65625 -0.65625l2.984375 0l0.796875 -0.8125l1.015625 1.03125l-0.71875 0.5l0 6.78125zm6.40625 -7.4375q0 -4.875 -0.0625 -6.328125l1.75 0.796875l-0.59375 0.578125l0 4.953125l3.28125 0l0.953125 -0.9375l1.3125 1.375l-5.546875 0l0 6.640625q0 1.453125 0.078125 2.6875l-1.234375 0.515625q0.0625 -2.265625 0.0625 -3.421875l0 -6.421875l-3.71875 0l1.09375 0q-0.875 0 -1.671875 0.21875l-0.65625 -0.65625l4.953125 0z" fill-rule="nonzero"/><path fill="#0000ff" d="m620.0455 70.69936q1.84375 -1.9375 2.96875 -5.578125l1.25 0.671875q0.375 0.296875 -0.4375 0.375q-0.296875 0.515625 -0.8125 1.265625l3.1875 0l0.96875 -0.96875l1.1875 0.890625q0.4375 0.375 0 0.515625l-3.9375 0q1.484375 0.75 1.484375 1.640625q0 0.59375 -0.375 0.59375q-0.21875 0 -0.296875 -0.15625q-0.515625 -1.40625 -1.1875 -2.078125l-1.265625 0q-1.109375 1.9375 -2.515625 2.96875q-0.296875 0.15625 -0.21875 -0.140625zm10.75 -4.390625q-0.359375 0.671875 -0.65625 1.125l3.78125 0l0.96875 -0.96875l1.1875 0.890625q0.4375 0.375 0 0.515625l-5.046875 0q1.328125 0.8125 1.328125 1.703125q0 0.671875 -0.4375 0.671875q-0.234375 0 -0.375 -0.375q-0.15625 -1.03125 -0.890625 -2.0l-0.75 0q-1.03125 1.640625 -2.0 2.296875q-0.296875 0.234375 -0.21875 -0.140625q1.5625 -2.0 2.296875 -4.75l1.34375 0.671875q0.4375 0.359375 -0.53125 0.359375zm-6.53125 10.328125l0 0.8125q-0.953125 0.890625 -0.953125 0.078125l0 -7.578125l1.109375 0.75l8.3125 0l0.4375 -0.59375l1.046875 0.734375q0.4375 0.375 -0.296875 0.515625l0 5.796875q-0.96875 0.890625 -0.96875 0.078125l0 -0.59375l-1.625 0l0 1.921875l2.671875 0l1.109375 -1.109375l1.40625 1.03125q0.453125 0.375 0 0.53125l-5.1875 0l0 3.265625q-0.96875 0.890625 -0.96875 0.078125l0 -3.34375l-3.484375 0q-0.453125 3.046875 -6.234375 3.78125q-0.296875 -0.140625 0 -0.296875q4.890625 -1.1875 5.265625 -3.484375l-5.9375 0l0 -0.453125l6.015625 0q0.140625 -0.59375 0.21875 -1.921875l-1.9375 0zm2.90625 0q-0.078125 1.1875 -0.234375 1.921875l3.421875 0l0 -1.921875l-3.1875 0zm-2.90625 -4.09375l8.6875 0l0 -1.40625l-8.6875 0l0 1.40625zm0 1.859375l8.6875 0l0 -1.40625l-8.6875 0l0 1.40625zm8.6875 1.78125l0 -1.328125l-8.6875 0l0 1.328125l8.6875 0zm12.765625 -9.71875q0.8125 0.515625 -0.96875 0.515625q-0.59375 1.265625 -1.109375 2.078125l10.3125 0l0.53125 -0.671875l1.1875 0.828125q0.59375 0.4375 -0.53125 0.59375l0 7.640625q0 3.046875 -0.734375 4.015625q-0.453125 0.65625 -1.640625 1.03125q-0.8125 0.21875 -0.8125 -0.375q0 -0.359375 -0.4375 -0.515625l-1.5625 -0.4375q-0.296875 -0.234375 0.078125 -0.3125l1.546875 0.15625q0.53125 0.078125 0.96875 0.078125q0.8125 0 1.1875 -0.671875q0.453125 -0.671875 0.453125 -3.125l0 -7.78125l-10.765625 0q-2.375 3.703125 -4.234375 5.1875q-0.515625 0.296875 -0.21875 -0.21875q3.5625 -4.3125 4.890625 -8.765625l1.859375 0.75zm-1.5625 12.609375q-0.953125 0.890625 -0.953125 0.078125l0 -7.265625l1.109375 0.4375l3.859375 0l0.4375 -0.59375l1.046875 0.75q0.4375 0.359375 -0.296875 0.515625l0 5.421875q-0.96875 0.890625 -0.96875 0.0625l0 -0.65625l-4.234375 0l0 1.25zm4.234375 -1.703125l0 -4.59375l-4.234375 0l0 4.59375l4.234375 0zm18.625 3.125q0 0.890625 -0.515625 1.328125q-0.4375 0.375 -0.890625 0.453125q-0.4375 0.078125 -0.4375 -0.453125q0 -0.359375 -0.375 -0.515625l-1.1875 -0.21875q-0.375 -0.15625 0 -0.296875l1.78125 0q0.671875 0 0.671875 -0.671875l0 -5.640625l-8.09375 0l0 -0.453125l8.09375 0l0 -3.109375l0.890625 0.4375l2.734375 -3.484375l-9.046875 0l0 -0.4375l8.90625 0l0.734375 -0.75l1.640625 1.34375q0.296875 0.4375 -0.21875 0.359375q-0.890625 -0.0625 -1.34375 0.375l-3.34375 3.046875l0 2.21875l5.203125 0l1.109375 -1.109375l1.40625 1.046875q0.453125 0.359375 0 0.515625l-7.71875 0l0 6.015625zm17.296875 -11.0625l7.125 0l0.453125 -0.59375l1.03125 0.734375q0.453125 0.375 -0.296875 0.53125l0 10.53125q0 0.890625 -0.59375 1.421875q-0.4375 0.359375 -0.8125 0.359375q-0.453125 0 -0.453125 -0.515625q0 -0.375 -0.515625 -0.515625l-1.109375 -0.15625q-0.375 -0.140625 0 -0.296875l1.859375 0q0.65625 0 0.65625 -0.671875l0 -10.390625l-12.3125 0l0 12.1875q-0.96875 0.890625 -0.96875 0.0625l0 -13.5l1.109375 0.8125l4.234375 0l0.890625 -3.421875l1.34375 0.453125q0.734375 0.296875 -0.53125 0.671875l-1.109375 2.296875zm4.53125 3.40625q0.4375 0.375 -0.296875 0.53125l0 5.046875q-0.96875 0.890625 -0.96875 0.0625l0 -0.953125l-4.15625 0l0 1.625q-0.96875 0.890625 -0.96875 0.078125l0 -7.28125l1.125 0.75l3.78125 0l0.4375 -0.59375l1.046875 0.734375zm-1.265625 0.296875l-4.15625 0l0 3.9375l4.15625 0l0 -3.9375zm17.59375 6.234375l4.453125 0l0.96875 -0.953125l1.1875 0.890625q0.4375 0.359375 0 0.515625l-6.609375 0l0 1.5625l5.71875 0l0.953125 -0.96875l1.1875 0.890625q0.453125 0.375 0 0.515625l-16.390625 0l0 -0.4375l7.5625 0l0 -1.5625l-6.375 0l0 -0.453125l6.375 0l0 -1.328125l-3.859375 0l0 0.296875q-0.96875 0.890625 -0.96875 0.078125l0 -5.34375l1.125 0.59375l8.15625 0l0.453125 -0.59375l1.03125 0.734375q0.515625 0.375 -0.296875 0.515625l0 3.859375q-0.96875 0.890625 -0.96875 0.078125l0 -0.21875l-3.703125 0l0 1.328125zm3.703125 -3.78125l0 -1.484375l-3.703125 0l0 1.484375l3.703125 0zm-8.53125 0l3.859375 0l0 -1.484375l-3.859375 0l0 1.484375zm0 2.0l3.859375 0l0 -1.546875l-3.859375 0l0 1.546875zm4.828125 0l3.703125 0l0 -1.546875l-3.703125 0l0 1.546875zm3.1875 -8.75l-7.421875 0l0 1.328125l7.421875 0l0 -1.328125zm-7.421875 -0.453125l7.421875 0l0 -1.40625l-7.421875 0l0 1.40625zm-0.96875 -2.4375l1.125 0.59375l7.046875 0l0.4375 -0.59375l1.046875 0.734375q0.515625 0.375 -0.296875 0.515625l0 3.859375q-0.96875 0.890625 -0.96875 0.078125l0 -0.515625l-7.421875 0l0 0.59375q-0.96875 0.890625 -0.96875 0.078125l0 -5.34375zm-3.625 6.15625l14.46875 0l1.109375 -1.109375l1.40625 1.03125q0.453125 0.375 0 0.515625l-16.984375 0l0 -0.4375z" fill-rule="nonzero"/><path fill="#000000" fill-opacity="0.0" d="m572.34235 94.335144l236.50397 0l0 105.354324l-236.50397 0z" fill-rule="evenodd"/><path fill="#0000ff" d="m592.40485 114.13014q-0.75 -0.75 -1.78125 -0.75q-1.046875 0 -1.78125 0.75q-0.21875 0.21875 -0.671875 0.8125l-0.375 -0.140625l0.453125 -6.015625l5.78125 0l-0.296875 1.03125l-5.109375 0l-0.296875 4.234375q1.03125 -1.109375 2.515625 -1.109375q1.5625 0 2.375 0.8125q1.265625 1.265625 1.265625 2.75q0 1.625 -1.046875 2.671875q-1.1875 1.1875 -2.96875 1.1875q-1.484375 0 -2.296875 -0.8125q-0.8125 -0.828125 -0.8125 -1.640625q0 -1.109375 0.734375 -1.109375q0.671875 0 0.671875 0.734375q0 0.296875 -0.296875 0.828125q-0.296875 0.515625 0.453125 1.109375q0.59375 0.4375 1.484375 0.4375q1.109375 0 1.921875 -0.8125q0.96875 -0.96875 0.96875 -2.59375q0 -1.484375 -0.890625 -2.375zm7.125 0.296875q0 3.78125 -2.453125 6.234375q-2.453125 2.453125 -6.234375 2.453125q-3.78125 0 -6.234375 -2.453125q-2.453125 -2.453125 -2.453125 -6.234375q0 -3.78125 2.453125 -6.234375q2.453125 -2.453125 6.234375 -2.453125q3.78125 0 6.234375 2.453125q2.453125 2.453125 2.453125 6.234375zm-0.59375 0q0 -3.484375 -2.296875 -5.796875q-2.3125 -2.296875 -5.796875 -2.296875q-3.484375 0 -5.78125 2.296875q-2.3125 2.3125 -2.3125 5.796875q0 3.484375 2.3125 5.78125q2.296875 2.3125 5.78125 2.3125q3.484375 0 5.796875 -2.3125q2.296875 -2.296875 2.296875 -5.78125zm14.171875 1.625q1.40625 -1.78125 2.375 -4.21875l-4.453125 0q0.59375 2.140625 2.078125 4.21875zm-5.125 -8.90625l1.046875 0.59375l6.90625 0l0.953125 -0.953125l1.1875 0.890625q0.453125 0.359375 0 0.515625l-9.125 0l0 3.1875l6.53125 0l0.59375 -0.59375l1.046875 1.046875q0.296875 0.4375 -0.59375 0.296875q-0.890625 2.296875 -2.828125 4.59375q2.375 1.859375 4.828125 2.59375q-0.890625 0.234375 -1.484375 0.828125q-2.53125 -1.421875 -3.9375 -2.90625q-2.21875 1.9375 -4.890625 2.671875q-0.53125 0 -0.15625 -0.296875q2.96875 -1.328125 4.53125 -2.96875q-1.40625 -2.140625 -2.0 -4.8125l-1.640625 0q0 4.453125 -2.453125 7.484375q-0.359375 0.15625 -0.21875 -0.21875q1.703125 -2.890625 1.703125 -7.265625l0 -4.6875zm-5.703125 -0.4375q3.265625 0.890625 3.265625 2.296875q0 0.59375 -0.53125 0.59375q-0.296875 0 -0.59375 -0.4375q-0.8125 -1.484375 -2.296875 -2.234375q-0.296875 -0.21875 0.15625 -0.21875zm2.0 6.75l-2.96875 0l0 -0.4375l2.75 0l0.4375 -0.59375l1.046875 0.734375q0.4375 0.375 -0.296875 0.515625l0 5.34375q2.078125 2.078125 5.484375 2.078125l8.171875 0q-0.453125 0.15625 -0.890625 0.90625l-6.609375 0q-3.859375 0 -6.609375 -2.6875l-1.859375 1.71875q0.15625 1.1875 -0.59375 0.375l-0.65625 -0.828125l2.59375 -1.5625l0 -5.5625zm17.953125 7.5l0 1.265625q-0.953125 0.890625 -0.953125 0.078125l0 -15.453125l1.109375 0.75l12.6875 0l0.515625 -0.671875l1.1875 0.8125q0.59375 0.453125 -0.515625 0.59375l0 13.59375q-0.96875 0.890625 -0.96875 0.078125l0 -1.046875l-13.0625 0zm0 -12.921875l0 12.46875l13.0625 0l0 -12.46875l-13.0625 0zm3.859375 3.859375l0 4.3125l4.90625 0l0 -4.3125l-4.90625 0zm0.15625 -0.4375l4.53125 0l0.515625 -0.671875l1.1875 0.8125q0.59375 0.453125 -0.515625 0.59375l0 5.203125q-0.96875 0.890625 -0.96875 0.078125l0 -0.828125l-4.90625 0l0 1.34375q-0.953125 0.890625 -0.953125 0.078125l0 -7.28125l1.109375 0.671875zm19.8125 -4.75q0.8125 0.515625 -0.96875 0.515625q-0.59375 1.265625 -1.109375 2.078125l10.3125 0l0.53125 -0.671875l1.1875 0.828125q0.59375 0.4375 -0.53125 0.59375l0 7.640625q0 3.046875 -0.734375 4.015625q-0.453125 0.65625 -1.640625 1.03125q-0.8125 0.21875 -0.8125 -0.375q0 -0.359375 -0.4375 -0.515625l-1.5625 -0.4375q-0.296875 -0.234375 0.078125 -0.3125l1.546875 0.15625q0.53125 0.078125 0.96875 0.078125q0.8125 0 1.1875 -0.671875q0.453125 -0.671875 0.453125 -3.125l0 -7.78125l-10.765625 0q-2.375 3.703125 -4.234375 5.1875q-0.515625 0.296875 -0.21875 -0.21875q3.5625 -4.3125 4.890625 -8.765625l1.859375 0.75zm-1.5625 12.609375q-0.953125 0.890625 -0.953125 0.078125l0 -7.265625l1.109375 0.4375l3.859375 0l0.4375 -0.59375l1.046875 0.75q0.4375 0.359375 -0.296875 0.515625l0 5.421875q-0.96875 0.890625 -0.96875 0.0625l0 -0.65625l-4.234375 0l0 1.25zm4.234375 -1.703125l0 -4.59375l-4.234375 0l0 4.59375l4.234375 0zm18.625 3.125q0 0.890625 -0.515625 1.328125q-0.4375 0.375 -0.890625 0.453125q-0.4375 0.078125 -0.4375 -0.453125q0 -0.359375 -0.375 -0.515625l-1.1875 -0.21875q-0.375 -0.15625 0 -0.296875l1.78125 0q0.671875 0 0.671875 -0.671875l0 -5.640625l-8.09375 0l0 -0.453125l8.09375 0l0 -3.109375l0.890625 0.4375l2.734375 -3.484375l-9.046875 0l0 -0.4375l8.90625 0l0.734375 -0.75l1.640625 1.34375q0.296875 0.4375 -0.21875 0.359375q-0.890625 -0.0625 -1.34375 0.375l-3.34375 3.046875l0 2.21875l5.203125 0l1.109375 -1.109375l1.40625 1.046875q0.453125 0.359375 0 0.515625l-7.71875 0l0 6.015625zm17.296875 -11.0625l7.125 0l0.453125 -0.59375l1.03125 0.734375q0.453125 0.375 -0.296875 0.53125l0 10.53125q0 0.890625 -0.59375 1.421875q-0.4375 0.359375 -0.8125 0.359375q-0.453125 0 -0.453125 -0.515625q0 -0.375 -0.515625 -0.515625l-1.109375 -0.15625q-0.375 -0.140625 0 -0.296875l1.859375 0q0.65625 0 0.65625 -0.671875l0 -10.390625l-12.3125 0l0 12.1875q-0.96875 0.890625 -0.96875 0.0625l0 -13.5l1.109375 0.8125l4.234375 0l0.890625 -3.421875l1.34375 0.453125q0.734375 0.296875 -0.53125 0.671875l-1.109375 2.296875zm4.53125 3.40625q0.4375 0.375 -0.296875 0.53125l0 5.046875q-0.96875 0.890625 -0.96875 0.0625l0 -0.953125l-4.15625 0l0 1.625q-0.96875 0.890625 -0.96875 0.078125l0 -7.28125l1.125 0.75l3.78125 0l0.4375 -0.59375l1.046875 0.734375zm-1.265625 0.296875l-4.15625 0l0 3.9375l4.15625 0l0 -3.9375zm17.59375 6.234375l4.453125 0l0.96875 -0.953125l1.1875 0.890625q0.4375 0.359375 0 0.515625l-6.609375 0l0 1.5625l5.71875 0l0.953125 -0.96875l1.1875 0.890625q0.453125 0.375 0 0.515625l-16.390625 0l0 -0.4375l7.5625 0l0 -1.5625l-6.375 0l0 -0.453125l6.375 0l0 -1.328125l-3.859375 0l0 0.296875q-0.96875 0.890625 -0.96875 0.078125l0 -5.34375l1.125 0.59375l8.15625 0l0.453125 -0.59375l1.03125 0.734375q0.515625 0.375 -0.296875 0.515625l0 3.859375q-0.96875 0.890625 -0.96875 0.078125l0 -0.21875l-3.703125 0l0 1.328125zm3.703125 -3.78125l0 -1.484375l-3.703125 0l0 1.484375l3.703125 0zm-8.53125 0l3.859375 0l0 -1.484375l-3.859375 0l0 1.484375zm0 2.0l3.859375 0l0 -1.546875l-3.859375 0l0 1.546875zm4.828125 0l3.703125 0l0 -1.546875l-3.703125 0l0 1.546875zm3.1875 -8.75l-7.421875 0l0 1.328125l7.421875 0l0 -1.328125zm-7.421875 -0.453125l7.421875 0l0 -1.40625l-7.421875 0l0 1.40625zm-0.96875 -2.4375l1.125 0.59375l7.046875 0l0.4375 -0.59375l1.046875 0.734375q0.515625 0.375 -0.296875 0.515625l0 3.859375q-0.96875 0.890625 -0.96875 0.078125l0 -0.515625l-7.421875 0l0 0.59375q-0.96875 0.890625 -0.96875 0.078125l0 -5.34375zm-3.625 6.15625l14.46875 0l1.109375 -1.109375l1.40625 1.03125q0.453125 0.375 0 0.515625l-16.984375 0l0 -0.4375z" fill-rule="nonzero"/><path fill="#000000" fill-opacity="0.0" d="m459.92673 147.00423l83.92282 0l0 157.92125l207.98267 0" fill-rule="evenodd"/><path stroke="#595959" stroke-width="2.0" stroke-linejoin="round" stroke-linecap="butt" d="m459.92673 147.00423l83.92282 0l0 157.92125l195.98273 0" fill-rule="evenodd"/><path fill="#595959" stroke="#595959" stroke-width="2.0" stroke-linecap="butt" d="m739.8323 308.22894l9.076172 -3.3034668l-9.076172 -3.3034668z" fill-rule="evenodd"/><path fill="#000000" fill-opacity="0.0" d="m598.52954 269.999l236.50397 0l0 105.35431l-236.50397 0z" fill-rule="evenodd"/><path fill="#0000ff" d="m618.8108 289.63773q-0.59375 -0.59375 -1.40625 -0.59375q-1.265625 0 -2.453125 1.1875q-0.4375 0.453125 -0.4375 1.1875q0 2.609375 0.953125 3.5625q0.59375 0.59375 1.484375 0.59375q0.96875 0 1.640625 -0.65625q0.8125 -0.828125 0.8125 -2.90625q0 -1.78125 -0.59375 -2.375zm0.96875 -0.140625q0.8125 0.8125 0.8125 2.59375q0 1.9375 -0.96875 2.890625q-1.03125 1.046875 -2.59375 1.046875q-1.40625 0 -2.375 -0.96875q-1.328125 -1.328125 -1.328125 -4.15625q0 -3.859375 1.703125 -5.5625q1.1875 -1.1875 2.515625 -1.1875q1.265625 0 2.078125 0.8125q0.53125 0.515625 0.53125 1.1875q0 0.75 -0.59375 0.75q-0.671875 0 -0.671875 -0.59375q0 -0.234375 0 -0.53125q0 -1.1875 -1.40625 -1.1875q-0.75 0 -1.421875 0.671875q-1.625 1.640625 -1.546875 4.96875q1.40625 -1.625 2.8125 -1.625q1.5625 0 2.453125 0.890625zm5.34375 0.59375q0 -3.484375 -2.296875 -5.796875q-2.3125 -2.296875 -5.796875 -2.296875q-3.484375 0 -5.78125 2.296875q-2.3125 2.3125 -2.3125 5.796875q0 3.484375 2.3125 5.78125q2.296875 2.3125 5.78125 2.3125q3.484375 0 5.796875 -2.3125q2.296875 -2.296875 2.296875 -5.78125zm0.59375 0q0 3.78125 -2.453125 6.234375q-2.453125 2.453125 -6.234375 2.453125q-3.78125 0 -6.234375 -2.453125q-2.453125 -2.453125 -2.453125 -6.234375q0 -3.78125 2.453125 -6.234375q2.453125 -2.453125 6.234375 -2.453125q3.78125 0 6.234375 2.453125q2.453125 2.453125 2.453125 6.234375z" fill-rule="nonzero"/><path fill="#0000ff" d="m629.23267 283.96585q0.390625 0 0.65625 0.265625q0.265625 0.265625 0.265625 0.65625q0 0.375 -0.265625 0.65625q-0.265625 0.265625 -0.65625 0.265625q-0.375 0 -0.65625 -0.265625q-0.265625 -0.28125 -0.265625 -0.65625q0 -0.390625 0.265625 -0.65625q0.265625 -0.265625 0.65625 -0.265625zm0.765625 4.359375l0 6.703125q0 0.78125 0.109375 1.046875q0.109375 0.265625 0.328125 0.390625q0.234375 0.125 0.828125 0.125l0 0.328125l-4.0625 0l0 -0.328125q0.609375 0 0.8125 -0.109375q0.21875 -0.125 0.34375 -0.390625q0.125 -0.28125 0.125 -1.0625l0 -3.203125q0 -1.359375 -0.078125 -1.765625q-0.078125 -0.296875 -0.21875 -0.40625q-0.125 -0.109375 -0.359375 -0.109375q-0.265625 0 -0.625 0.140625l-0.125 -0.328125l2.515625 -1.03125l0.40625 0zm4.7302246 1.765625q1.46875 -1.765625 2.796875 -1.765625q0.6875 0 1.171875 0.34375q0.5 0.34375 0.78125 1.125q0.203125 0.546875 0.203125 1.671875l0 3.5625q0 0.796875 0.125 1.078125q0.109375 0.234375 0.328125 0.359375q0.21875 0.125 0.828125 0.125l0 0.328125l-4.125 0l0 -0.328125l0.171875 0q0.578125 0 0.8125 -0.171875q0.234375 -0.1875 0.328125 -0.53125q0.03125 -0.140625 0.03125 -0.859375l0 -3.40625q0 -1.140625 -0.296875 -1.65625q-0.296875 -0.515625 -1.0 -0.515625q-1.078125 0 -2.15625 1.1875l0 4.390625q0 0.859375 0.09375 1.046875q0.140625 0.265625 0.359375 0.390625q0.21875 0.125 0.90625 0.125l0 0.328125l-4.125 0l0 -0.328125l0.171875 0q0.640625 0 0.859375 -0.3125q0.234375 -0.328125 0.234375 -1.25l0 -3.09375q0 -1.5 -0.078125 -1.828125q-0.0625 -0.328125 -0.203125 -0.4375q-0.140625 -0.125 -0.375 -0.125q-0.265625 0 -0.609375 0.140625l-0.140625 -0.328125l2.515625 -1.03125l0.390625 0l0 1.765625zm12.28125 -1.765625l0 2.84375l-0.296875 0q-0.34375 -1.34375 -0.890625 -1.8125q-0.53125 -0.484375 -1.375 -0.484375q-0.640625 0 -1.03125 0.34375q-0.390625 0.328125 -0.390625 0.734375q0 0.515625 0.296875 0.875q0.28125 0.375 1.140625 0.796875l1.328125 0.640625q1.859375 0.90625 1.859375 2.375q0 1.140625 -0.875 1.84375q-0.859375 0.6875 -1.921875 0.6875q-0.765625 0 -1.75 -0.265625q-0.296875 -0.09375 -0.484375 -0.09375q-0.21875 0 -0.328125 0.234375l-0.296875 0l0 -2.96875l0.296875 0q0.25 1.265625 0.96875 1.921875q0.71875 0.640625 1.609375 0.640625q0.640625 0 1.03125 -0.359375q0.390625 -0.375 0.390625 -0.90625q0 -0.625 -0.4375 -1.046875q-0.4375 -0.4375 -1.765625 -1.09375q-1.3125 -0.65625 -1.71875 -1.171875q-0.421875 -0.53125 -0.421875 -1.3125q0 -1.03125 0.703125 -1.71875q0.71875 -0.703125 1.828125 -0.703125q0.5 0 1.203125 0.21875q0.453125 0.125 0.609375 0.125q0.15625 0 0.234375 -0.0625q0.078125 -0.0625 0.1875 -0.28125l0.296875 0zm3.275879 3.390625q0 1.859375 0.90625 2.921875q0.90625 1.046875 2.140625 1.046875q0.8125 0 1.421875 -0.4375q0.609375 -0.453125 1.015625 -1.546875l0.28125 0.171875q-0.1875 1.25 -1.109375 2.28125q-0.921875 1.015625 -2.296875 1.015625q-1.515625 0 -2.59375 -1.171875q-1.0625 -1.171875 -1.0625 -3.140625q0 -2.140625 1.09375 -3.328125q1.109375 -1.203125 2.765625 -1.203125q1.40625 0 2.296875 0.921875q0.90625 0.921875 0.90625 2.46875l-5.765625 0zm0 -0.53125l3.859375 0q-0.046875 -0.796875 -0.1875 -1.125q-0.234375 -0.515625 -0.6875 -0.796875q-0.4375 -0.296875 -0.9375 -0.296875q-0.75 0 -1.34375 0.59375q-0.59375 0.578125 -0.703125 1.625zm9.327393 -2.859375l0 1.875q1.046875 -1.875 2.140625 -1.875q0.5 0 0.828125 0.3125q0.328125 0.296875 0.328125 0.703125q0 0.359375 -0.234375 0.609375q-0.234375 0.234375 -0.5625 0.234375q-0.328125 0 -0.71875 -0.3125q-0.390625 -0.3125 -0.578125 -0.3125q-0.171875 0 -0.359375 0.1875q-0.40625 0.359375 -0.84375 1.21875l0 4.0q0 0.703125 0.171875 1.046875q0.109375 0.25 0.40625 0.421875q0.3125 0.15625 0.875 0.15625l0 0.328125l-4.28125 0l0 -0.328125q0.640625 0 0.953125 -0.203125q0.234375 -0.140625 0.3125 -0.46875q0.046875 -0.140625 0.046875 -0.875l0 -3.234375q0 -1.453125 -0.0625 -1.734375q-0.046875 -0.28125 -0.21875 -0.40625q-0.15625 -0.125 -0.390625 -0.125q-0.28125 0 -0.640625 0.140625l-0.078125 -0.328125l2.515625 -1.03125l0.390625 0zm6.1814575 -2.5l0 2.75l1.953125 0l0 0.640625l-1.953125 0l0 5.40625q0 0.8125 0.234375 1.09375q0.234375 0.28125 0.59375 0.28125q0.3125 0 0.59375 -0.1875q0.28125 -0.1875 0.4375 -0.546875l0.34375 0q-0.3125 0.890625 -0.90625 1.34375q-0.578125 0.453125 -1.1875 0.453125q-0.421875 0 -0.828125 -0.234375q-0.390625 -0.234375 -0.59375 -0.65625q-0.1875 -0.4375 -0.1875 -1.34375l0 -5.609375l-1.3125 0l0 -0.296875q0.5 -0.203125 1.015625 -0.6875q0.53125 -0.484375 0.9375 -1.125q0.203125 -0.359375 0.578125 -1.28125l0.28125 0z" fill-rule="nonzero"/><path fill="#000000" fill-opacity="0.0" d="m493.53302 147.0224l0 322.58267l258.2992 0" fill-rule="evenodd"/><path stroke="#595959" stroke-width="2.0" stroke-linejoin="round" stroke-linecap="butt" d="m493.53302 147.02238l0 322.5827l246.29926 0" fill-rule="evenodd"/><path fill="#595959" stroke="#595959" stroke-width="2.0" stroke-linecap="butt" d="m739.8323 472.90854l9.076172 -3.3034668l-9.076172 -3.3034668z" fill-rule="evenodd"/><path fill="#000000" fill-opacity="0.0" d="m547.156 429.98303l236.5039 0l0 105.35431l-236.5039 0z" fill-rule="evenodd"/><path fill="#0000ff" d="m564.3279 445.4655q-1.125 0 -1.78125 2.375l-0.453125 0l0.59375 -3.40625l6.90625 0l0 0.296875q-1.703125 2.59375 -2.671875 5.046875q-0.890625 2.21875 -0.890625 5.640625q0 0.59375 -0.59375 0.59375q-0.671875 0 -0.671875 -0.890625q0 -2.15625 0.671875 -3.859375q0.96875 -2.375 3.1875 -5.796875l-4.296875 0zm7.125 -1.1875q-2.3125 -2.296875 -5.796875 -2.296875q-3.484375 0 -5.78125 2.296875q-2.3125 2.3125 -2.3125 5.796875q0 3.484375 2.3125 5.78125q2.296875 2.3125 5.78125 2.3125q3.484375 0 5.796875 -2.3125q2.296875 -2.296875 2.296875 -5.78125q0 -3.484375 -2.296875 -5.796875zm0.4375 -0.4375q2.453125 2.453125 2.453125 6.234375q0 3.78125 -2.453125 6.234375q-2.453125 2.453125 -6.234375 2.453125q-3.78125 0 -6.234375 -2.453125q-2.453125 -2.453125 -2.453125 -6.234375q0 -3.78125 2.453125 -6.234375q2.453125 -2.453125 6.234375 -2.453125q3.78125 0 6.234375 2.453125z" fill-rule="nonzero"/><path fill="#0000ff" d="m591.55444 451.2624q2.8125 3.1875 6.453125 4.59375q-0.8125 0.375 -1.265625 1.046875q-3.109375 -1.9375 -5.34375 -5.34375l0 6.453125q-0.96875 0.890625 -0.96875 0.078125l0 -6.3125q-2.8125 3.421875 -5.859375 5.046875q-0.4375 0.15625 -0.21875 -0.21875q3.109375 -2.296875 5.125 -5.34375l-4.53125 0l0 -0.453125l5.484375 0l0 -3.109375l-2.140625 0l0 0.734375q-0.96875 0.890625 -0.96875 0.078125l0 -6.15625l1.109375 0.59375l5.265625 0l0.453125 -0.59375l1.03125 0.734375q0.453125 0.375 -0.296875 0.53125l0 4.296875q-0.953125 0.890625 -0.953125 0.078125l0 -0.296875l-2.53125 0l0 3.109375l3.9375 0l1.109375 -1.109375l1.40625 1.046875q0.453125 0.359375 0 0.515625l-6.296875 0zm-11.28125 -0.75q2.671875 -3.625 3.859375 -8.671875l1.546875 0.65625q0.296875 0.375 -0.59375 0.53125q-0.65625 1.78125 -1.484375 3.265625l0.890625 0.296875q0.53125 0.296875 -0.734375 0.65625l0 10.765625q-0.96875 0.890625 -0.96875 0.078125l0 -10.3125q-1.03125 1.625 -2.296875 2.96875q-0.375 0.140625 -0.21875 -0.234375zm13.65625 -7.125l-5.640625 0l0 3.859375l5.640625 0l0 -3.859375zm12.765625 1.5625q-1.125 2.234375 -2.375 3.859375l0 9.5q-0.96875 0.890625 -0.96875 0.078125l0 -8.390625q-1.9375 2.15625 -3.421875 3.125q-0.359375 0.0625 -0.140625 -0.296875q1.859375 -1.71875 3.5625 -4.15625l0 -1.421875l0.734375 0.375q0.75 -1.109375 1.484375 -2.671875l-5.265625 0l0 -0.4375l5.421875 0q0.671875 -1.5625 1.109375 -3.203125l1.40625 0.671875q0.96875 0.59375 -0.515625 0.59375q-0.4375 1.109375 -0.890625 1.9375l7.421875 0l1.109375 -1.125l1.421875 1.046875q0.4375 0.375 0 0.515625l-10.09375 0zm4.75 4.75l1.328125 -1.859375l-6.015625 0l0 -0.4375l5.875 0l0.59375 -0.59375l1.625 1.1875q0.59375 0.59375 -0.8125 0.375l-2.59375 1.78125l0 1.84375l3.328125 0l0.96875 -0.953125l1.1875 0.890625q0.453125 0.359375 0 0.515625l-5.484375 0l0 4.296875q0 0.90625 -0.53125 1.34375q-0.4375 0.375 -0.890625 0.453125q-0.4375 0.0625 -0.4375 -0.375q0 -0.375 -0.375 -0.515625l-1.265625 -0.296875q-0.359375 -0.15625 0 -0.296875l1.859375 0q0.671875 0 0.671875 -0.671875l0 -3.9375l-4.75 0l0 -0.453125l4.75 0l0 -2.59375l0.96875 0.296875zm10.09375 8.546875q-0.375 0 -0.078125 -0.375q6.078125 -2.015625 7.203125 -6.984375l-5.046875 0l0 3.5625q-0.96875 0.890625 -0.96875 0.078125l0 -0.8125l-2.296875 0l0 1.78125q-0.96875 0.890625 -0.96875 0.0625l0 -12.171875l1.109375 0.671875l1.9375 0l0.4375 -0.59375l1.046875 0.75q0.4375 0.359375 -0.296875 0.515625l0 5.71875l2.078125 0l0 -5.640625l1.109375 0.515625l2.21875 0l0 -3.265625l1.265625 0.21875q0.59375 0.375 -0.296875 0.515625l0 2.53125l2.15625 0l0.4375 -0.59375l1.046875 0.734375q0.4375 0.375 -0.296875 0.53125l0 4.453125l0.59375 0l0.96875 -0.96875l1.1875 0.890625q0.4375 0.375 0 0.515625l-5.9375 0q1.625 4.375 6.0 5.859375q-0.953125 0.078125 -1.328125 1.046875q-3.9375 -2.296875 -5.203125 -6.828125q-1.1875 5.484375 -8.078125 7.28125zm7.484375 -12.484375l-2.375 0l0 4.6875l2.078125 0q0.296875 -1.5625 0.296875 -3.640625l0 -1.046875zm3.34375 4.6875l0 -4.6875l-2.375 0l0 1.125q0 1.703125 -0.296875 3.5625l2.671875 0zm-12.015625 -1.421875l0 4.234375l2.296875 0l0 -4.234375l-2.296875 0zm0 -4.515625l0 4.078125l2.296875 0l0 -4.078125l-2.296875 0zm17.0625 12.609375q3.421875 -1.859375 6.015625 -5.34375l-4.453125 0.75q-0.21875 1.03125 -0.671875 0.296875l-0.59375 -1.125l1.859375 0l0 -8.53125l1.109375 0.59375l0.8125 0l0.375 -2.515625l1.109375 0.296875q1.046875 0.4375 -0.296875 0.65625l-0.734375 1.5625l1.625 0l0.453125 -0.59375l1.03125 0.75q0.453125 0.359375 -0.296875 0.515625l0 2.453125l6.3125 0l0 -4.984375l1.265625 0.234375q0.59375 0.359375 -0.296875 0.515625l0 4.234375l0.671875 0l0.953125 -0.96875l1.1875 0.890625q0.453125 0.375 0 0.515625l-2.8125 0l0 9.359375q0 0.8125 -0.515625 1.265625q-0.296875 0.296875 -0.75 0.296875q-0.296875 0 -0.296875 -0.296875q0 -0.375 -0.4375 -0.53125l-0.96875 -0.21875q-0.296875 -0.140625 0 -0.296875l1.484375 0q0.515625 0 0.515625 -0.515625l0 -9.0625l-6.3125 0l0 2.671875l1.046875 -1.859375l0.890625 0.828125q0.671875 0.59375 -0.453125 0.359375l-1.484375 2.015625l0 5.265625q0 0.8125 -0.515625 1.265625q-0.296875 0.296875 -0.734375 0.296875q-0.296875 0 -0.296875 -0.296875q0 -0.375 -0.453125 -0.515625l-0.96875 -0.234375q-0.296875 -0.140625 0 -0.296875l1.484375 0q0.53125 0 0.53125 -0.515625l0 -3.640625q-2.828125 3.34375 -6.09375 4.6875q-0.4375 0.140625 -0.296875 -0.234375zm11.796875 -4.078125q-0.296875 0 -0.515625 -0.375q-0.515625 -1.484375 -1.78125 -2.453125q-0.21875 -0.296875 0.15625 -0.21875q2.671875 1.109375 2.671875 2.453125q0 0.59375 -0.53125 0.59375zm-8.671875 -1.484375l3.265625 -0.296875l0 -2.296875l-3.265625 0l0 2.59375zm0 -7.34375l0 1.921875l3.265625 0l0 -1.921875l-3.265625 0zm3.265625 4.296875l0 -1.921875l-3.265625 0l0 1.921875l3.265625 0z" fill-rule="nonzero"/></g></svg>