<svg id="SvgjsSvg1006" width="625" height="380" xmlns="http://www.w3.org/2000/svg" version="1.1" xmlns:xlink="http://www.w3.org/1999/xlink" xmlns:svgjs="http://svgjs.com/svgjs"><defs id="SvgjsDefs1007"></defs><g id="SvgjsG1008" transform="translate(25,26)"><path id="SvgjsPath1009" d="M 0 0L 575 0L 575 287L 0 287Z" stroke="rgba(50,50,50,1)" stroke-width="2" fill-opacity="1" fill="#cfcfcf"></path><g id="SvgjsG1010"><text id="SvgjsText1011" font-family="微软雅黑" text-anchor="middle" font-size="13px" width="555px" fill="#323232" font-weight="400" align="middle" anchor="middle" family="微软雅黑" size="13px" weight="400" font-style="" opacity="1" y="133.55" transform="rotate(0)"></text></g></g><g id="SvgjsG1012" transform="translate(214,319)"><path id="SvgjsPath1013" d="M 0 0L 197 0L 197 36L 0 36Z" stroke="none" fill="none"></path><g id="SvgjsG1014"><text id="SvgjsText1015" font-family="微软雅黑" text-anchor="middle" font-size="23px" width="197px" fill="#323232" font-weight="700" align="middle" anchor="middle" family="微软雅黑" size="23px" weight="700" font-style="" opacity="1" y="-1.9499999999999997" transform="rotate(0)"><tspan id="SvgjsTspan1016" dy="28" x="98.5"><tspan id="SvgjsTspan1017" style="text-decoration:;">MIlvus 结构</tspan></tspan></text></g></g><g id="SvgjsG1018" transform="translate(61,65)"><path id="SvgjsPath1019" d="M 0 4Q 0 0 4 0L 124 0Q 128 0 128 4L 128 196Q 128 200 124 200L 4 200Q 0 200 0 196Z" stroke="rgba(50,50,50,1)" stroke-width="2" fill-opacity="1" fill="#66b2ff"></path><g id="SvgjsG1020"><text id="SvgjsText1021" font-family="微软雅黑" text-anchor="middle" font-size="13px" width="108px" fill="#323232" font-weight="400" align="middle" anchor="middle" family="微软雅黑" size="13px" weight="400" font-style="" opacity="1" y="90.05" transform="rotate(0)"></text></g></g><g id="SvgjsG1022" transform="translate(229,65)"><path id="SvgjsPath1023" d="M 0 4Q 0 0 4 0L 124 0Q 128 0 128 4L 128 196Q 128 200 124 200L 4 200Q 0 200 0 196Z" stroke="rgba(50,50,50,1)" stroke-width="2" fill-opacity="1" fill="#ffffff"></path><g id="SvgjsG1024"><text id="SvgjsText1025" font-family="微软雅黑" text-anchor="middle" font-size="13px" width="108px" fill="#323232" font-weight="400" align="middle" anchor="middle" family="微软雅黑" size="13px" weight="400" font-style="" opacity="1" y="90.05" transform="rotate(0)"></text></g></g><g id="SvgjsG1026" transform="translate(400,65)"><path id="SvgjsPath1027" d="M 0 4Q 0 0 4 0L 124 0Q 128 0 128 4L 128 196Q 128 200 124 200L 4 200Q 0 200 0 196Z" stroke="rgba(50,50,50,1)" stroke-width="2" fill-opacity="1" fill="#ffffff"></path><g id="SvgjsG1028"><text id="SvgjsText1029" font-family="微软雅黑" text-anchor="middle" font-size="13px" width="108px" fill="#323232" font-weight="400" align="middle" anchor="middle" family="微软雅黑" size="13px" weight="400" font-style="" opacity="1" y="90.05" transform="rotate(0)"></text></g></g><g id="SvgjsG1030" transform="translate(61,259)"><path id="SvgjsPath1031" d="M 0 0L 120 0L 120 40L 0 40Z" stroke="none" fill="none"></path><g id="SvgjsG1032"><text id="SvgjsText1033" font-family="微软雅黑" text-anchor="middle" font-size="15px" width="120px" fill="#323232" font-weight="700" align="middle" anchor="middle" family="微软雅黑" size="15px" weight="700" font-style="" opacity="1" y="8.25" transform="rotate(0)"><tspan id="SvgjsTspan1034" dy="18" x="60"><tspan id="SvgjsTspan1035" style="text-decoration:;">模型 A</tspan></tspan></text></g></g><g id="SvgjsG1036" transform="translate(233,259)"><path id="SvgjsPath1037" d="M 0 0L 120 0L 120 40L 0 40Z" stroke="none" fill="none"></path><g id="SvgjsG1038"><text id="SvgjsText1039" font-family="微软雅黑" text-anchor="middle" font-size="15px" width="120px" fill="#323232" font-weight="700" align="middle" anchor="middle" family="微软雅黑" size="15px" weight="700" font-style="" opacity="1" y="8.25" transform="rotate(0)"><tspan id="SvgjsTspan1040" dy="18" x="60"><tspan id="SvgjsTspan1041" style="text-decoration:;">模型 B</tspan></tspan></text></g></g><g id="SvgjsG1042" transform="translate(404,259)"><path id="SvgjsPath1043" d="M 0 0L 120 0L 120 40L 0 40Z" stroke="none" fill="none"></path><g id="SvgjsG1044"><text id="SvgjsText1045" font-family="微软雅黑" text-anchor="middle" font-size="15px" width="120px" fill="#323232" font-weight="700" align="middle" anchor="middle" family="微软雅黑" size="15px" weight="700" font-style="" opacity="1" y="8.25" transform="rotate(0)"><tspan id="SvgjsTspan1046" dy="18" x="60"><tspan id="SvgjsTspan1047" style="text-decoration:;">模型 C</tspan></tspan></text></g></g><g id="SvgjsG1048" transform="translate(61,25)"><path id="SvgjsPath1049" d="M 0 0L 120 0L 120 40L 0 40Z" stroke="none" fill="none"></path><g id="SvgjsG1050"><text id="SvgjsText1051" font-family="楷体" text-anchor="middle" font-size="18px" width="120px" fill="#007fff" font-weight="400" align="middle" anchor="middle" family="楷体" size="18px" weight="400" font-style="" opacity="1" y="5.800000000000001" transform="rotate(0)"><tspan id="SvgjsTspan1052" dy="22" x="60"><tspan id="SvgjsTspan1053" style="text-decoration:;">集合</tspan></tspan></text></g></g><g id="SvgjsG1054" transform="translate(75,87)"><path id="SvgjsPath1055" d="M 0 4Q 0 0 4 0L 96 0Q 100 0 100 4L 100 66Q 100 70 96 70L 4 70Q 0 70 0 66Z" stroke="rgba(50,50,50,1)" stroke-width="2" fill-opacity="1" fill="#ffe6cc"></path><g id="SvgjsG1056"><text id="SvgjsText1057" font-family="楷体" text-anchor="middle" font-size="16px" width="80px" fill="#323232" font-weight="400" align="middle" anchor="middle" family="楷体" size="16px" weight="400" font-style="" opacity="1" y="12.6" transform="rotate(0)"><tspan id="SvgjsTspan1058" dy="20" x="50"><tspan id="SvgjsTspan1059" style="text-decoration:;">cuishou </tspan></tspan><tspan id="SvgjsTspan1060" dy="20" x="50"><tspan id="SvgjsTspan1061" style="text-decoration:;">分区</tspan></tspan></text></g></g><g id="SvgjsG1062" transform="translate(243,87)"><path id="SvgjsPath1063" d="M 0 4Q 0 0 4 0L 96 0Q 100 0 100 4L 100 66Q 100 70 96 70L 4 70Q 0 70 0 66Z" stroke="rgba(50,50,50,1)" stroke-width="2" fill-opacity="1" fill="#ffffff"></path><g id="SvgjsG1064"><text id="SvgjsText1065" font-family="楷体" text-anchor="middle" font-size="16px" width="80px" fill="#323232" font-weight="400" align="middle" anchor="middle" family="楷体" size="16px" weight="400" font-style="" opacity="1" y="12.6" transform="rotate(0)"><tspan id="SvgjsTspan1066" dy="20" x="50"><tspan id="SvgjsTspan1067" style="text-decoration:;">cuishou </tspan></tspan><tspan id="SvgjsTspan1068" dy="20" x="50"><tspan id="SvgjsTspan1069" style="text-decoration:;">分区</tspan></tspan></text></g></g><g id="SvgjsG1070" transform="translate(414,89.5)"><path id="SvgjsPath1071" d="M 0 4Q 0 0 4 0L 96 0Q 100 0 100 4L 100 66Q 100 70 96 70L 4 70Q 0 70 0 66Z" stroke="rgba(50,50,50,1)" stroke-width="2" fill-opacity="1" fill="#ffffff"></path><g id="SvgjsG1072"><text id="SvgjsText1073" font-family="楷体" text-anchor="middle" font-size="16px" width="80px" fill="#323232" font-weight="400" align="middle" anchor="middle" family="楷体" size="16px" weight="400" font-style="" opacity="1" y="12.6" transform="rotate(0)"><tspan id="SvgjsTspan1074" dy="20" x="50"><tspan id="SvgjsTspan1075" style="text-decoration:;">cuishou </tspan></tspan><tspan id="SvgjsTspan1076" dy="20" x="50"><tspan id="SvgjsTspan1077" style="text-decoration:;">分区</tspan></tspan></text></g></g></svg>