<svg id="SvgjsSvg1006" width="682" height="404" xmlns="http://www.w3.org/2000/svg" version="1.1" xmlns:xlink="http://www.w3.org/1999/xlink" xmlns:svgjs="http://svgjs.com/svgjs"><defs id="SvgjsDefs1007"><marker id="SvgjsMarker1028" markerWidth="16" markerHeight="12" refX="0" refY="6" viewBox="0 0 16 12" orient="auto" markerUnits="userSpaceOnUse" stroke-dasharray="0,0"><path id="SvgjsPath1029" d="M15,1.5 L2,6 L15,10.5" fill="#323232" stroke="#323232" stroke-width="2"></path></marker><marker id="SvgjsMarker1036" markerWidth="16" markerHeight="12" refX="0" refY="6" viewBox="0 0 16 12" orient="auto" markerUnits="userSpaceOnUse" stroke-dasharray="0,0"><path id="SvgjsPath1037" d="M15,1.5 L2,6 L15,10.5" fill="#323232" stroke="#323232" stroke-width="2"></path></marker><marker id="SvgjsMarker1038" markerWidth="16" markerHeight="12" refX="16" refY="6" viewBox="0 0 16 12" orient="auto" markerUnits="userSpaceOnUse" stroke-dasharray="0,0"><path id="SvgjsPath1039" d="M0,2 L14,6 L0,11 L0,2" fill="#323232" stroke="#323232" stroke-width="2"></path></marker><marker id="SvgjsMarker1048" markerWidth="16" markerHeight="12" refX="0" refY="6" viewBox="0 0 16 12" orient="auto" markerUnits="userSpaceOnUse" stroke-dasharray="0,0"><path id="SvgjsPath1049" d="M15,1.5 L2,6 L15,10.5" fill="#323232" stroke="#323232" stroke-width="2"></path></marker><marker id="SvgjsMarker1050" markerWidth="16" markerHeight="12" refX="16" refY="6" viewBox="0 0 16 12" orient="auto" markerUnits="userSpaceOnUse" stroke-dasharray="0,0"><path id="SvgjsPath1051" d="M0,2 L14,6 L0,11 L0,2" fill="#323232" stroke="#323232" stroke-width="2"></path></marker><marker id="SvgjsMarker1060" markerWidth="16" markerHeight="12" refX="0" refY="6" viewBox="0 0 16 12" orient="auto" markerUnits="userSpaceOnUse" stroke-dasharray="0,0"><path id="SvgjsPath1061" d="M15,1.5 L2,6 L15,10.5" fill="#323232" stroke="#323232" stroke-width="2"></path></marker><marker id="SvgjsMarker1062" markerWidth="16" markerHeight="12" refX="16" refY="6" viewBox="0 0 16 12" orient="auto" markerUnits="userSpaceOnUse" stroke-dasharray="0,0"><path id="SvgjsPath1063" d="M0,2 L14,6 L0,11 L0,2" fill="#323232" stroke="#323232" stroke-width="2"></path></marker><marker id="SvgjsMarker1078" markerWidth="16" markerHeight="12" refX="16" refY="6" viewBox="0 0 16 12" orient="auto" markerUnits="userSpaceOnUse" stroke-dasharray="0,0"><path id="SvgjsPath1079" d="M0,2 L14,6 L0,11 L0,2" fill="#323232" stroke="#323232" stroke-width="2"></path></marker><marker id="SvgjsMarker1092" markerWidth="16" markerHeight="12" refX="16" refY="6" viewBox="0 0 16 12" orient="auto" markerUnits="userSpaceOnUse" stroke-dasharray="0,0"><path id="SvgjsPath1093" d="M0,2 L14,6 L0,11 L0,2" fill="#323232" stroke="#323232" stroke-width="2"></path></marker><marker id="SvgjsMarker1100" markerWidth="16" markerHeight="12" refX="16" refY="6" viewBox="0 0 16 12" orient="auto" markerUnits="userSpaceOnUse" stroke-dasharray="0,0"><path id="SvgjsPath1101" d="M0,2 L14,6 L0,11 L0,2" fill="#323232" stroke="#323232" stroke-width="2"></path></marker></defs><g id="SvgjsG1008" transform="translate(25,151)"><path id="SvgjsPath1009" d="M 0 4Q 0 0 4 0L 96 0Q 100 0 100 4L 100 66Q 100 70 96 70L 4 70Q 0 70 0 66Z" stroke="rgba(50,50,50,1)" stroke-width="2" fill-opacity="1" fill="#ffffff"></path><g id="SvgjsG1010"><text id="SvgjsText1011" font-family="微软雅黑" text-anchor="middle" font-size="13px" width="80px" fill="#323232" font-weight="400" align="middle" anchor="middle" family="微软雅黑" size="13px" weight="400" font-style="" opacity="1" y="25.05" transform="rotate(0)"><tspan id="SvgjsTspan1012" dy="16" x="50"><tspan id="SvgjsTspan1013" style="text-decoration:;">后端</tspan></tspan></text></g></g><g id="SvgjsG1014" transform="translate(345,155)"><path id="SvgjsPath1015" d="M 0 4Q 0 0 4 0L 96 0Q 100 0 100 4L 100 66Q 100 70 96 70L 4 70Q 0 70 0 66Z" stroke="rgba(50,50,50,1)" stroke-width="2" fill-opacity="1" fill="#ffffff"></path><g id="SvgjsG1016"><text id="SvgjsText1017" font-family="微软雅黑" text-anchor="middle" font-size="13px" width="80px" fill="#323232" font-weight="400" align="middle" anchor="middle" family="微软雅黑" size="13px" weight="400" font-style="" opacity="1" y="25.05" transform="rotate(0)"><tspan id="SvgjsTspan1018" dy="16" x="50"><tspan id="SvgjsTspan1019" style="text-decoration:;">Match</tspan></tspan></text></g></g><g id="SvgjsG1020" transform="translate(557,48)"><path id="SvgjsPath1021" d="M 0 4Q 0 0 4 0L 96 0Q 100 0 100 4L 100 66Q 100 70 96 70L 4 70Q 0 70 0 66Z" stroke="rgba(50,50,50,1)" stroke-width="2" fill-opacity="1" fill="#ffffff"></path><g id="SvgjsG1022"><text id="SvgjsText1023" font-family="微软雅黑" text-anchor="middle" font-size="13px" width="80px" fill="#323232" font-weight="400" align="middle" anchor="middle" family="微软雅黑" size="13px" weight="400" font-style="" opacity="1" y="25.05" transform="rotate(0)"><tspan id="SvgjsTspan1024" dy="16" x="50"><tspan id="SvgjsTspan1025" style="text-decoration:;">模型</tspan></tspan></text></g></g><g id="SvgjsG1026"><path id="SvgjsPath1027" d="M395 155L395 90L395 90L395 25" stroke="#323232" stroke-width="2" fill="none" marker-start="url(#SvgjsMarker1028)"></path><rect id="SvgjsRect1030" width="65" height="16" x="362.5" y="82" fill="#ffffff"></rect><text id="SvgjsText1031" font-family="微软雅黑" text-anchor="middle" font-size="13px" width="65px" fill="#323232" font-weight="400" align="top" anchor="middle" family="微软雅黑" size="13px" weight="400" font-style="" opacity="1" y="80.05" transform="rotate(0)"><tspan id="SvgjsTspan1032" dy="16" x="395"><tspan id="SvgjsTspan1033" style="text-decoration:;">①模型上线</tspan></tspan></text></g><g id="SvgjsG1034"><path id="SvgjsPath1035" d="M345 190L235 190L235 186L125 186" stroke="#323232" stroke-width="2" fill="none" marker-start="url(#SvgjsMarker1036)" marker-end="url(#SvgjsMarker1038)"></path><rect id="SvgjsRect1040" width="135" height="32" x="167.5" y="172" fill="#ffffff"></rect><text id="SvgjsText1041" font-family="微软雅黑" text-anchor="middle" font-size="13px" width="135px" fill="#323232" font-weight="400" align="top" anchor="middle" family="微软雅黑" size="13px" weight="400" font-style="" opacity="1" y="170.05" transform="rotate(0)"><tspan id="SvgjsTspan1042" dy="16" x="235"><tspan id="SvgjsTspan1043" style="text-decoration:;">② 查询上线的 sid 列表</tspan></tspan><tspan id="SvgjsTspan1044" dy="16" x="235"><tspan id="SvgjsTspan1045" style="text-decoration:;">③ 返回上线的 sid 列表</tspan></tspan></text></g><g id="SvgjsG1046"><path id="SvgjsPath1047" d="M395 225L395 255L75 255L75 221" stroke="#323232" stroke-width="2" fill="none" marker-start="url(#SvgjsMarker1048)" marker-end="url(#SvgjsMarker1050)"></path><rect id="SvgjsRect1052" width="69" height="32" x="198.5" y="239" fill="#ffffff"></rect><text id="SvgjsText1053" font-family="微软雅黑" text-anchor="middle" font-size="13px" width="69px" fill="#323232" font-weight="400" align="top" anchor="middle" family="微软雅黑" size="13px" weight="400" font-style="" opacity="1" y="237.05" transform="rotate(0)"><tspan id="SvgjsTspan1054" dy="16" x="233"><tspan id="SvgjsTspan1055" style="text-decoration:;">④ 取数据</tspan></tspan><tspan id="SvgjsTspan1056" dy="16" x="233"><tspan id="SvgjsTspan1057" style="text-decoration:;">⑤ 返回数据</tspan></tspan></text></g><g id="SvgjsG1058"><path id="SvgjsPath1059" d="M445 190L557 83" stroke="#323232" stroke-width="2" fill="none" marker-start="url(#SvgjsMarker1060)" marker-end="url(#SvgjsMarker1062)"></path><rect id="SvgjsRect1064" width="95" height="32" x="453.5" y="120.5" fill="#ffffff"></rect><text id="SvgjsText1065" font-family="微软雅黑" text-anchor="middle" font-size="13px" width="95px" fill="#323232" font-weight="400" align="top" anchor="middle" family="微软雅黑" size="13px" weight="400" font-style="" opacity="1" y="118.55" transform="rotate(0)"><tspan id="SvgjsTspan1066" dy="16" x="501"><tspan id="SvgjsTspan1067" style="text-decoration:;">⑥ 计算句子向量</tspan></tspan><tspan id="SvgjsTspan1068" dy="16" x="501"><tspan id="SvgjsTspan1069" style="text-decoration:;">⑦ 返回句子向量</tspan></tspan></text></g><g id="SvgjsG1070" transform="translate(557,190)"><path id="SvgjsPath1071" d="M 0 4Q 0 0 4 0L 96 0Q 100 0 100 4L 100 66Q 100 70 96 70L 4 70Q 0 70 0 66Z" stroke="rgba(50,50,50,1)" stroke-width="2" fill-opacity="1" fill="#ffffff"></path><g id="SvgjsG1072"><text id="SvgjsText1073" font-family="微软雅黑" text-anchor="middle" font-size="13px" width="80px" fill="#323232" font-weight="400" align="middle" anchor="middle" family="微软雅黑" size="13px" weight="400" font-style="" opacity="1" y="25.05" transform="rotate(0)"><tspan id="SvgjsTspan1074" dy="16" x="50"><tspan id="SvgjsTspan1075" style="text-decoration:;">Milvus</tspan></tspan></text></g></g><g id="SvgjsG1076"><path id="SvgjsPath1077" d="M445 190L557 225" stroke="#323232" stroke-width="2" fill="none" marker-end="url(#SvgjsMarker1078)"></path><rect id="SvgjsRect1080" width="51" height="16" x="475.5" y="199.5" fill="#ffffff"></rect><text id="SvgjsText1081" font-family="微软雅黑" text-anchor="middle" font-size="13px" width="51px" fill="#323232" font-weight="400" align="top" anchor="middle" family="微软雅黑" size="13px" weight="400" font-style="" opacity="1" y="197.55" transform="rotate(0)"><tspan id="SvgjsTspan1082" dy="16" x="501"><tspan id="SvgjsTspan1083" style="text-decoration:;">⑧ Insert</tspan></tspan></text></g><g id="SvgjsG1084" transform="translate(557,309)"><path id="SvgjsPath1085" d="M 0 4Q 0 0 4 0L 96 0Q 100 0 100 4L 100 66Q 100 70 96 70L 4 70Q 0 70 0 66Z" stroke="rgba(50,50,50,1)" stroke-width="2" fill-opacity="1" fill="#ffffff"></path><g id="SvgjsG1086"><text id="SvgjsText1087" font-family="微软雅黑" text-anchor="middle" font-size="13px" width="80px" fill="#323232" font-weight="400" align="middle" anchor="middle" family="微软雅黑" size="13px" weight="400" font-style="" opacity="1" y="25.05" transform="rotate(0)"><tspan id="SvgjsTspan1088" dy="16" x="50"><tspan id="SvgjsTspan1089" style="text-decoration:;">Redis</tspan></tspan></text></g></g><g id="SvgjsG1090"><path id="SvgjsPath1091" d="M445 190L557 344" stroke="#323232" stroke-width="2" fill="none" marker-end="url(#SvgjsMarker1092)"></path><rect id="SvgjsRect1094" width="69" height="16" x="466.5" y="259" fill="#ffffff"></rect><text id="SvgjsText1095" font-family="微软雅黑" text-anchor="middle" font-size="13px" width="69px" fill="#323232" font-weight="400" align="top" anchor="middle" family="微软雅黑" size="13px" weight="400" font-style="" opacity="1" y="257.05" transform="rotate(0)"><tspan id="SvgjsTspan1096" dy="16" x="501"><tspan id="SvgjsTspan1097" style="text-decoration:;">⑨ 保存映射</tspan></tspan></text></g><g id="SvgjsG1098"><path id="SvgjsPath1099" d="M395 155L395 121L75 121L75 151" stroke-dasharray="8,5" stroke="#323232" stroke-width="2" fill="none" marker-end="url(#SvgjsMarker1100)"></path><rect id="SvgjsRect1102" width="108" height="16" x="183" y="113" fill="#ffffff"></rect><text id="SvgjsText1103" font-family="微软雅黑" text-anchor="middle" font-size="13px" width="108px" fill="#323232" font-weight="400" align="top" anchor="middle" family="微软雅黑" size="13px" weight="400" font-style="" opacity="1" y="111.05" transform="rotate(0)"><tspan id="SvgjsTspan1104" dy="16" x="237"><tspan id="SvgjsTspan1105" style="text-decoration:;">⑩ 检查是否有变化</tspan></tspan></text></g></svg>