<svg id="SvgjsSvg1006" width="696.5" height="576" xmlns="http://www.w3.org/2000/svg" version="1.1" xmlns:xlink="http://www.w3.org/1999/xlink" xmlns:svgjs="http://svgjs.com/svgjs"><defs id="SvgjsDefs1007"><marker id="SvgjsMarker1038" markerWidth="16" markerHeight="12" refX="0" refY="6" viewBox="0 0 16 12" orient="auto" markerUnits="userSpaceOnUse" stroke-dasharray="0,0"><path id="SvgjsPath1039" d="M15,1.5 L2,6 L15,10.5" fill="#323232" stroke="#323232" stroke-width="2"></path></marker><marker id="SvgjsMarker1040" markerWidth="16" markerHeight="12" refX="16" refY="6" viewBox="0 0 16 12" orient="auto" markerUnits="userSpaceOnUse" stroke-dasharray="0,0"><path id="SvgjsPath1041" d="M0,2 L14,6 L0,11 L0,2" fill="#323232" stroke="#323232" stroke-width="2"></path></marker><marker id="SvgjsMarker1050" markerWidth="16" markerHeight="12" refX="0" refY="6" viewBox="0 0 16 12" orient="auto" markerUnits="userSpaceOnUse" stroke-dasharray="0,0"><path id="SvgjsPath1051" d="M15,1.5 L2,6 L15,10.5" fill="#323232" stroke="#323232" stroke-width="2"></path></marker><marker id="SvgjsMarker1052" markerWidth="16" markerHeight="12" refX="16" refY="6" viewBox="0 0 16 12" orient="auto" markerUnits="userSpaceOnUse" stroke-dasharray="0,0"><path id="SvgjsPath1053" d="M0,2 L14,6 L0,11 L0,2" fill="#323232" stroke="#323232" stroke-width="2"></path></marker><marker id="SvgjsMarker1060" markerWidth="16" markerHeight="12" refX="0" refY="6" viewBox="0 0 16 12" orient="auto" markerUnits="userSpaceOnUse" stroke-dasharray="0,0"><path id="SvgjsPath1061" d="M15,1.5 L2,6 L15,10.5" fill="#323232" stroke="#323232" stroke-width="2"></path></marker><marker id="SvgjsMarker1062" markerWidth="16" markerHeight="12" refX="16" refY="6" viewBox="0 0 16 12" orient="auto" markerUnits="userSpaceOnUse" stroke-dasharray="0,0"><path id="SvgjsPath1063" d="M0,2 L14,6 L0,11 L0,2" fill="#323232" stroke="#323232" stroke-width="2"></path></marker><marker id="SvgjsMarker1070" markerWidth="16" markerHeight="12" refX="0" refY="6" viewBox="0 0 16 12" orient="auto" markerUnits="userSpaceOnUse" stroke-dasharray="0,0"><path id="SvgjsPath1071" d="M15,1.5 L2,6 L15,10.5" fill="#323232" stroke="#323232" stroke-width="2"></path></marker><marker id="SvgjsMarker1072" markerWidth="16" markerHeight="12" refX="16" refY="6" viewBox="0 0 16 12" orient="auto" markerUnits="userSpaceOnUse" stroke-dasharray="0,0"><path id="SvgjsPath1073" d="M0,2 L14,6 L0,11 L0,2" fill="#323232" stroke="#323232" stroke-width="2"></path></marker><marker id="SvgjsMarker1086" markerWidth="16" markerHeight="12" refX="0" refY="6" viewBox="0 0 16 12" orient="auto" markerUnits="userSpaceOnUse" stroke-dasharray="0,0"><path id="SvgjsPath1087" d="M15,1.5 L2,6 L15,10.5" fill="#323232" stroke="#323232" stroke-width="2"></path></marker><marker id="SvgjsMarker1088" markerWidth="16" markerHeight="12" refX="16" refY="6" viewBox="0 0 16 12" orient="auto" markerUnits="userSpaceOnUse" stroke-dasharray="0,0"><path id="SvgjsPath1089" d="M0,2 L14,6 L0,11 L0,2" fill="#323232" stroke="#323232" stroke-width="2"></path></marker></defs><g id="SvgjsG1008" transform="translate(44.5,217)"><path id="SvgjsPath1009" d="M 0 4Q 0 0 4 0L 449 0Q 453 0 453 4L 453 293Q 453 297 449 297L 4 297Q 0 297 0 293Z" stroke-dasharray="3,4" stroke="rgba(115,115,115,1)" stroke-width="2" fill-opacity="1" fill="#ffffff"></path><g id="SvgjsG1010"><text id="SvgjsText1011" font-family="微软雅黑" text-anchor="middle" font-size="13px" width="433px" fill="#323232" font-weight="400" align="middle" anchor="middle" family="微软雅黑" size="13px" weight="400" font-style="" opacity="1" y="138.55" transform="rotate(0)"></text></g></g><g id="SvgjsG1012" transform="translate(79,266.5)"><path id="SvgjsPath1013" d="M 0 4Q 0 0 4 0L 96 0Q 100 0 100 4L 100 66Q 100 70 96 70L 4 70Q 0 70 0 66Z" stroke="rgba(50,50,50,1)" stroke-width="2" fill-opacity="1" fill="#ffffff"></path><g id="SvgjsG1014"><text id="SvgjsText1015" font-family="微软雅黑" text-anchor="middle" font-size="14px" width="80px" fill="#323232" font-weight="700" align="middle" anchor="middle" family="微软雅黑" size="14px" weight="700" font-style="" opacity="1" y="23.9" transform="rotate(0)"><tspan id="SvgjsTspan1016" dy="17" x="50"><tspan id="SvgjsTspan1017" style="text-decoration:;">dialogue</tspan></tspan></text></g></g><g id="SvgjsG1018" transform="translate(315,267)"><path id="SvgjsPath1019" d="M 0 4Q 0 0 4 0L 139 0Q 143 0 143 4L 143 65Q 143 69 139 69L 4 69Q 0 69 0 65Z" stroke="rgba(50,50,50,1)" stroke-width="2" fill-opacity="1" fill="#ffffff"></path><g id="SvgjsG1020"><text id="SvgjsText1021" font-family="微软雅黑" text-anchor="middle" font-size="14px" width="123px" fill="#323232" font-weight="700" align="middle" anchor="middle" family="微软雅黑" size="14px" weight="700" font-style="" opacity="1" y="23.4" transform="rotate(0)"><tspan id="SvgjsTspan1022" dy="17" x="71.5"><tspan id="SvgjsTspan1023" style="text-decoration:;">general_match</tspan></tspan></text></g></g><g id="SvgjsG1024" transform="translate(336.5,425)"><path id="SvgjsPath1025" d="M 0 4Q 0 0 4 0L 96 0Q 100 0 100 4L 100 66Q 100 70 96 70L 4 70Q 0 70 0 66Z" stroke="rgba(50,50,50,1)" stroke-width="2" fill-opacity="1" fill="#ffffff"></path><g id="SvgjsG1026"><text id="SvgjsText1027" font-family="微软雅黑" text-anchor="middle" font-size="14px" width="80px" fill="#323232" font-weight="700" align="middle" anchor="middle" family="微软雅黑" size="14px" weight="700" font-style="" opacity="1" y="23.9" transform="rotate(0)"><tspan id="SvgjsTspan1028" dy="17" x="50"><tspan id="SvgjsTspan1029" style="text-decoration:;">pse</tspan></tspan></text></g></g><g id="SvgjsG1030" transform="translate(225,511)"><path id="SvgjsPath1031" d="M 0 0L 120 0L 120 40L 0 40Z" stroke="none" fill="none"></path><g id="SvgjsG1032"><text id="SvgjsText1033" font-family="微软雅黑" text-anchor="middle" font-size="14px" width="120px" fill="#323232" font-weight="700" align="middle" anchor="middle" family="微软雅黑" size="14px" weight="700" font-style="" opacity="1" y="8.9" transform="rotate(0)"><tspan id="SvgjsTspan1034" dy="17" x="60"><tspan id="SvgjsTspan1035" style="text-decoration:;">引擎三模块</tspan></tspan></text></g></g><g id="SvgjsG1036"><path id="SvgjsPath1037" d="M179 301.5L247 301.5L247 301.5L315 301.5" stroke-dasharray="8,5" stroke="#323232" stroke-width="2" fill="none" marker-start="url(#SvgjsMarker1038)" marker-end="url(#SvgjsMarker1040)"></path><rect id="SvgjsRect1042" width="65" height="32" x="214.5" y="285.5" fill="#ffffff"></rect><text id="SvgjsText1043" font-family="微软雅黑" text-anchor="middle" font-size="13px" width="65px" fill="#323232" font-weight="400" align="top" anchor="middle" family="微软雅黑" size="13px" weight="400" font-style="" opacity="1" y="283.55" transform="rotate(0)"><tspan id="SvgjsTspan1044" dy="16" x="247"><tspan id="SvgjsTspan1045" style="text-decoration:;">意图计算和</tspan></tspan><tspan id="SvgjsTspan1046" dy="16" x="247"><tspan id="SvgjsTspan1047" style="text-decoration:;">词槽获取等</tspan></tspan></text></g><g id="SvgjsG1048"><path id="SvgjsPath1049" d="M386.5 336L386.5 380.5L386.5 380.5L386.5 425" stroke-dasharray="8,5" stroke="#323232" stroke-width="2" fill="none" marker-start="url(#SvgjsMarker1050)" marker-end="url(#SvgjsMarker1052)"></path><rect id="SvgjsRect1054" width="78" height="16" x="347.5" y="372.5" fill="#ffffff"></rect><text id="SvgjsText1055" font-family="微软雅黑" text-anchor="middle" font-size="13px" width="78px" fill="#323232" font-weight="400" align="top" anchor="middle" family="微软雅黑" size="13px" weight="400" font-style="" opacity="1" y="370.55" transform="rotate(0)"><tspan id="SvgjsTspan1056" dy="16" x="386.5"><tspan id="SvgjsTspan1057" style="text-decoration:;">句子向量计算</tspan></tspan></text></g><g id="SvgjsG1058"><path id="SvgjsPath1059" d="M129 266.5L129 184.25L129 184.25L129 102" stroke="#323232" stroke-width="2" fill="none" marker-start="url(#SvgjsMarker1060)" marker-end="url(#SvgjsMarker1062)"></path><rect id="SvgjsRect1064" width="228" height="16" x="15" y="176.25" fill="#ffffff"></rect><text id="SvgjsText1065" font-family="微软雅黑" text-anchor="middle" font-size="13px" width="228px" fill="#323232" font-weight="400" align="top" anchor="middle" family="微软雅黑" size="13px" weight="400" font-style="" opacity="1" y="174.3" transform="rotate(0)"><tspan id="SvgjsTspan1066" dy="16" x="129"><tspan id="SvgjsTspan1067" style="text-decoration:;">对外提供 dialogue，play check 等服务</tspan></tspan></text></g><g id="SvgjsG1068"><path id="SvgjsPath1069" d="M386.5 267L386.5 182.5L386.5 182.5L386.5 98" stroke="#323232" stroke-width="2" fill="none" marker-start="url(#SvgjsMarker1070)" marker-end="url(#SvgjsMarker1072)"></path><rect id="SvgjsRect1074" width="156" height="16" x="308.5" y="174.5" fill="#ffffff"></rect><text id="SvgjsText1075" font-family="微软雅黑" text-anchor="middle" font-size="13px" width="156px" fill="#323232" font-weight="400" align="top" anchor="middle" family="微软雅黑" size="13px" weight="400" font-style="" opacity="1" y="172.55" transform="rotate(0)"><tspan id="SvgjsTspan1076" dy="16" x="386.5"><tspan id="SvgjsTspan1077" style="text-decoration:;">对外提供知识库上下线服务</tspan></tspan></text></g><g id="SvgjsG1078" transform="translate(571.5,266.5)"><path id="SvgjsPath1079" d="M 0 4Q 0 0 4 0L 96 0Q 100 0 100 4L 100 66Q 100 70 96 70L 4 70Q 0 70 0 66Z" stroke-dasharray="10,6" stroke="rgba(50,50,50,1)" stroke-width="2" fill-opacity="1" fill="#ffffff"></path><g id="SvgjsG1080"><text id="SvgjsText1081" font-family="微软雅黑" text-anchor="middle" font-size="14px" width="80px" fill="#323232" font-weight="700" align="middle" anchor="middle" family="微软雅黑" size="14px" weight="700" font-style="" opacity="1" y="23.9" transform="rotate(0)"><tspan id="SvgjsTspan1082" dy="17" x="50"><tspan id="SvgjsTspan1083" style="text-decoration:;">redis</tspan></tspan></text></g></g><g id="SvgjsG1084"><path id="SvgjsPath1085" d="M458 301.5L514.75 301.5L514.75 301.5L571.5 301.5" stroke-dasharray="8,5" stroke="#323232" stroke-width="2" fill="none" marker-start="url(#SvgjsMarker1086)" marker-end="url(#SvgjsMarker1088)"></path></g><g id="SvgjsG1090" transform="translate(81.5,25)"><path id="SvgjsPath1091" d="M 0 4Q 0 0 4 0L 366 0Q 370 0 370 4L 370 61Q 370 65 366 65L 4 65Q 0 65 0 61Z" stroke-dasharray="10,6" stroke="rgba(50,50,50,1)" stroke-width="2" fill-opacity="1" fill="#ffffff"></path><g id="SvgjsG1092"><text id="SvgjsText1093" font-family="微软雅黑" text-anchor="middle" font-size="15px" width="350px" fill="#323232" font-weight="700" align="middle" anchor="middle" family="微软雅黑" size="15px" weight="700" font-style="" opacity="1" y="20.75" transform="rotate(0)"><tspan id="SvgjsTspan1094" dy="18" x="185"><tspan id="SvgjsTspan1095" style="text-decoration:;">后端</tspan></tspan></text></g></g></svg>