<svg version="1.1" viewBox="0.0 0.0 960.0 540.0" fill="none" stroke="none" stroke-linecap="square" stroke-miterlimit="10" xmlns:xlink="http://www.w3.org/1999/xlink" xmlns="http://www.w3.org/2000/svg"><clipPath id="gb223ce30db_0_0.0"><path d="m0 0l960.0 0l0 540.0l-960.0 0l0 -540.0z" clip-rule="nonzero"/></clipPath><g clip-path="url(#gb223ce30db_0_0.0)"><path fill="#ffffff" d="m0 0l960.0 0l0 540.0l-960.0 0z" fill-rule="evenodd"/><defs><linearGradient id="gb223ce30db_0_0.1" gradientUnits="userSpaceOnUse" gradientTransform="matrix(7.544990562511594 0.0 0.0 7.544990562511594 0.0 0.0)" spreadMethod="pad" x1="18.051096602718832" y1="12.112465937998905" x2="18.04816145401217" y2="4.567475946402422"><stop offset="0.0" stop-color="#dbd4eb"/><stop offset="1.0" stop-color="#9180bb"/></linearGradient></defs><path fill="url(#gb223ce30db_0_0.1)" d="m20.519686 43.987064l0 0c0 -5.235935 4.244566 -9.480503 9.480503 -9.480503l96.692535 0c2.5143814 0 4.925789 0.9988365 6.7037277 2.7767754c1.7779388 1.7779388 2.7767792 4.1893425 2.7767792 6.7037277l0 37.92088c0 5.235939 -4.244568 9.480507 -9.480507 9.480507l-96.692535 0l0 0c-5.235937 0 -9.480503 -4.244568 -9.480503 -9.480507z" fill-rule="evenodd"/><path stroke="#595959" stroke-width="1.0" stroke-linejoin="round" stroke-linecap="butt" d="m20.519686 43.987064l0 0c0 -5.235935 4.244566 -9.480503 9.480503 -9.480503l96.692535 0c2.5143814 0 4.925789 0.9988365 6.7037277 2.7767754c1.7779388 1.7779388 2.7767792 4.1893425 2.7767792 6.7037277l0 37.92088c0 5.235939 -4.244568 9.480507 -9.480507 9.480507l-96.692535 0l0 0c-5.235937 0 -9.480503 -4.244568 -9.480503 -9.480507z" fill-rule="evenodd"/><path fill="#000000" d="m75.00271 71.27376l-1.484375 0l0 -0.8125l-6.234375 0l0 1.046875l-1.484375 0l0 -7.953129l9.203125 0l0 7.718754zm-11.125004 -11.359379l13.203129 0l0 1.421875l-13.203129 0l0 3.3281288q0 3.5 -2.234375 6.25l-1.25 -1.203125q2.0 -2.375 2.0 -5.5625l0 -8.312504l1.484375 0.21875q6.609379 -0.21875 10.687504 -1.328125l1.109375 1.625q0.59375 0.671875 -0.8125 0.234375q-6.234375 0.8125 -10.984379 0.890625l0 2.4375zm9.640629 5.046879l-6.234375 0l0 4.09375l6.234375 0l0 -4.09375zm12.40625 2.828125q-2.90625 0.890625 -5.796875 1.5625q-0.078125 0.515625 -0.375 0.21875l-0.296875 -1.78125l3.265625 -0.59375l0.96875 -7.281254l1.5625 0.15625q0.375 0.21875 -0.15625 0.4375l-0.953125 6.390629l1.78125 -0.453125l0 1.34375zm-5.203125 -1.78125q-0.296875 -2.8281288 -0.96875 -5.046879l1.265625 -0.375q0.8125 2.15625 1.046875 4.968754l-1.34375 0.453125zm13.21875 5.5l-0.375 -1.421875l0.59375 0q0.296875 0 0.296875 -0.296875l0 -5.1875l-1.40625 0l0 6.375l-1.265625 0l0 -6.375l-1.265625 0l0 6.375l-1.265625 0l0 -6.375l-1.25 0l0 6.828125l-1.265625 0l0 -8.015629l3.046875 0l0.59375 -1.640625l-4.3125 0l0 -1.1875l10.3125 0l0 1.1875l-4.515625 0l-0.59375 1.640625l4.453125 0l0 7.046879q0 1.046875 -1.046875 1.046875l-0.734375 0zm-8.3125 -12.031254l-6.015625 0l0 -1.40625l2.375 0l0 -3.125l1.40625 0q0.59375 0.078125 0.078125 0.453125l0 2.671875l2.15625 0l0 1.40625zm6.078125 -4.96875q0.59375 0.0625 0.078125 0.4375l0 3.125l2.296875 0l0 -2.75l1.1875 0q0.59375 0.078125 0.078125 0.4375l0 3.5l-8.3125 0l0 -3.9375l1.1875 0q0.59375 0.078125 0.078125 0.4375l0 2.3125l2.21875 0l0 -3.5625l1.1875 0z" fill-rule="nonzero"/><defs><linearGradient id="gb223ce30db_0_0.2" gradientUnits="userSpaceOnUse" gradientTransform="matrix(11.045387911490614 0.0 0.0 11.045387911490614 0.0 0.0)" spreadMethod="pad" x1="33.577511572420306" y1="5.69903339532014" x2="25.767315049333668" y2="-2.1113074670282117"><stop offset="0.0" stop-color="#f64f59"/><stop offset="1.0" stop-color="#de87f1"/></linearGradient></defs><path fill="url(#gb223ce30db_0_0.2)" d="m226.78215 43.987064l0 0c0 -5.235935 4.244568 -9.480503 9.480499 -9.480503l96.69255 0c2.5143738 0 4.9257812 0.9988365 6.703705 2.7767754c1.7779541 1.7779388 2.7767944 4.1893425 2.7767944 6.7037277l0 37.92088c0 5.235939 -4.244568 9.480507 -9.480499 9.480507l-96.69255 0l0 0c-5.2359314 0 -9.480499 -4.244568 -9.480499 -9.480507z" fill-rule="evenodd"/><path stroke="#595959" stroke-width="1.0" stroke-linejoin="round" stroke-linecap="butt" d="m226.78215 43.987064l0 0c0 -5.235935 4.244568 -9.480503 9.480499 -9.480503l96.69255 0c2.5143738 0 4.9257812 0.9988365 6.703705 2.7767754c1.7779541 1.7779388 2.7767944 4.1893425 2.7767944 6.7037277l0 37.92088c0 5.235939 -4.244568 9.480507 -9.480499 9.480507l-96.69255 0l0 0c-5.2359314 0 -9.480499 -4.244568 -9.480499 -9.480507z" fill-rule="evenodd"/><path fill="#000000" d="m260.59772 69.86751l0 -13.359379l2.65625 0l3.15625 9.453129q0.4375 1.328125 0.640625 1.984375q0.234375 -0.734375 0.703125 -2.140625l3.203125 -9.296879l2.375 0l0 13.359379l-1.703125 0l0 -11.171879l-3.875 11.171879l-1.59375 0l-3.859375 -11.375004l0 11.375004l-1.703125 0zm21.697052 -1.1875q-0.921875 0.765625 -1.765625 1.09375q-0.828125 0.3125 -1.796875 0.3125q-1.59375 0 -2.453125 -0.78125q-0.859375 -0.78125 -0.859375 -1.984375q0 -0.71875 0.328125 -1.296875q0.328125 -0.59375 0.84375 -0.9375q0.53125 -0.359375 1.1875 -0.546875q0.46875 -0.125 1.453125 -0.25q1.984375 -0.234375 2.921875 -0.5625038q0.015625 -0.34375 0.015625 -0.421875q0 -1.0 -0.46875 -1.421875q-0.625 -0.546875 -1.875 -0.546875q-1.15625 0 -1.703125 0.40625q-0.546875 0.40625 -0.8125 1.421875l-1.609375 -0.21875q0.21875 -1.015625 0.71875 -1.640625q0.5 -0.640625 1.453125 -0.984375q0.953125 -0.34375 2.1875 -0.34375q1.25 0 2.015625 0.296875q0.78125 0.28125 1.140625 0.734375q0.375 0.4375 0.515625 1.109375q0.078125 0.421875 0.078125 1.515625l0 2.1875038q0 2.28125 0.109375 2.890625q0.109375 0.59375 0.40625 1.15625l-1.703125 0q-0.265625 -0.515625 -0.328125 -1.1875zm-0.140625 -3.671875q-0.890625 0.375 -2.671875 0.625q-1.015625 0.140625 -1.4375 0.328125q-0.421875 0.1875 -0.65625 0.53125q-0.21875 0.34375 -0.21875 0.78125q0 0.65625 0.5 1.09375q0.5 0.4375 1.453125 0.4375q0.9375 0 1.671875 -0.40625q0.75 -0.421875 1.09375 -1.140625q0.265625 -0.5625 0.265625 -1.640625l0 -0.609375zm7.781952 3.390625l0.234375 1.453125q-0.6875 0.140625 -1.234375 0.140625q-0.890625 0 -1.390625 -0.28125q-0.484375 -0.28125 -0.6875 -0.734375q-0.203125 -0.46875 -0.203125 -1.9375l0 -5.578129l-1.203125 0l0 -1.265625l1.203125 0l0 -2.390625l1.625 -0.984375l0 3.375l1.65625 0l0 1.265625l-1.65625 0l0 5.671879q0 0.6875 0.078125 0.890625q0.09375 0.203125 0.28125 0.328125q0.203125 0.109375 0.578125 0.109375q0.265625 0 0.71875 -0.0625zm7.917694 -2.078125l1.609375 0.21875q-0.265625 1.65625 -1.359375 2.609375q-1.078125 0.9375 -2.671875 0.9375q-1.984375 0 -3.1875 -1.296875q-1.203125 -1.296875 -1.203125 -3.71875q0 -1.5781288 0.515625 -2.7500038q0.515625 -1.171875 1.578125 -1.75q1.0625 -0.59375 2.3125 -0.59375q1.578125 0 2.578125 0.796875q1.0 0.796875 1.28125 2.265625l-1.59375 0.234375q-0.234375 -0.96875 -0.8125 -1.453125q-0.578125 -0.5 -1.390625 -0.5q-1.234375 0 -2.015625 0.890625q-0.78125 0.890625 -0.78125 2.8125038q0 1.953125 0.75 2.84375q0.75 0.875 1.953125 0.875q0.96875 0 1.609375 -0.59375q0.65625 -0.59375 0.828125 -1.828125zm3.015625 3.546875l0 -13.359379l1.640625 0l0 4.796875q1.140625 -1.328125 2.890625 -1.328125q1.078125 0 1.859375 0.421875q0.796875 0.421875 1.140625 1.171875q0.34375 0.75 0.34375 2.171875l0 6.125004l-1.640625 0l0 -6.125004q0 -1.234375 -0.53125 -1.796875q-0.53125 -0.5625 -1.515625 -0.5625q-0.71875 0 -1.359375 0.390625q-0.640625 0.375 -0.921875 1.015625q-0.265625 0.640625 -0.265625 1.7812538l0 5.296875l-1.640625 0z" fill-rule="nonzero"/><defs><linearGradient id="gb223ce30db_0_0.3" gradientUnits="userSpaceOnUse" gradientTransform="matrix(11.045387501264683 0.0 0.0 11.045387501264683 0.0 0.0)" spreadMethod="pad" x1="55.374951327471194" y1="5.699031286415369" x2="47.56475451431369" y2="-2.1113087057257145"><stop offset="0.0" stop-color="#e0edba" stop-opacity="0.70980394"/><stop offset="0.16666667" stop-color="#e0e2bf" stop-opacity="0.654902"/><stop offset="0.33333334" stop-color="#e0d6c5" stop-opacity="0.6039216"/><stop offset="0.5" stop-color="#dec7cc" stop-opacity="0.5529412"/><stop offset="0.6666667" stop-color="#dfb7d7" stop-opacity="0.49803922"/><stop offset="0.8333334" stop-color="#dda1e2" stop-opacity="0.44705883"/><stop offset="1.0" stop-color="#de87f1" stop-opacity="0.39607844"/></linearGradient></defs><path fill="url(#gb223ce30db_0_0.3)" d="m467.5433 43.987064l0 0c0 -5.235935 4.244568 -9.480503 9.480499 -9.480503l96.692566 0c2.5143433 0 4.9257812 0.9988365 6.7037354 2.7767754c1.7778931 1.7779388 2.7767334 4.1893425 2.7767334 6.7037277l0 37.92088c0 5.235939 -4.244568 9.480507 -9.480469 9.480507l-96.692566 0l0 0c-5.2359314 0 -9.480499 -4.244568 -9.480499 -9.480507z" fill-rule="evenodd"/><path stroke="#595959" stroke-width="1.0" stroke-linejoin="round" stroke-linecap="butt" d="m467.5433 43.987064l0 0c0 -5.235935 4.244568 -9.480503 9.480499 -9.480503l96.692566 0c2.5143433 0 4.9257812 0.9988365 6.7037354 2.7767754c1.7778931 1.7779388 2.7767334 4.1893425 2.7767334 6.7037277l0 37.92088c0 5.235939 -4.244568 9.480507 -9.480469 9.480507l-96.692566 0l0 0c-5.2359314 0 -9.480499 -4.244568 -9.480499 -9.480507z" fill-rule="evenodd"/><path fill="#000000" d="m512.60443 70.08626q4.671875 -0.890625 5.046875 -2.96875l-4.671875 0l0 -1.1875l4.890625 0l0 -1.1875l-1.625 0l-1.640625 0l0 -5.937504l1.71875 0l0 -1.40625l-2.75 0l0 -1.1875l2.75 0l0 -1.859375l1.1875 0q0.59375 0.078125 0.0625 0.453125l0 1.40625l2.234375 0l0 -1.78125l1.1875 0q0.59375 0.078125 0.078125 0.4375l0 1.34375l2.890625 0l0 1.1875l-2.890625 0l0 1.40625l1.78125 0l0 5.937504l-3.5 0l0 1.1875l5.046875 0l0 1.1875l-4.75 0q0.96875 2.0 5.046875 2.828125l-0.65625 1.5625q-3.5625 -0.96875 -5.28125 -3.5q-1.1875 2.609375 -5.484375 3.5l-0.671875 -1.421875zm-1.1874695 -12.171879l2.3749695 0l0 1.40625l-2.3749695 0l0 1.9375q1.1093445 0.734375 2.5312195 2.515625l-1.046875 1.3437538q-0.671875 -1.046875 -1.4843445 -2.2343788l0 8.687504l-1.484375 0l0 -7.859379q-0.890625 2.0781288 -1.78125 3.1875038l-1.109375 -1.1875q2.515625 -3.6406288 2.890625 -6.390629l-2.453125 0l0 -1.40625l2.453125 0l0 -3.5625l1.40625 0q0.59375 0.078125 0.078125 0.453125l0 3.109375zm4.4530945 2.078125l0 1.1875l5.71875 0l0 -1.1875l-5.71875 0zm0 2.375l0 1.1875l5.71875 0l0 -1.1875l-5.71875 0zm3.9375 -4.96875l-2.234375 0l0 1.40625l2.234375 0l0 -1.40625zm15.734375 6.906254q0.59375 0.0625 0.078125 0.4375l0 1.109375l5.34375 0l0 1.421875l-5.34375 0l0 2.296875l7.34375 0l0 1.40625l-15.953125 0l0 -1.40625l7.125 0l0 -2.296875l-5.203125 0l0 -1.421875l5.203125 0l0 -1.546875l1.40625 0zm-5.859375 -4.093754l-2.828125 0l0 -1.1875l2.828125 0l0 -2.671875l-2.15625 0l0 -1.1875l8.453125 0l0 1.1875l-1.921875 0l0 2.671875l2.453125 0l0 1.1875l-2.453125 0l0 3.9375038l-1.265625 0l0 -3.9375038l-1.859375 0l0 0.59375q0 3.125 -3.703125 4.453129l-0.59375 -1.4062538q3.046875 -0.890625 3.046875 -3.1875l0 -0.453125zm12.46875 -5.265625q0.59375 0.078125 0.0625 0.453125l0 7.71875q0 1.1875038 -1.1875 1.1875038l-1.484375 0l-0.21875 -1.4218788l1.109375 0q0.296875 0 0.296875 -0.296875l0 -7.640625l1.421875 0zm-9.359375 4.078125l0 -2.671875l-1.859375 0l0 2.671875l1.859375 0zm5.9375 -2.8125q0.59375 0.078125 0.078125 0.4375l0 5.5l-1.484375 0l0 -5.9375l1.40625 0z" fill-rule="nonzero"/><defs><linearGradient id="gb223ce30db_0_0.4" gradientUnits="userSpaceOnUse" gradientTransform="matrix(10.754233738722933 0.0 0.0 10.754233738722933 0.0 0.0)" spreadMethod="pad" x1="43.475278522459845" y1="19.070558054422456" x2="54.22951226118278" y2="19.070558054422456"><stop offset="0.0" stop-color="#00ffff"/><stop offset="1.0" stop-color="#b0daf1"/></linearGradient></defs><path fill="url(#gb223ce30db_0_0.4)" d="m467.5433 157.68785l0 0c0 -5.2359314 4.244568 -9.480499 9.480499 -9.480499l96.692566 0c2.5143433 0 4.9257812 0.99884033 6.7037354 2.7767792c1.7778931 1.7779388 2.7767334 4.189331 2.7767334 6.70372l0 37.920883c0 5.2359314 -4.244568 9.480499 -9.480469 9.480499l-96.692566 0l0 0c-5.2359314 0 -9.480499 -4.244568 -9.480499 -9.480499z" fill-rule="evenodd"/><path stroke="#595959" stroke-width="1.0" stroke-linejoin="round" stroke-linecap="butt" d="m467.5433 157.68785l0 0c0 -5.2359314 4.244568 -9.480499 9.480499 -9.480499l96.692566 0c2.5143433 0 4.9257812 0.99884033 6.7037354 2.7767792c1.7778931 1.7779388 2.7767334 4.189331 2.7767334 6.70372l0 37.920883c0 5.2359314 -4.244568 9.480499 -9.480469 9.480499l-96.692566 0l0 0c-5.2359314 0 -9.480499 -4.244568 -9.480499 -9.480499z" fill-rule="evenodd"/><path fill="#000000" d="m500.3295 183.5683l0 -13.359375l2.65625 0l3.15625 9.453125q0.4375 1.328125 0.640625 1.984375q0.234375 -0.734375 0.703125 -2.140625l3.203125 -9.296875l2.3749695 0l0 13.359375l-1.7030945 0l0 -11.171875l-3.875 11.171875l-1.59375 0l-3.859375 -11.375l0 11.375l-1.703125 0zm15.384552 -11.46875l0 -1.890625l1.640625 0l0 1.890625l-1.640625 0zm0 11.46875l0 -9.671875l1.640625 0l0 9.671875l-1.640625 0zm4.0979614 0l0 -13.359375l1.640625 0l0 13.359375l-1.640625 0zm6.8791504 0l-3.6875 -9.671875l1.734375 0l2.078125 5.796875q0.328125 0.9375 0.625 1.9375q0.203125 -0.765625 0.609375 -1.828125l2.140625 -5.90625l1.6875 0l-3.65625 9.671875l-1.53125 0zm12.96875 0l0 -1.421875q-1.125 1.640625 -3.0625 1.640625q-0.859375 0 -1.609375 -0.328125q-0.734375 -0.328125 -1.09375 -0.828125q-0.359375 -0.5 -0.5 -1.21875q-0.109375 -0.46875 -0.109375 -1.53125l0 -5.984375l1.640625 0l0 5.359375q0 1.28125 0.109375 1.734375q0.15625 0.640625 0.65625 1.015625q0.5 0.375 1.234375 0.375q0.734375 0 1.375 -0.375q0.65625 -0.390625 0.921875 -1.03125q0.265625 -0.65625 0.265625 -1.890625l0 -5.1875l1.640625 0l0 9.671875l-1.46875 0zm3.3913574 -2.890625l1.625 -0.25q0.125 0.96875 0.75 1.5q0.625 0.515625 1.75 0.515625q1.125 0 1.671875 -0.453125q0.546875 -0.46875 0.546875 -1.09375q0 -0.546875 -0.484375 -0.875q-0.328125 -0.21875 -1.671875 -0.546875q-1.8125 -0.46875 -2.515625 -0.796875q-0.6875 -0.328125 -1.046875 -0.90625q-0.359375 -0.59375 -0.359375 -1.3125q0 -0.640625 0.296875 -1.1875q0.296875 -0.5625 0.8125 -0.921875q0.375 -0.28125 1.03125 -0.46875q0.671875 -0.203125 1.421875 -0.203125q1.140625 0 2.0 0.328125q0.859375 0.328125 1.265625 0.890625q0.421875 0.5625 0.578125 1.5l-1.609375 0.21875q-0.109375 -0.75 -0.640625 -1.171875q-0.515625 -0.421875 -1.46875 -0.421875q-1.140625 0 -1.625 0.375q-0.46875 0.375 -0.46875 0.875q0 0.3125 0.1875 0.578125q0.203125 0.265625 0.640625 0.4375q0.234375 0.09375 1.4375 0.421875q1.75 0.453125 2.4375 0.75q0.6875 0.296875 1.078125 0.859375q0.390625 0.5625 0.390625 1.40625q0 0.828125 -0.484375 1.546875q-0.46875 0.71875 -1.375 1.125q-0.90625 0.390625 -2.046875 0.390625q-1.875 0 -2.875 -0.78125q-0.984375 -0.78125 -1.25 -2.328125z" fill-rule="nonzero"/><defs><linearGradient id="gb223ce30db_0_0.5" gradientUnits="userSpaceOnUse" gradientTransform="matrix(10.754233738722933 0.0 0.0 10.754233738722933 0.0 0.0)" spreadMethod="pad" x1="43.475278522459845" y1="27.338314547999484" x2="54.22951226118278" y2="27.338314547999484"><stop offset="0.0" stop-color="#00ffff"/><stop offset="0.8" stop-color="#228ad5"/><stop offset="1.0" stop-color="#225ad5"/></linearGradient></defs><path fill="url(#gb223ce30db_0_0.5)" d="m467.5433 246.60124l0 0c0 -5.2359467 4.244568 -9.480515 9.480499 -9.480515l96.692566 0c2.5143433 0 4.9257812 0.99884033 6.7037354 2.7767792c1.7778931 1.7779388 2.7767334 4.1893463 2.7767334 6.7037354l0 37.920883c0 5.2359314 -4.244568 9.480499 -9.480469 9.480499l-96.692566 0l0 0c-5.2359314 0 -9.480499 -4.244568 -9.480499 -9.480499z" fill-rule="evenodd"/><path stroke="#595959" stroke-width="1.0" stroke-linejoin="round" stroke-linecap="butt" d="m467.5433 246.60124l0 0c0 -5.2359467 4.244568 -9.480515 9.480499 -9.480515l96.692566 0c2.5143433 0 4.9257812 0.99884033 6.7037354 2.7767792c1.7778931 1.7779388 2.7767334 4.1893463 2.7767334 6.7037354l0 37.920883c0 5.2359314 -4.244568 9.480499 -9.480469 9.480499l-96.692566 0l0 0c-5.2359314 0 -9.480499 -4.244568 -9.480499 -9.480499z" fill-rule="evenodd"/><path fill="#000000" d="m502.99017 272.4817l0 -13.359375l5.921875 0q1.78125 0 2.703125 0.359375q0.9375 0.359375 1.484375 1.28125q0.5625 0.90625 0.5625 2.015625q0 1.40625 -0.921875 2.390625q-0.921875 0.96875 -2.84375 1.234375q0.703125 0.34375 1.078125 0.671875q0.765625 0.703125 1.453125 1.765625l2.328125 3.640625l-2.21875 0l-1.765625 -2.78125q-0.78125 -1.203125 -1.28125 -1.828125q-0.5 -0.640625 -0.90625 -0.890625q-0.390625 -0.265625 -0.796875 -0.359375q-0.296875 -0.078125 -0.984375 -0.078125l-2.046875 0l0 5.9375l-1.765625 0zm1.765625 -7.453125l3.796875 0q1.21875 0 1.890625 -0.25q0.6875 -0.265625 1.046875 -0.8125q0.359375 -0.546875 0.359375 -1.1875q0 -0.953125 -0.6875 -1.5625q-0.6875 -0.609375 -2.1875 -0.609375l-4.21875 0l0 4.421875zm18.097961 4.34375l1.6875 0.203125q-0.40625 1.484375 -1.484375 2.3125q-1.078125 0.8125 -2.765625 0.8125q-2.125 0 -3.375 -1.296875q-1.234375 -1.3125 -1.234375 -3.671875q0 -2.453125 1.25 -3.796875q1.265625 -1.34375 3.265625 -1.34375q1.9375 0 3.15625 1.328125q1.234375 1.3125 1.234375 3.703125q0 0.15625 0 0.4375l-7.21875 0q0.09375 1.59375 0.90625 2.453125q0.8125 0.84375 2.015625 0.84375q0.90625 0 1.546875 -0.46875q0.640625 -0.484375 1.015625 -1.515625zm-5.390625 -2.65625l5.40625 0q-0.109375 -1.21875 -0.625 -1.828125q-0.78125 -0.953125 -2.03125 -0.953125q-1.125 0 -1.90625 0.765625q-0.765625 0.75 -0.84375 2.015625zm15.406921 5.765625l0 -1.21875q-0.90625 1.4375 -2.703125 1.4375q-1.15625 0 -2.125 -0.640625q-0.96875 -0.640625 -1.5 -1.78125q-0.53125 -1.140625 -0.53125 -2.625q0 -1.453125 0.484375 -2.625q0.484375 -1.1875 1.4375 -1.8125q0.96875 -0.625 2.171875 -0.625q0.875 0 1.546875 0.375q0.6875 0.359375 1.109375 0.953125l0 -4.796875l1.640625 0l0 13.359375l-1.53125 0zm-5.171875 -4.828125q0 1.859375 0.78125 2.78125q0.78125 0.921875 1.84375 0.921875q1.078125 0 1.828125 -0.875q0.75 -0.890625 0.75 -2.6875q0 -1.984375 -0.765625 -2.90625q-0.765625 -0.9375 -1.890625 -0.9375q-1.078125 0 -1.8125 0.890625q-0.734375 0.890625 -0.734375 2.8125zm9.281982 -6.640625l0 -1.890625l1.640625 0l0 1.890625l-1.640625 0zm0 11.46875l0 -9.671875l1.640625 0l0 9.671875l-1.640625 0zm3.4885864 -2.890625l1.625 -0.25q0.125 0.96875 0.75 1.5q0.625 0.515625 1.75 0.515625q1.125 0 1.671875 -0.453125q0.546875 -0.46875 0.546875 -1.09375q0 -0.546875 -0.484375 -0.875q-0.328125 -0.21875 -1.671875 -0.546875q-1.8125 -0.46875 -2.515625 -0.796875q-0.6875 -0.328125 -1.046875 -0.90625q-0.359375 -0.59375 -0.359375 -1.3125q0 -0.640625 0.296875 -1.1875q0.296875 -0.5625 0.8125 -0.921875q0.375 -0.28125 1.03125 -0.46875q0.671875 -0.203125 1.421875 -0.203125q1.140625 0 2.0 0.328125q0.859375 0.328125 1.265625 0.890625q0.421875 0.5625 0.578125 1.5l-1.609375 0.21875q-0.109375 -0.75 -0.640625 -1.171875q-0.515625 -0.421875 -1.46875 -0.421875q-1.140625 0 -1.625 0.375q-0.46875 0.375 -0.46875 0.875q0 0.3125 0.1875 0.578125q0.203125 0.265625 0.640625 0.4375q0.234375 0.09375 1.4375 0.421875q1.75 0.453125 2.4375 0.75q0.6875 0.296875 1.078125 0.859375q0.390625 0.5625 0.390625 1.40625q0 0.828125 -0.484375 1.546875q-0.46875 0.71875 -1.375 1.125q-0.90625 0.390625 -2.046875 0.390625q-1.875 0 -2.875 -0.78125q-0.984375 -0.78125 -1.25 -2.328125z" fill-rule="nonzero"/><path fill="#000000" fill-opacity="0.0" d="m136.17323 62.947506l90.61417 0" fill-rule="evenodd"/><path stroke="#595959" stroke-width="1.0" stroke-linejoin="round" stroke-linecap="butt" d="m136.17323 62.947506l84.61417 0" fill-rule="evenodd"/><path fill="#595959" stroke="#595959" stroke-width="1.0" stroke-linecap="butt" d="m220.7874 64.599236l4.538101 -1.6517296l-4.538101 -1.6517334z" fill-rule="evenodd"/><path fill="#000000" fill-opacity="0.0" d="m130.58005 34.50656l144.56693 0l0 56.88189l-144.56693 0z" fill-rule="evenodd"/><path fill="#0000ff" d="m147.6113 55.711563q0 0.578125 0.578125 0.578125l0.890625 0l0 0.359375l-3.875 0l0 -0.359375l0.875 0q0.59375 0 0.59375 -0.578125l0 -6.96875q0 -0.65625 -0.59375 -0.65625l-0.875 0l0 -0.34375q1.8125 0.0625 2.40625 -0.40625l0 8.375zm5.859375 -3.515625q0 -2.75 -1.8125 -4.578125q-1.828125 -1.8125 -4.578125 -1.8125q-2.75 0 -4.5625 1.8125q-1.828125 1.828125 -1.828125 4.578125q0 2.75 1.828125 4.5625q1.8125 1.828125 4.5625 1.828125q2.75 0 4.578125 -1.828125q1.8125 -1.8125 1.8125 -4.5625zm0.46875 0q0 2.984375 -1.9375 4.921875q-1.9375 1.9375 -4.921875 1.9375q-2.984375 0 -4.921875 -1.9375q-1.9375 -1.9375 -1.9375 -4.921875q0 -2.984375 1.9375 -4.921875q1.9375 -1.9375 4.921875 -1.9375q2.984375 0 4.921875 1.9375q1.9375 1.9375 1.9375 4.921875zm8.140625 5.15625l4.6875 0l0.875 -0.875l1.125 0.8125q0.34375 0.296875 0 0.421875l-13.125 0l0 -0.359375l5.5625 0l0 -11.609375l1.171875 0.1875q0.640625 0.234375 -0.296875 0.46875l0 4.6875l3.453125 0l0.890625 -0.890625l1.109375 0.828125q0.34375 0.296875 0 0.40625l-5.453125 0l0 5.921875z" fill-rule="nonzero"/><path fill="#0000ff" d="m178.72067 49.617813q0 0.8125 0.125 2.171875l2.75 -0.296875l0.765625 -0.875l1.171875 0.984375l-4.640625 0.46875q0.1875 1.828125 0.59375 2.875q1.28125 -1.171875 2.046875 -2.453125l1.0625 1.046875l-0.53125 0.0625q-1.109375 1.046875 -2.234375 2.109375q1.0625 1.46875 2.46875 2.046875l0.8125 -2.8125l0.234375 0.0625q-0.109375 1.34375 -0.140625 2.234375q-0.03125 0.875 0.234375 1.375q0.265625 0.5 -0.4375 0.375q-0.703125 -0.109375 -1.734375 -0.734375q-1.015625 -0.609375 -2.078125 -1.96875q-1.046875 0.703125 -2.140625 1.1875q-1.078125 0.46875 -2.71875 0.9375l-0.0625 -0.234375q2.515625 -0.953125 4.515625 -2.59375q-0.53125 -1.578125 -0.703125 -3.390625l-2.40625 0.296875l-0.46875 0.234375l-0.640625 -0.46875l3.453125 -0.359375q-0.0625 -0.8125 -0.109375 -2.21875l-1.703125 0.109375l-0.359375 0.234375l-0.515625 -0.46875l2.578125 -0.171875q-0.0625 -2.046875 -0.125 -4.109375l1.34375 0.65625l-0.46875 0.40625q0 1.234375 0.0625 2.984375l2.515625 -0.234375l0.765625 -0.875l1.171875 1.046875l-4.453125 0.359375zm0.875 -3.34375l0.0625 -0.171875q1.8125 0.46875 2.046875 0.90625q0.234375 0.4375 0 1.0q-0.234375 0.546875 -0.609375 -0.125q-0.375 -0.671875 -1.5 -1.609375zm-6.4375 -0.765625l1.171875 0.765625q-0.46875 0.171875 -1.0 1.203125q-0.53125 1.03125 -1.9375 2.953125l2.40625 -0.234375q0.703125 -1.171875 1.109375 -2.34375l1.0625 0.765625q-0.40625 0.234375 -1.40625 1.703125q-1.0 1.46875 -2.578125 3.515625q0.8125 -0.125 3.625 -0.640625l0 0.234375q-1.578125 0.40625 -2.453125 0.734375q-0.875 0.3125 -1.765625 0.90625l-0.703125 -1.234375q0.65625 -0.171875 1.5 -1.25q0.84375 -1.09375 1.5 -2.15625q-0.65625 0.125 -1.359375 0.328125q-0.703125 0.203125 -1.28125 0.734375l-0.640625 -1.109375q0.640625 -0.125 1.484375 -1.671875q0.859375 -1.5625 1.265625 -3.203125zm-2.8125 11.203125q1.640625 -0.234375 2.625 -0.40625q1.0 -0.1875 3.234375 -0.65625l0.0625 0.234375q-2.640625 0.765625 -3.84375 1.203125q-1.203125 0.4375 -1.5 0.734375l-0.578125 -1.109375z" fill-rule="nonzero"/><path fill="#0000ff" d="m188.68942 47.41469l-3.515625 10.375l-0.578125 0l3.515625 -10.375l0.578125 0z" fill-rule="nonzero"/><path fill="#0000ff" d="m192.6989 52.367813l3.109375 0l0 -1.640625l-3.109375 0l0 1.640625zm3.109375 -3.625l-3.109375 0l0 1.640625l3.109375 0l0 -1.640625zm0 6.84375q2.390625 1.703125 6.96875 2.0q-0.828125 0.59375 -0.9375 1.0q-4.109375 -0.640625 -6.390625 -2.53125q-1.703125 2.0 -5.5 2.59375q-0.296875 0 -0.0625 -0.234375q3.578125 -0.890625 5.09375 -2.765625q-0.9375 -0.875 -1.703125 -2.046875l0.421875 -0.296875q0.515625 0.9375 1.515625 1.875q0.46875 -0.875 0.59375 -2.453125l-3.109375 0l0 0.984375q-0.765625 0.703125 -0.765625 0.0625l0 -5.921875l0.875 0.53125l3.0 0l0 -1.515625l-6.046875 0l0 -0.359375l10.96875 0l0.75 -0.765625l0.9375 0.703125q0.359375 0.296875 0 0.421875l-5.859375 0l0 1.515625l2.9375 0l0.40625 -0.53125l0.9375 0.65625q0.46875 0.34375 -0.40625 0.46875l0 4.453125q-0.765625 0.703125 -0.765625 0.046875l0 -0.75l-3.109375 0q-0.109375 1.8125 -0.75 2.859375zm3.859375 -4.859375l-3.109375 0l0 1.640625l3.109375 0l0 -1.640625zm0 -1.984375l-3.109375 0l0 1.640625l3.109375 0l0 -1.640625zm6.390625 -0.46875q-0.171875 -0.234375 0.109375 -0.1875q1.125 0.828125 1.125 1.53125q0 0.640625 -0.421875 0.640625q-0.28125 0 -0.34375 -0.53125q-0.125 -1.046875 -0.46875 -1.453125zm6.390625 -1.765625l0.875 0.59375q2.21875 -0.59375 3.34375 -1.125l0.9375 0.65625q0.28125 0.34375 -0.59375 0.234375q-1.515625 0.28125 -3.8125 0.578125l0 3.171875l3.171875 0l0.765625 -0.765625l0.9375 0.703125q0.34375 0.296875 0 0.40625l-2.0625 0l0 7.625q-0.75 0.703125 -0.75 0.0625l0 -7.6875l-2.0625 0l0 1.34375q0 4.21875 -3.5625 6.15625q-0.421875 0.0625 -0.125 -0.28125q2.9375 -1.890625 2.9375 -5.6875l0 -5.984375zm-3.9375 6.265625l1.828125 0l0.640625 -0.640625l0.8125 0.59375q0.359375 0.28125 0 0.40625l-3.28125 0l0 0.875q1.59375 0.359375 2.234375 0.828125q0.40625 0.28125 0.40625 0.703125q0 0.34375 -0.296875 0.34375q-0.234375 0 -0.515625 -0.34375q-0.765625 -0.9375 -1.828125 -1.234375l0 4.109375q-0.75 0.703125 -0.75 0.046875l0 -4.046875q-1.296875 1.9375 -3.40625 3.40625q-0.234375 0.0625 -0.171875 -0.171875q1.875 -1.703125 3.515625 -4.515625l-2.8125 0l0 -0.359375l2.875 0l0 -1.921875l-3.171875 0l0 -0.359375l4.34375 0l0.703125 -2.40625l0.8125 0.296875q0.828125 0.359375 -0.171875 0.53125l-1.0625 1.578125l1.171875 0l0.65625 -0.640625l0.8125 0.578125q0.359375 0.296875 0 0.421875l-3.34375 0l0 1.921875zm-0.75 -5.390625l0 -2.109375l0.984375 0.1875q0.46875 0.28125 -0.234375 0.40625l0 1.515625l1.359375 0l0.75 -0.75l0.9375 0.703125q0.359375 0.28125 0 0.40625l-6.734375 0l0 -0.359375l2.9375 0z" fill-rule="nonzero"/><path fill="#000000" fill-opacity="0.0" d="m284.61417 91.32546l0.77349854 0l0 25.062988l-207.0412 0l0 -25.0" fill-rule="evenodd"/><path stroke="#595959" stroke-width="1.0" stroke-linejoin="round" stroke-linecap="butt" d="m285.38766 97.2754l0 19.113052l-207.0412 0l0 -19.0" fill-rule="evenodd"/><path fill="#595959" stroke="#595959" stroke-width="1.0" stroke-linecap="butt" d="m287.02563 97.062454l-2.222992 -4.2872925l-1.0529175 4.7131653z" fill-rule="evenodd"/><path fill="#595959" stroke="#595959" stroke-width="1.0" stroke-linecap="butt" d="m79.99819 97.38845l-1.6517334 -4.5380936l-1.6517334 4.5380936z" fill-rule="evenodd"/><path fill="#000000" fill-opacity="0.0" d="m124.98425 91.32546l144.56693 0l0 56.88189l-144.56693 0z" fill-rule="evenodd"/><path fill="#0000ff" d="m143.29675 106.73358q0 -1.0625 -0.40625 -1.46875q-0.578125 -0.59375 -1.40625 -0.59375q-0.9375 0 -1.515625 0.59375q-0.65625 0.640625 -0.421875 1.34375q0.1875 0.53125 0.1875 0.59375q0 0.46875 -0.59375 0.46875q-0.578125 0 -0.578125 -0.65625q0 -1.046875 0.703125 -1.75q0.9375 -0.9375 2.28125 -0.9375q1.34375 0 2.171875 0.8125q0.578125 0.59375 0.578125 1.59375q0 1.21875 -0.875 1.921875q-3.21875 2.578125 -3.75 3.109375q-0.359375 0.359375 -0.703125 0.875l3.34375 0q1.046875 0 1.578125 -1.40625l0.34375 0l-0.703125 2.234375l-5.328125 0l0 -0.40625q0.40625 -0.9375 1.34375 -1.765625q1.296875 -1.234375 2.765625 -2.578125q0.984375 -1.171875 0.984375 -1.984375zm2.765625 -2.296875q-1.828125 -1.8125 -4.578125 -1.8125q-2.75 0 -4.5625 1.8125q-1.828125 1.828125 -1.828125 4.578125q0 2.75 1.828125 4.5625q1.8125 1.828125 4.5625 1.828125q2.75 0 4.578125 -1.828125q1.8125 -1.8125 1.8125 -4.5625q0 -2.75 -1.8125 -4.578125zm0.34375 -0.34375q1.9375 1.9375 1.9375 4.921875q0 2.984375 -1.9375 4.921875q-1.9375 1.9375 -4.921875 1.9375q-2.984375 0 -4.921875 -1.9375q-1.9375 -1.9375 -1.9375 -4.921875q0 -2.984375 1.9375 -4.921875q1.9375 -1.9375 4.921875 -1.9375q2.984375 0 4.921875 1.9375zm13.359375 8.203125q-1.640625 2.046875 -3.921875 3.34375q-0.296875 0 -0.125 -0.234375q2.46875 -1.875 3.578125 -3.703125q-1.46875 -2.046875 -1.984375 -5.734375l-1.703125 0l0 9.140625q-0.765625 0.703125 -0.765625 0.0625l0 -2.8125l-3.921875 1.21875q-0.171875 0.828125 -0.53125 0.234375l-0.46875 -0.703125l1.578125 -0.34375l0 -9.03125l-1.515625 0l0 -0.34375l7.09375 0l0.875 -0.875l1.109375 0.8125q0.359375 0.296875 0 0.40625l-3.453125 0l0 1.875l5.453125 0l0.46875 -0.46875l1.109375 0.828125q0.171875 0.34375 -0.59375 0.234375q-0.46875 2.984375 -1.875 5.5q1.40625 1.40625 3.28125 2.296875q-0.515625 0.171875 -1.046875 0.640625q-1.34375 -0.828125 -2.640625 -2.34375zm-2.171875 -6.328125q0.765625 3.515625 2.0625 5.15625q1.109375 -2.109375 1.578125 -5.15625l-3.640625 0zm-5.328125 3.625l0 2.9375l2.578125 -0.59375l0 -2.34375l-2.578125 0zm2.578125 -0.34375l0 -2.46875l-2.578125 0l0 2.46875l2.578125 0zm0 -5.515625l-2.578125 0l0 2.703125l2.578125 0l0 -2.703125z" fill-rule="nonzero"/><path fill="#0000ff" d="m167.56238 112.87421q0 2.0625 0.0625 2.765625l-0.890625 0.296875q0.0625 -2.125 0.0625 -2.828125l0 -5.796875q-1.046875 1.703125 -2.046875 2.75l-0.171875 -0.109375q1.109375 -1.703125 1.984375 -3.8125q0.875 -2.109375 1.34375 -3.921875l1.234375 0.765625l-0.578125 0.34375q-0.9375 2.171875 -1.234375 2.9375l0.703125 0.40625l-0.46875 0.34375l0 5.859375zm3.15625 -6.03125l0 1.765625l4.515625 0l0 -1.765625l-4.515625 0zm0 2.109375l0 1.765625l4.515625 0l0 -1.765625l-4.515625 0zm0 2.109375l0 1.765625l4.515625 0l0 -1.765625l-4.515625 0zm0 2.109375l0 1.765625l4.515625 0l0 -1.765625l-4.515625 0zm1.59375 -8.734375q0.046875 -1.34375 0 -2.28125l1.34375 0.640625l-0.46875 0.359375l-0.0625 1.28125l2.640625 0l0.765625 -0.75l1.109375 1.109375l-4.515625 0l-0.0625 1.703125l2.0625 0l0.515625 -0.59375l0.890625 0.765625l-0.53125 0.34375l0 7.921875l0.53125 0l0.75 -0.765625l1.125 1.109375l-8.671875 0q-0.765625 0 -1.40625 0.1875l-0.53125 -0.53125l2.171875 0l0 -6.515625q0 -0.703125 -0.0625 -2.390625l0.8125 0.46875l1.53125 0l0.0625 -1.703125l-1.765625 0q-0.765625 0 -1.40625 0.171875l-0.53125 -0.53125l3.703125 0z" fill-rule="nonzero"/><path fill="#000000" fill-opacity="0.0" d="m171.75328 108.17585l144.56694 0l0 56.88189l-144.56694 0z" fill-rule="evenodd"/><path fill="#0000ff" d="m190.0189 123.39648q0 -0.875 -0.46875 -1.34375q-0.53125 -0.53125 -1.40625 -0.53125q-0.890625 0 -1.53125 0.65625q-0.234375 0.234375 -0.0625 0.8125q0.234375 0.765625 -0.46875 0.765625q-0.515625 0 -0.515625 -0.59375q0 -0.703125 0.515625 -1.21875q0.765625 -0.765625 2.171875 -0.765625q1.34375 0 2.171875 0.8125q0.53125 0.53125 0.53125 1.53125q0 0.875 -0.53125 1.40625q-0.40625 0.40625 -1.578125 0.8125q1.046875 0.125 1.640625 0.703125q0.640625 0.65625 0.640625 1.5937576q0 1.046875 -0.59375 1.640625q-0.875 0.875 -2.28125 0.875q-1.578125 0 -2.34375 -0.765625q-0.640625 -0.640625 -0.640625 -1.28125q0 -0.8906326 0.640625 -0.8906326q0.59375 0 0.59375 0.6562576q0 0.234375 -0.234375 0.578125q-0.234375 0.359375 0.171875 0.765625q0.578125 0.578125 1.578125 0.578125q0.9375 0 1.578125 -0.640625q0.59375 -0.578125 0.59375 -1.515625q0 -1.4687576 -0.828125 -1.8281326q-1.046875 -0.46875 -1.921875 -0.109375q-0.421875 0 -0.421875 -0.234375q0 -0.40625 0.421875 -0.359375q0.46875 0.1875 1.171875 0q0.46875 -0.046875 0.984375 -0.578125q0.421875 -0.40625 0.421875 -1.53125zm4.625 2.46875q0 -2.75 -1.8125 -4.578125q-1.828125 -1.8125 -4.578125 -1.8125q-2.75 0 -4.5625 1.8125q-1.828125 1.828125 -1.828125 4.578125q0 2.7500076 1.828125 4.5625076q1.8125 1.828125 4.5625 1.828125q2.75 0 4.578125 -1.828125q1.8125 -1.8125 1.8125 -4.5625076zm0.46875 0q0 2.9843826 -1.9375 4.9218826q-1.9375 1.9375 -4.921875 1.9375q-2.984375 0 -4.921875 -1.9375q-1.9375 -1.9375 -1.9375 -4.9218826q0 -2.984375 1.9375 -4.921875q1.9375 -1.9375 4.921875 -1.9375q2.984375 0 4.921875 1.9375q1.9375 1.9375 1.9375 4.921875zm10.71875 1.28125q1.109375 -1.40625 1.875 -3.328125l-3.515625 0q0.46875 1.6875 1.640625 3.328125zm-4.046875 -7.03125l0.828125 0.46875l5.453125 0l0.75 -0.75l0.9375 0.703125q0.359375 0.28125 0 0.40625l-7.203125 0l0 2.515625l5.15625 0l0.46875 -0.46875l0.828125 0.828125q0.234375 0.34375 -0.46875 0.234375q-0.703125 1.8125 -2.234375 3.625q1.875 1.4687576 3.8125 2.0468826q-0.703125 0.1875 -1.171875 0.65625q-2.0 -1.125 -3.109375 -2.296875q-1.75 1.53125 -3.859375 2.109375q-0.421875 0 -0.125 -0.234375q2.34375 -1.046875 3.578125 -2.3437576q-1.109375 -1.6875 -1.578125 -3.796875l-1.296875 0q0 3.515625 -1.9375 5.9062576q-0.28125 0.125 -0.171875 -0.171875q1.34375 -2.2812576 1.34375 -5.7343826l0 -3.703125zm-4.5 -0.34375q2.578125 0.703125 2.578125 1.8125q0 0.46875 -0.421875 0.46875q-0.234375 0 -0.46875 -0.34375q-0.640625 -1.171875 -1.8125 -1.765625q-0.234375 -0.171875 0.125 -0.171875zm1.578125 5.328125l-2.34375 0l0 -0.34375l2.171875 0l0.34375 -0.46875l0.828125 0.578125q0.34375 0.296875 -0.234375 0.40625l0 4.2187576q1.640625 1.640625 4.328125 1.640625l6.453125 0q-0.359375 0.125 -0.703125 0.71875l-5.21875 0q-3.046875 0 -5.21875 -2.125l-1.46875 1.359375q0.125 0.9375 -0.46875 0.296875l-0.515625 -0.65625l2.046875 -1.234375l0 -4.3906326zm14.171875 5.9218826l0 1.0q-0.75 0.703125 -0.75 0.0625l0 -12.203133l0.875 0.59375l10.015625 0l0.40625 -0.53125l0.9375 0.640625q0.46875 0.359375 -0.40625 0.46875l0 10.734383q-0.765625 0.703125 -0.765625 0.0625l0 -0.828125l-10.3125 0zm0 -10.203133l0 9.843758l10.3125 0l0 -9.843758l-10.3125 0zm3.046875 3.046875l0 3.40625l3.875 0l0 -3.40625l-3.875 0zm0.125 -0.34375l3.578125 0l0.40625 -0.53125l0.9375 0.640625q0.46875 0.359375 -0.40625 0.46875l0 4.1093826q-0.765625 0.703125 -0.765625 0.0625l0 -0.6562576l-3.875 0l0 1.0625076q-0.75 0.703125 -0.75 0.0625l0 -5.7500076l0.875 0.53125z" fill-rule="nonzero"/><path fill="#0000ff" d="m229.3314 129.72461q0 2.0625 0.0625 2.765625l-0.890625 0.296875q0.0625 -2.125 0.0625 -2.828125l0 -5.7968826q-1.046875 1.703125 -2.046875 2.75l-0.171875 -0.109375q1.109375 -1.703125 1.984375 -3.8125q0.875 -2.109375 1.34375 -3.921875l1.234375 0.765625l-0.578125 0.34375q-0.9375 2.171875 -1.234375 2.9375l0.703125 0.40625l-0.46875 0.34375l0 5.8593826zm3.15625 -6.0312576l0 1.765625l4.515625 0l0 -1.765625l-4.515625 0zm0 2.109375l0 1.765625l4.515625 0l0 -1.765625l-4.515625 0zm0 2.109375l0 1.7656326l4.515625 0l0 -1.7656326l-4.515625 0zm0 2.1093826l0 1.765625l4.515625 0l0 -1.765625l-4.515625 0zm1.59375 -8.734383q0.046875 -1.34375 0 -2.28125l1.34375 0.640625l-0.46875 0.359375l-0.0625 1.28125l2.640625 0l0.765625 -0.75l1.109375 1.109375l-4.515625 0l-0.0625 1.703125l2.0625 0l0.515625 -0.59375l0.890625 0.765625l-0.53125 0.34375l0 7.9218826l0.53125 0l0.75 -0.765625l1.125 1.109375l-8.671875 0q-0.765625 0 -1.40625 0.1875l-0.53125 -0.53125l2.171875 0l0 -6.5156326q0 -0.703125 -0.0625 -2.390625l0.8125 0.46875l1.53125 0l0.0625 -1.703125l-1.765625 0q-0.765625 0 -1.40625 0.171875l-0.53125 -0.53125l3.703125 0z" fill-rule="nonzero"/><path fill="#000000" fill-opacity="0.0" d="m342.4357 62.947506l125.102356 0" fill-rule="evenodd"/><path stroke="#595959" stroke-width="1.0" stroke-linejoin="round" stroke-linecap="butt" d="m348.4357 62.947506l113.102356 0" fill-rule="evenodd"/><path fill="#595959" stroke="#595959" stroke-width="1.0" stroke-linecap="butt" d="m348.4357 61.295773l-4.5381165 1.6517334l4.5381165 1.6517296z" fill-rule="evenodd"/><path fill="#595959" stroke="#595959" stroke-width="1.0" stroke-linecap="butt" d="m461.53806 64.599236l4.538086 -1.6517296l-4.538086 -1.6517334z" fill-rule="evenodd"/><path fill="#000000" fill-opacity="0.0" d="m342.4357 26.112862l144.56693 0l0 56.88189l-144.56693 0z" fill-rule="evenodd"/><path fill="#0000ff" d="m358.9357 41.09911l-3.109375 4.40625l3.109375 0l0 -4.40625zm0 4.75l-3.578125 0l0 -0.34375l4.515625 -6.390625l0 6.390625l1.640625 0l0 0.34375l-1.640625 0l0 1.46875q0 0.578125 0.59375 0.578125l0.8125 0l0 0.359375l-3.75 0l0 -0.359375l0.828125 0q0.578125 0 0.578125 -0.578125l0 -1.46875zm6.390625 -2.046875q0 -2.75 -1.8125 -4.578125q-1.828125 -1.8125 -4.578125 -1.8125q-2.75 0 -4.5625 1.8125q-1.828125 1.828125 -1.828125 4.578125q0 2.75 1.828125 4.5625q1.8125 1.828125 4.5625 1.828125q2.75 0 4.578125 -1.828125q1.8125 -1.8125 1.8125 -4.5625zm0.46875 0q0 2.984375 -1.9375 4.921875q-1.9375 1.9375 -4.921875 1.9375q-2.984375 0 -4.921875 -1.9375q-1.9375 -1.9375 -1.9375 -4.921875q0 -2.984375 1.9375 -4.921875q1.9375 -1.9375 4.921875 -1.9375q2.984375 0 4.921875 1.9375q1.9375 1.9375 1.9375 4.921875z" fill-rule="nonzero"/><path fill="#0000ff" d="m368.71695 37.53661l0.0625 -0.1875q1.296875 0.59375 1.78125 1.0q0.5 0.40625 0.5 0.828125q0 0.40625 -0.328125 0.703125q-0.3125 0.28125 -0.703125 -0.625q-0.375 -0.90625 -1.3125 -1.71875zm1.59375 10.78125l2.28125 -2.0l0.109375 0.171875q-2.046875 2.640625 -2.515625 3.53125l-0.875 -1.0q0.234375 -0.359375 0.234375 -1.125l0 -5.265625l-1.53125 0l0.53125 0q-0.34375 0 -1.0 0.171875l-0.515625 -0.53125l2.390625 0l0.65625 -0.640625l0.8125 0.828125l-0.578125 0.40625l0 5.453125zm5.15625 -5.984375q0 -3.921875 -0.0625 -5.09375l1.40625 0.640625l-0.46875 0.46875l0 3.984375l2.640625 0l0.75 -0.765625l1.0625 1.125l-4.453125 0l0 5.328125q0 1.171875 0.0625 2.171875l-1.0 0.40625q0.0625 -1.8125 0.0625 -2.75l0 -5.15625l-3.0 0l0.890625 0q-0.703125 0 -1.359375 0.171875l-0.515625 -0.53125l3.984375 0z" fill-rule="nonzero"/><path fill="#0000ff" d="m382.26382 41.052235q1.453125 -1.53125 2.34375 -4.40625l0.984375 0.53125q0.296875 0.234375 -0.34375 0.296875q-0.234375 0.40625 -0.640625 1.0l2.515625 0l0.765625 -0.765625l0.9375 0.703125q0.34375 0.296875 0 0.40625l-3.109375 0q1.171875 0.59375 1.171875 1.296875q0 0.46875 -0.296875 0.46875q-0.171875 0 -0.234375 -0.125q-0.40625 -1.109375 -0.9375 -1.640625l-1.0 0q-0.875 1.53125 -1.984375 2.34375q-0.234375 0.125 -0.171875 -0.109375zm8.484375 -3.46875q-0.28125 0.53125 -0.515625 0.890625l2.984375 0l0.765625 -0.765625l0.9375 0.703125q0.34375 0.296875 0 0.40625l-3.984375 0q1.046875 0.640625 1.046875 1.34375q0 0.53125 -0.34375 0.53125q-0.1875 0 -0.296875 -0.296875q-0.125 -0.8125 -0.703125 -1.578125l-0.59375 0q-0.8125 1.296875 -1.578125 1.8125q-0.234375 0.1875 -0.171875 -0.109375q1.234375 -1.578125 1.8125 -3.75l1.0625 0.53125q0.34375 0.28125 -0.421875 0.28125zm-5.15625 8.15625l0 0.640625q-0.75 0.703125 -0.75 0.0625l0 -5.984375l0.875 0.59375l6.5625 0l0.34375 -0.46875l0.828125 0.578125q0.34375 0.296875 -0.234375 0.40625l0 4.578125q-0.765625 0.703125 -0.765625 0.0625l0 -0.46875l-1.28125 0l0 1.515625l2.109375 0l0.875 -0.875l1.109375 0.8125q0.359375 0.296875 0 0.421875l-4.09375 0l0 2.578125q-0.765625 0.703125 -0.765625 0.0625l0 -2.640625l-2.75 0q-0.359375 2.40625 -4.921875 2.984375q-0.234375 -0.109375 0 -0.234375q3.859375 -0.9375 4.15625 -2.75l-4.6875 0l0 -0.359375l4.75 0q0.109375 -0.46875 0.171875 -1.515625l-1.53125 0zm2.296875 0q-0.0625 0.9375 -0.1875 1.515625l2.703125 0l0 -1.515625l-2.515625 0zm-2.296875 -3.234375l6.859375 0l0 -1.109375l-6.859375 0l0 1.109375zm0 1.46875l6.859375 0l0 -1.109375l-6.859375 0l0 1.109375zm6.859375 1.40625l0 -1.046875l-6.859375 0l0 1.046875l6.859375 0zm10.078125 -7.671875q0.640625 0.40625 -0.765625 0.40625q-0.46875 1.0 -0.875 1.640625l8.140625 0l0.421875 -0.53125l0.9375 0.65625q0.46875 0.34375 -0.421875 0.46875l0 6.03125q0 2.40625 -0.578125 3.171875q-0.359375 0.515625 -1.296875 0.8125q-0.640625 0.171875 -0.640625 -0.296875q0 -0.28125 -0.34375 -0.40625l-1.234375 -0.34375q-0.234375 -0.1875 0.0625 -0.25l1.21875 0.125q0.421875 0.0625 0.765625 0.0625q0.640625 0 0.9375 -0.53125q0.359375 -0.53125 0.359375 -2.46875l0 -6.140625l-8.5 0q-1.875 2.921875 -3.34375 4.09375q-0.40625 0.234375 -0.171875 -0.171875q2.8125 -3.40625 3.859375 -6.921875l1.46875 0.59375zm-1.234375 9.953125q-0.75 0.703125 -0.75 0.0625l0 -5.734375l0.875 0.34375l3.046875 0l0.34375 -0.46875l0.828125 0.59375q0.34375 0.28125 -0.234375 0.40625l0 4.28125q-0.765625 0.703125 -0.765625 0.046875l0 -0.515625l-3.34375 0l0 0.984375zm3.34375 -1.34375l0 -3.625l-3.34375 0l0 3.625l3.34375 0zm14.703125 2.46875q0 0.703125 -0.40625 1.046875q-0.34375 0.296875 -0.703125 0.359375q-0.34375 0.0625 -0.34375 -0.359375q0 -0.28125 -0.296875 -0.40625l-0.9375 -0.171875q-0.296875 -0.125 0 -0.234375l1.40625 0q0.53125 0 0.53125 -0.53125l0 -4.453125l-6.390625 0l0 -0.359375l6.390625 0l0 -2.453125l0.703125 0.34375l2.15625 -2.75l-7.140625 0l0 -0.34375l7.03125 0l0.578125 -0.59375l1.296875 1.0625q0.234375 0.34375 -0.171875 0.28125q-0.703125 -0.046875 -1.0625 0.296875l-2.640625 2.40625l0 1.75l4.109375 0l0.875 -0.875l1.109375 0.828125q0.359375 0.28125 0 0.40625l-6.09375 0l0 4.75zm13.65625 -8.734375l5.625 0l0.359375 -0.46875l0.8125 0.578125q0.359375 0.296875 -0.234375 0.421875l0 8.3125q0 0.703125 -0.46875 1.125q-0.34375 0.28125 -0.640625 0.28125q-0.359375 0 -0.359375 -0.40625q0 -0.296875 -0.40625 -0.40625l-0.875 -0.125q-0.296875 -0.109375 0 -0.234375l1.46875 0q0.515625 0 0.515625 -0.53125l0 -8.203125l-9.71875 0l0 9.625q-0.765625 0.703125 -0.765625 0.046875l0 -10.65625l0.875 0.640625l3.34375 0l0.703125 -2.703125l1.0625 0.359375q0.578125 0.234375 -0.421875 0.53125l-0.875 1.8125zm3.578125 2.6875q0.34375 0.296875 -0.234375 0.421875l0 3.984375q-0.765625 0.703125 -0.765625 0.046875l0 -0.75l-3.28125 0l0 1.28125q-0.765625 0.703125 -0.765625 0.0625l0 -5.75l0.890625 0.59375l2.984375 0l0.34375 -0.46875l0.828125 0.578125zm-1.0 0.234375l-3.28125 0l0 3.109375l3.28125 0l0 -3.109375zm13.890625 4.921875l3.515625 0l0.765625 -0.75l0.9375 0.703125q0.34375 0.28125 0 0.40625l-5.21875 0l0 1.234375l4.515625 0l0.75 -0.765625l0.9375 0.703125q0.359375 0.296875 0 0.40625l-12.9375 0l0 -0.34375l5.96875 0l0 -1.234375l-5.03125 0l0 -0.359375l5.03125 0l0 -1.046875l-3.046875 0l0 0.234375q-0.765625 0.703125 -0.765625 0.0625l0 -4.21875l0.890625 0.46875l6.4375 0l0.359375 -0.46875l0.8125 0.578125q0.40625 0.296875 -0.234375 0.40625l0 3.046875q-0.765625 0.703125 -0.765625 0.0625l0 -0.171875l-2.921875 0l0 1.046875zm2.921875 -2.984375l0 -1.171875l-2.921875 0l0 1.171875l2.921875 0zm-6.734375 0l3.046875 0l0 -1.171875l-3.046875 0l0 1.171875zm0 1.578125l3.046875 0l0 -1.21875l-3.046875 0l0 1.21875zm3.8125 0l2.921875 0l0 -1.21875l-2.921875 0l0 1.21875zm2.515625 -6.90625l-5.859375 0l0 1.046875l5.859375 0l0 -1.046875zm-5.859375 -0.359375l5.859375 0l0 -1.109375l-5.859375 0l0 1.109375zm-0.765625 -1.921875l0.890625 0.46875l5.5625 0l0.34375 -0.46875l0.828125 0.578125q0.40625 0.296875 -0.234375 0.40625l0 3.046875q-0.765625 0.703125 -0.765625 0.0625l0 -0.40625l-5.859375 0l0 0.46875q-0.765625 0.703125 -0.765625 0.0625l0 -4.21875zm-2.859375 4.859375l11.421875 0l0.875 -0.875l1.109375 0.8125q0.359375 0.296875 0 0.40625l-13.40625 0l0 -0.34375z" fill-rule="nonzero"/><path fill="#000000" fill-opacity="0.0" d="m342.4357 59.293964l144.56693 0l0 56.881886l-144.56693 0z" fill-rule="evenodd"/><path fill="#0000ff" d="m360.17007 76.74896q-0.59375 -0.59375 -1.40625 -0.59375q-0.828125 0 -1.40625 0.59375q-0.171875 0.171875 -0.53125 0.640625l-0.296875 -0.109375l0.359375 -4.75l4.5625 0l-0.234375 0.8125l-4.03125 0l-0.234375 3.34375q0.8125 -0.875 1.984375 -0.875q1.234375 0 1.875 0.640625q1.0 1.0 1.0 2.171875q0 1.28125 -0.828125 2.109375q-0.9375 0.9375 -2.34375 0.9375q-1.171875 0 -1.8125 -0.640625q-0.640625 -0.65625 -0.640625 -1.296875q0 -0.875 0.578125 -0.875q0.53125 0 0.53125 0.578125q0 0.234375 -0.234375 0.65625q-0.234375 0.40625 0.359375 0.875q0.46875 0.34375 1.171875 0.34375q0.875 0 1.515625 -0.640625q0.765625 -0.765625 0.765625 -2.046875q0 -1.171875 -0.703125 -1.875zm5.625 0.234375q0 2.984375 -1.9375 4.921875q-1.9375 1.9375 -4.921875 1.9375q-2.984375 0 -4.921875 -1.9375q-1.9375 -1.9375 -1.9375 -4.921875q0 -2.984375 1.9375 -4.921875q1.9375 -1.9375 4.921875 -1.9375q2.984375 0 4.921875 1.9375q1.9375 1.9375 1.9375 4.921875zm-0.46875 0q0 -2.75 -1.8125 -4.578125q-1.828125 -1.8125 -4.578125 -1.8125q-2.75 0 -4.5625 1.8125q-1.828125 1.828125 -1.828125 4.578125q0 2.75 1.828125 4.5625q1.8125 1.828125 4.5625 1.828125q2.75 0 4.578125 -1.828125q1.8125 -1.8125 1.8125 -4.5625zm11.1875 1.28125q1.109375 -1.40625 1.875 -3.328125l-3.515625 0q0.46875 1.6875 1.640625 3.328125zm-4.046875 -7.03125l0.828125 0.46875l5.453125 0l0.75 -0.75l0.9375 0.703125q0.359375 0.28125 0 0.40625l-7.203125 0l0 2.515625l5.15625 0l0.46875 -0.46875l0.828125 0.828125q0.234375 0.34375 -0.46875 0.234375q-0.703125 1.8125 -2.234375 3.625q1.875 1.46875 3.8125 2.046875q-0.703125 0.1875 -1.171875 0.65625q-2.0 -1.125 -3.109375 -2.296875q-1.75 1.53125 -3.859375 2.109375q-0.421875 0 -0.125 -0.234375q2.34375 -1.046875 3.578125 -2.34375q-1.109375 -1.6875 -1.578125 -3.796875l-1.296875 0q0 3.515625 -1.9375 5.90625q-0.28125 0.125 -0.171875 -0.171875q1.34375 -2.28125 1.34375 -5.734375l0 -3.703125zm-4.5 -0.34375q2.578125 0.703125 2.578125 1.8125q0 0.46875 -0.421875 0.46875q-0.234375 0 -0.46875 -0.34375q-0.640625 -1.171875 -1.8125 -1.765625q-0.234375 -0.171875 0.125 -0.171875zm1.578125 5.328125l-2.34375 0l0 -0.34375l2.171875 0l0.34375 -0.46875l0.828125 0.578125q0.34375 0.296875 -0.234375 0.40625l0 4.21875q1.640625 1.640625 4.328125 1.640625l6.453125 0q-0.359375 0.125 -0.703125 0.71875l-5.21875 0q-3.046875 0 -5.21875 -2.125l-1.46875 1.359375q0.125 0.9375 -0.46875 0.296875l-0.515625 -0.65625l2.046875 -1.234375l0 -4.390625zm14.171875 5.921875l0 1.0q-0.75 0.703125 -0.75 0.0625l0 -12.203125l0.875 0.59375l10.015625 0l0.40625 -0.53125l0.9375 0.640625q0.46875 0.359375 -0.40625 0.46875l0 10.734375q-0.765625 0.703125 -0.765625 0.0625l0 -0.828125l-10.3125 0zm0 -10.203125l0 9.84375l10.3125 0l0 -9.84375l-10.3125 0zm3.046875 3.046875l0 3.40625l3.875 0l0 -3.40625l-3.875 0zm0.125 -0.34375l3.578125 0l0.40625 -0.53125l0.9375 0.640625q0.46875 0.359375 -0.40625 0.46875l0 4.109375q-0.765625 0.703125 -0.765625 0.0625l0 -0.65625l-3.875 0l0 1.0625q-0.75 0.703125 -0.75 0.0625l0 -5.75l0.875 0.53125zm15.640625 -3.75q0.640625 0.40625 -0.765625 0.40625q-0.46875 1.0 -0.875 1.640625l8.140625 0l0.421875 -0.53125l0.9375 0.65625q0.46875 0.34375 -0.421875 0.46875l0 6.03125q0 2.40625 -0.578125 3.171875q-0.359375 0.515625 -1.296875 0.8125q-0.640625 0.171875 -0.640625 -0.296875q0 -0.28125 -0.34375 -0.40625l-1.234375 -0.34375q-0.234375 -0.1875 0.0625 -0.25l1.21875 0.125q0.421875 0.0625 0.765625 0.0625q0.640625 0 0.9375 -0.53125q0.359375 -0.53125 0.359375 -2.46875l0 -6.140625l-8.5 0q-1.875 2.921875 -3.34375 4.09375q-0.40625 0.234375 -0.171875 -0.171875q2.8125 -3.40625 3.859375 -6.921875l1.46875 0.59375zm-1.234375 9.953125q-0.75 0.703125 -0.75 0.0625l0 -5.734375l0.875 0.34375l3.046875 0l0.34375 -0.46875l0.828125 0.59375q0.34375 0.28125 -0.234375 0.40625l0 4.28125q-0.765625 0.703125 -0.765625 0.046875l0 -0.515625l-3.34375 0l0 0.984375zm3.34375 -1.34375l0 -3.625l-3.34375 0l0 3.625l3.34375 0zm14.703125 2.46875q0 0.703125 -0.40625 1.046875q-0.34375 0.296875 -0.703125 0.359375q-0.34375 0.0625 -0.34375 -0.359375q0 -0.28125 -0.296875 -0.40625l-0.9375 -0.171875q-0.296875 -0.125 0 -0.234375l1.40625 0q0.53125 0 0.53125 -0.53125l0 -4.453125l-6.390625 0l0 -0.359375l6.390625 0l0 -2.453125l0.703125 0.34375l2.15625 -2.75l-7.140625 0l0 -0.34375l7.03125 0l0.578125 -0.59375l1.296875 1.0625q0.234375 0.34375 -0.171875 0.28125q-0.703125 -0.046875 -1.0625 0.296875l-2.640625 2.40625l0 1.75l4.109375 0l0.875 -0.875l1.109375 0.828125q0.359375 0.28125 0 0.40625l-6.09375 0l0 4.75zm13.65625 -8.734375l5.625 0l0.359375 -0.46875l0.8125 0.578125q0.359375 0.296875 -0.234375 0.421875l0 8.3125q0 0.703125 -0.46875 1.125q-0.34375 0.28125 -0.640625 0.28125q-0.359375 0 -0.359375 -0.40625q0 -0.296875 -0.40625 -0.40625l-0.875 -0.125q-0.296875 -0.109375 0 -0.234375l1.46875 0q0.515625 0 0.515625 -0.53125l0 -8.203125l-9.71875 0l0 9.625q-0.765625 0.703125 -0.765625 0.046875l0 -10.65625l0.875 0.640625l3.34375 0l0.703125 -2.703125l1.0625 0.359375q0.578125 0.234375 -0.421875 0.53125l-0.875 1.8125zm3.578125 2.6875q0.34375 0.296875 -0.234375 0.421875l0 3.984375q-0.765625 0.703125 -0.765625 0.046875l0 -0.75l-3.28125 0l0 1.28125q-0.765625 0.703125 -0.765625 0.0625l0 -5.75l0.890625 0.59375l2.984375 0l0.34375 -0.46875l0.828125 0.578125zm-1.0 0.234375l-3.28125 0l0 3.109375l3.28125 0l0 -3.109375zm13.890625 4.921875l3.515625 0l0.765625 -0.75l0.9375 0.703125q0.34375 0.28125 0 0.40625l-5.21875 0l0 1.234375l4.515625 0l0.75 -0.765625l0.9375 0.703125q0.359375 0.296875 0 0.40625l-12.9375 0l0 -0.34375l5.96875 0l0 -1.234375l-5.03125 0l0 -0.359375l5.03125 0l0 -1.046875l-3.046875 0l0 0.234375q-0.765625 0.703125 -0.765625 0.0625l0 -4.21875l0.890625 0.46875l6.4375 0l0.359375 -0.46875l0.8125 0.578125q0.40625 0.296875 -0.234375 0.40625l0 3.046875q-0.765625 0.703125 -0.765625 0.0625l0 -0.171875l-2.921875 0l0 1.046875zm2.921875 -2.984375l0 -1.171875l-2.921875 0l0 1.171875l2.921875 0zm-6.734375 0l3.046875 0l0 -1.171875l-3.046875 0l0 1.171875zm0 1.578125l3.046875 0l0 -1.21875l-3.046875 0l0 1.21875zm3.8125 0l2.921875 0l0 -1.21875l-2.921875 0l0 1.21875zm2.515625 -6.90625l-5.859375 0l0 1.046875l5.859375 0l0 -1.046875zm-5.859375 -0.359375l5.859375 0l0 -1.109375l-5.859375 0l0 1.109375zm-0.765625 -1.921875l0.890625 0.46875l5.5625 0l0.34375 -0.46875l0.828125 0.578125q0.40625 0.296875 -0.234375 0.40625l0 3.046875q-0.765625 0.703125 -0.765625 0.0625l0 -0.40625l-5.859375 0l0 0.46875q-0.765625 0.703125 -0.765625 0.0625l0 -4.21875zm-2.859375 4.859375l11.421875 0l0.875 -0.875l1.109375 0.8125q0.359375 0.296875 0 0.40625l-13.40625 0l0 -0.34375z" fill-rule="nonzero"/><path fill="#000000" fill-opacity="0.0" d="m289.1181 91.38845l51.29724 0l0 85.25985l127.12796 0" fill-rule="evenodd"/><path stroke="#595959" stroke-width="1.0" stroke-linejoin="round" stroke-linecap="butt" d="m289.1181 91.38845l51.29724 0l0 85.25985l121.12796 0" fill-rule="evenodd"/><path fill="#595959" stroke="#595959" stroke-width="1.0" stroke-linecap="butt" d="m461.5433 178.30003l4.538086 -1.6517334l-4.538086 -1.6517334z" fill-rule="evenodd"/><path fill="#000000" fill-opacity="0.0" d="m370.4147 148.20735l144.56693 0l0 56.88188l-144.56693 0z" fill-rule="evenodd"/><path fill="#0000ff" d="m388.32095 165.53735q-0.46875 -0.46875 -1.109375 -0.46875q-1.0 0 -1.9375 0.9375q-0.34375 0.359375 -0.34375 0.9375q0 2.0625 0.75 2.8125q0.46875 0.46875 1.171875 0.46875q0.765625 0 1.296875 -0.515625q0.640625 -0.65625 0.640625 -2.296875q0 -1.40625 -0.46875 -1.875zm0.765625 -0.109375q0.640625 0.640625 0.640625 2.046875q0 1.53125 -0.765625 2.28125q-0.8125 0.828125 -2.046875 0.828125q-1.109375 0 -1.875 -0.765625q-1.046875 -1.046875 -1.046875 -3.28125q0 -3.046875 1.34375 -4.390625q0.9375 -0.9375 1.984375 -0.9375q1.0 0 1.640625 0.640625q0.421875 0.40625 0.421875 0.9375q0 0.59375 -0.46875 0.59375q-0.53125 0 -0.53125 -0.46875q0 -0.1875 0 -0.421875q0 -0.9375 -1.109375 -0.9375q-0.59375 0 -1.125 0.53125q-1.28125 1.296875 -1.21875 3.921875q1.109375 -1.28125 2.21875 -1.28125q1.234375 0 1.9375 0.703125zm4.21875 0.46875q0 -2.75 -1.8125 -4.578125q-1.828125 -1.8125 -4.578125 -1.8125q-2.75 0 -4.5625 1.8125q-1.828125 1.828125 -1.828125 4.578125q0 2.75 1.828125 4.5625q1.8125 1.828125 4.5625 1.828125q2.75 0 4.578125 -1.828125q1.8125 -1.8125 1.8125 -4.5625zm0.46875 0q0 2.984375 -1.9375 4.921875q-1.9375 1.9375 -4.921875 1.9375q-2.984375 0 -4.921875 -1.9375q-1.9375 -1.9375 -1.9375 -4.921875q0 -2.984375 1.9375 -4.921875q1.9375 -1.9375 4.921875 -1.9375q2.984375 0 4.921875 1.9375q1.9375 1.9375 1.9375 4.921875z" fill-rule="nonzero"/><path fill="#0000ff" d="m396.5397 161.11548q0.296875 0 0.5 0.21875q0.21875 0.203125 0.21875 0.5q0 0.296875 -0.21875 0.515625q-0.203125 0.21875 -0.5 0.21875q-0.296875 0 -0.515625 -0.21875q-0.21875 -0.21875 -0.21875 -0.515625q0 -0.296875 0.203125 -0.5q0.21875 -0.21875 0.53125 -0.21875zm0.59375 3.421875l0 5.265625q0 0.625 0.078125 0.828125q0.09375 0.203125 0.265625 0.3125q0.1875 0.09375 0.65625 0.09375l0 0.25l-3.1875 0l0 -0.25q0.484375 0 0.640625 -0.09375q0.171875 -0.09375 0.265625 -0.3125q0.09375 -0.21875 0.09375 -0.828125l0 -2.515625q0 -1.078125 -0.0625 -1.390625q-0.046875 -0.234375 -0.15625 -0.3125q-0.109375 -0.09375 -0.296875 -0.09375q-0.203125 0 -0.484375 0.109375l-0.109375 -0.265625l1.984375 -0.796875l0.3125 0zm3.7282104 1.390625q1.140625 -1.390625 2.1875 -1.390625q0.546875 0 0.921875 0.265625q0.390625 0.265625 0.625 0.890625q0.15625 0.421875 0.15625 1.3125l0 2.796875q0 0.625 0.09375 0.84375q0.078125 0.1875 0.25 0.296875q0.1875 0.09375 0.65625 0.09375l0 0.25l-3.25 0l0 -0.25l0.140625 0q0.453125 0 0.640625 -0.140625q0.1875 -0.140625 0.25 -0.421875q0.03125 -0.109375 0.03125 -0.671875l0 -2.6875q0 -0.890625 -0.234375 -1.296875q-0.234375 -0.40625 -0.78125 -0.40625q-0.84375 0 -1.6875 0.9375l0 3.453125q0 0.671875 0.078125 0.828125q0.09375 0.203125 0.265625 0.3125q0.171875 0.09375 0.71875 0.09375l0 0.25l-3.25 0l0 -0.25l0.15625 0q0.5 0 0.671875 -0.25q0.171875 -0.265625 0.171875 -0.984375l0 -2.4375q0 -1.171875 -0.0625 -1.421875q-0.046875 -0.265625 -0.15625 -0.359375q-0.109375 -0.09375 -0.296875 -0.09375q-0.203125 0 -0.484375 0.109375l-0.109375 -0.265625l1.984375 -0.796875l0.3125 0l0 1.390625zm9.640625 -1.390625l0 2.234375l-0.234375 0q-0.265625 -1.046875 -0.703125 -1.421875q-0.421875 -0.390625 -1.078125 -0.390625q-0.5 0 -0.8125 0.265625q-0.296875 0.265625 -0.296875 0.59375q0 0.390625 0.234375 0.6875q0.21875 0.28125 0.890625 0.609375l1.046875 0.515625q1.453125 0.703125 1.453125 1.859375q0 0.90625 -0.6875 1.453125q-0.671875 0.546875 -1.5 0.546875q-0.609375 0 -1.375 -0.21875q-0.234375 -0.0625 -0.390625 -0.0625q-0.15625 0 -0.25 0.171875l-0.234375 0l0 -2.328125l0.234375 0q0.203125 1.0 0.765625 1.515625q0.5625 0.5 1.265625 0.5q0.484375 0 0.796875 -0.28125q0.3125 -0.296875 0.3125 -0.703125q0 -0.5 -0.34375 -0.828125q-0.34375 -0.34375 -1.390625 -0.859375q-1.03125 -0.515625 -1.359375 -0.9375q-0.3125 -0.40625 -0.3125 -1.03125q0 -0.796875 0.546875 -1.34375q0.5625 -0.546875 1.4375 -0.546875q0.390625 0 0.9375 0.171875q0.359375 0.109375 0.484375 0.109375q0.125 0 0.1875 -0.046875q0.0625 -0.0625 0.140625 -0.234375l0.234375 0zm2.5786438 2.65625q-0.015625 1.46875 0.703125 2.296875q0.71875 0.828125 1.6875 0.828125q0.640625 0 1.109375 -0.34375q0.484375 -0.359375 0.8125 -1.21875l0.21875 0.140625q-0.15625 0.984375 -0.875 1.796875q-0.71875 0.796875 -1.8125 0.796875q-1.1875 0 -2.03125 -0.921875q-0.828125 -0.921875 -0.828125 -2.46875q0 -1.6875 0.859375 -2.625q0.859375 -0.9375 2.171875 -0.9375q1.09375 0 1.796875 0.734375q0.71875 0.71875 0.71875 1.921875l-4.53125 0zm0 -0.40625l3.03125 0q-0.03125 -0.625 -0.15625 -0.890625q-0.171875 -0.40625 -0.53125 -0.625q-0.34375 -0.234375 -0.734375 -0.234375q-0.59375 0 -1.0625 0.46875q-0.46875 0.453125 -0.546875 1.28125zm7.317627 -2.25l0 1.46875q0.828125 -1.46875 1.6875 -1.46875q0.390625 0 0.640625 0.25q0.265625 0.234375 0.265625 0.546875q0 0.28125 -0.1875 0.484375q-0.1875 0.1875 -0.4375 0.1875q-0.25 0 -0.5625 -0.25q-0.3125 -0.25 -0.453125 -0.25q-0.140625 0 -0.28125 0.140625q-0.328125 0.296875 -0.671875 0.96875l0 3.140625q0 0.546875 0.140625 0.828125q0.09375 0.1875 0.328125 0.328125q0.234375 0.125 0.671875 0.125l0 0.25l-3.34375 0l0 -0.25q0.5 0 0.734375 -0.171875q0.1875 -0.109375 0.25 -0.359375q0.03125 -0.125 0.03125 -0.6875l0 -2.546875q0 -1.140625 -0.046875 -1.359375q-0.03125 -0.21875 -0.15625 -0.3125q-0.125 -0.109375 -0.3125 -0.109375q-0.234375 0 -0.5 0.109375l-0.078125 -0.265625l1.984375 -0.796875l0.296875 0zm4.8650208 -1.953125l0 2.140625l1.53125 0l0 0.515625l-1.53125 0l0 4.25q0 0.625 0.1875 0.859375q0.1875 0.21875 0.46875 0.21875q0.234375 0 0.453125 -0.140625q0.21875 -0.15625 0.34375 -0.4375l0.28125 0q-0.25 0.703125 -0.71875 1.0625q-0.453125 0.34375 -0.9375 0.34375q-0.328125 0 -0.640625 -0.171875q-0.3125 -0.1875 -0.46875 -0.53125q-0.140625 -0.34375 -0.140625 -1.046875l0 -4.40625l-1.046875 0l0 -0.25q0.390625 -0.15625 0.796875 -0.53125q0.421875 -0.375 0.75 -0.890625q0.15625 -0.265625 0.453125 -0.984375l0.21875 0z" fill-rule="nonzero"/><path fill="#000000" fill-opacity="0.0" d="m309.65353 91.38845l0 174.17322l157.88977 0" fill-rule="evenodd"/><path stroke="#595959" stroke-width="1.0" stroke-linejoin="round" stroke-linecap="butt" d="m309.65353 91.38845l0 174.17322l151.88977 0" fill-rule="evenodd"/><path fill="#595959" stroke="#595959" stroke-width="1.0" stroke-linecap="butt" d="m461.5433 267.2134l4.538086 -1.6517334l-4.538086 -1.6517334z" fill-rule="evenodd"/><path fill="#000000" fill-opacity="0.0" d="m322.97638 237.12073l144.56693 0l0 56.881897l-144.56693 0z" fill-rule="evenodd"/><path fill="#0000ff" d="m338.4295 251.16948q-0.890625 0 -1.40625 1.875l-0.359375 0l0.46875 -2.6875l5.453125 0l0 0.234375q-1.34375 2.046875 -2.109375 3.984375q-0.703125 1.7500153 -0.703125 4.4531403q0 0.46875 -0.46875 0.46875q-0.53125 0 -0.53125 -0.703125q0 -1.703125 0.53125 -3.0468903q0.765625 -1.875 2.515625 -4.578125l-3.390625 0zm5.625 -0.9375q-1.828125 -1.8125 -4.578125 -1.8125q-2.75 0 -4.5625 1.8125q-1.828125 1.828125 -1.828125 4.578125q0 2.7500153 1.828125 4.5625153q1.8125 1.828125 4.5625 1.828125q2.75 0 4.578125 -1.828125q1.8125 -1.8125 1.8125 -4.5625153q0 -2.75 -1.8125 -4.578125zm0.34375 -0.34375q1.9375 1.9375 1.9375 4.921875q0 2.9843903 -1.9375 4.9218903q-1.9375 1.9375 -4.921875 1.9375q-2.984375 0 -4.921875 -1.9375q-1.9375 -1.9375 -1.9375 -4.9218903q0 -2.984375 1.9375 -4.921875q1.9375 -1.9375 4.921875 -1.9375q2.984375 0 4.921875 1.9375z" fill-rule="nonzero"/><path fill="#0000ff" d="m359.90607 255.7476q2.21875 2.5156403 5.09375 3.6250153q-0.640625 0.296875 -1.0 0.828125q-2.453125 -1.53125 -4.21875 -4.2187653l0 5.0937653q-0.765625 0.703125 -0.765625 0.0625l0 -4.984375q-2.21875 2.703125 -4.625 3.984375q-0.34375 0.125 -0.171875 -0.171875q2.453125 -1.8125 4.046875 -4.2187653l-3.578125 0l0 -0.359375l4.328125 0l0 -2.453125l-1.6875 0l0 0.578125q-0.765625 0.703125 -0.765625 0.0625l0 -4.859375l0.875 0.46875l4.15625 0l0.359375 -0.46875l0.8125 0.578125q0.359375 0.296875 -0.234375 0.421875l0 3.390625q-0.75 0.703125 -0.75 0.0625l0 -0.234375l-2.0 0l0 2.453125l3.109375 0l0.875 -0.875l1.109375 0.828125q0.359375 0.28125 0 0.40625l-4.96875 0zm-8.90625 -0.59375q2.109375 -2.859375 3.046875 -6.84375l1.21875 0.515625q0.234375 0.296875 -0.46875 0.421875q-0.515625 1.40625 -1.171875 2.578125l0.703125 0.234375q0.421875 0.234375 -0.578125 0.515625l0 8.500015q-0.765625 0.703125 -0.765625 0.0625l0 -8.14064q-0.8125 1.28125 -1.8125 2.34375q-0.296875 0.109375 -0.171875 -0.1875zm10.78125 -5.625l-4.453125 0l0 3.046875l4.453125 0l0 -3.046875zm10.078125 1.234375q-0.890625 1.765625 -1.875 3.046875l0 7.5000153q-0.765625 0.703125 -0.765625 0.0625l0 -6.6250153q-1.53125 1.7031403 -2.703125 2.4687653q-0.28125 0.046875 -0.109375 -0.234375q1.46875 -1.3593903 2.8125 -3.2812653l0 -1.125l0.578125 0.296875q0.59375 -0.875 1.171875 -2.109375l-4.15625 0l0 -0.34375l4.28125 0q0.53125 -1.234375 0.875 -2.53125l1.109375 0.53125q0.765625 0.46875 -0.40625 0.46875q-0.34375 0.875 -0.703125 1.53125l5.859375 0l0.875 -0.890625l1.125 0.828125q0.34375 0.296875 0 0.40625l-7.96875 0zm3.75 3.75l1.046875 -1.46875l-4.75 0l0 -0.34375l4.640625 0l0.46875 -0.46875l1.28125 0.9375q0.46875 0.46875 -0.640625 0.296875l-2.046875 1.40625l0 1.4531403l2.625 0l0.765625 -0.75001526l0.9375 0.70314026q0.359375 0.28125 0 0.40625l-4.328125 0l0 3.390625q0 0.71875 -0.421875 1.0625q-0.34375 0.296875 -0.703125 0.359375q-0.34375 0.046875 -0.34375 -0.296875q0 -0.296875 -0.296875 -0.40625l-1.0 -0.234375q-0.28125 -0.125 0 -0.234375l1.46875 0q0.53125 0 0.53125 -0.53125l0 -3.109375l-3.75 0l0 -0.359375l3.75 0l0 -2.0468903l0.765625 0.234375zm7.96875 6.7500153q-0.296875 0 -0.0625 -0.296875q4.796875 -1.59375 5.6875 -5.5156403l-3.984375 0l0 2.8125153q-0.765625 0.703125 -0.765625 0.0625l0 -0.640625l-1.8125 0l0 1.40625q-0.765625 0.703125 -0.765625 0.046875l0 -9.60939l0.875 0.53125l1.53125 0l0.34375 -0.46875l0.828125 0.59375q0.34375 0.28125 -0.234375 0.40625l0 4.515625l1.640625 0l0 -4.453125l0.875 0.40625l1.75 0l0 -2.578125l1.0 0.171875q0.46875 0.296875 -0.234375 0.40625l0 2.0l1.703125 0l0.34375 -0.46875l0.828125 0.578125q0.34375 0.296875 -0.234375 0.421875l0 3.515625l0.46875 0l0.765625 -0.765625l0.9375 0.703125q0.34375 0.296875 0 0.40625l-4.6875 0q1.28125 3.4531403 4.734375 4.6250153q-0.75 0.0625 -1.046875 0.828125q-3.109375 -1.8125 -4.109375 -5.3906403q-0.9375 4.3281403 -6.375 5.7500153zm5.90625 -9.85939l-1.875 0l0 3.703125l1.640625 0q0.234375 -1.234375 0.234375 -2.875l0 -0.828125zm2.640625 3.703125l0 -3.703125l-1.875 0l0 0.890625q0 1.34375 -0.234375 2.8125l2.109375 0zm-9.484375 -1.125l0 3.3437653l1.8125 0l0 -3.3437653l-1.8125 0zm0 -3.5625l0 3.21875l1.8125 0l0 -3.21875l-1.8125 0zm13.46875 9.95314q2.703125 -1.46875 4.75 -4.21875l-3.515625 0.59375q-0.171875 0.8125 -0.53125 0.234375l-0.46875 -0.890625l1.46875 0l0 -6.7343903l0.875 0.46875l0.640625 0l0.296875 -1.984375l0.875 0.234375q0.828125 0.34375 -0.234375 0.515625l-0.578125 1.234375l1.28125 0l0.359375 -0.46875l0.8125 0.59375q0.359375 0.28125 -0.234375 0.40625l0 1.9375l4.984375 0l0 -3.9375l1.0 0.1875q0.46875 0.28125 -0.234375 0.40625l0 3.34375l0.53125 0l0.75 -0.765625l0.9375 0.703125q0.359375 0.296875 0 0.40625l-2.21875 0l0 7.3906403q0 0.640625 -0.40625 1.0q-0.234375 0.234375 -0.59375 0.234375q-0.234375 0 -0.234375 -0.234375q0 -0.296875 -0.34375 -0.421875l-0.765625 -0.171875q-0.234375 -0.109375 0 -0.234375l1.171875 0q0.40625 0 0.40625 -0.40625l0 -7.1562653l-4.984375 0l0 2.109375l0.828125 -1.46875l0.703125 0.65625q0.53125 0.46875 -0.359375 0.28125l-1.171875 1.59375l0 4.1562653q0 0.640625 -0.40625 1.0q-0.234375 0.234375 -0.578125 0.234375q-0.234375 0 -0.234375 -0.234375q0 -0.296875 -0.359375 -0.40625l-0.765625 -0.1875q-0.234375 -0.109375 0 -0.234375l1.171875 0q0.421875 0 0.421875 -0.40625l0 -2.875q-2.234375 2.640625 -4.8125 3.703125q-0.34375 0.109375 -0.234375 -0.1875zm9.3125 -3.21875q-0.234375 0 -0.40625 -0.296875q-0.40625 -1.1718903 -1.40625 -1.9375153q-0.171875 -0.234375 0.125 -0.171875q2.109375 0.875 2.109375 1.9375153q0 0.46875 -0.421875 0.46875zm-6.84375 -1.1718903l2.578125 -0.234375l0 -1.8125l-2.578125 0l0 2.046875zm0 -5.796875l0 1.515625l2.578125 0l0 -1.515625l-2.578125 0zm2.578125 3.390625l0 -1.515625l-2.578125 0l0 1.515625l2.578125 0z" fill-rule="nonzero"/></g></svg>